%TF.GenerationSoftware,KiCad,Pcbnew,9.0.4*%
%TF.CreationDate,2025-08-28T00:25:30-07:00*%
%TF.ProjectId,sweepbling-lp__pcb,73776565-7062-46c6-996e-672d6c705f5f,rev?*%
%TF.SameCoordinates,Original*%
%TF.FileFunction,Paste,Bot*%
%TF.FilePolarity,Positive*%
%FSLAX46Y46*%
G04 Gerber Fmt 4.6, Leading zero omitted, Abs format (unit mm)*
G04 Created by KiCad (PCBNEW 9.0.4) date 2025-08-28 00:25:30*
%MOMM*%
%LPD*%
G01*
G04 APERTURE LIST*
G04 Aperture macros list*
%AMRoundRect*
0 Rectangle with rounded corners*
0 $1 Rounding radius*
0 $2 $3 $4 $5 $6 $7 $8 $9 X,Y pos of 4 corners*
0 Add a 4 corners polygon primitive as box body*
4,1,4,$2,$3,$4,$5,$6,$7,$8,$9,$2,$3,0*
0 Add four circle primitives for the rounded corners*
1,1,$1+$1,$2,$3*
1,1,$1+$1,$4,$5*
1,1,$1+$1,$6,$7*
1,1,$1+$1,$8,$9*
0 Add four rect primitives between the rounded corners*
20,1,$1+$1,$2,$3,$4,$5,0*
20,1,$1+$1,$4,$5,$6,$7,0*
20,1,$1+$1,$6,$7,$8,$9,0*
20,1,$1+$1,$8,$9,$2,$3,0*%
G04 Aperture macros list end*
%ADD10RoundRect,0.250000X1.025000X1.000000X-1.025000X1.000000X-1.025000X-1.000000X1.025000X-1.000000X0*%
%ADD11RoundRect,0.250000X1.248893X0.700636X-0.731255X1.231215X-1.248893X-0.700636X0.731255X-1.231215X0*%
%ADD12RoundRect,0.250000X1.387676X0.353525X-0.387676X1.378525X-1.387676X-0.353525X0.387676X-1.378525X0*%
%ADD13RoundRect,0.250000X-1.025000X-1.000000X1.025000X-1.000000X1.025000X1.000000X-1.025000X1.000000X0*%
%ADD14RoundRect,0.200000X-0.800000X-1.050000X0.800000X-1.050000X0.800000X1.050000X-0.800000X1.050000X0*%
%ADD15RoundRect,0.250000X-0.731255X-1.231215X1.248893X-0.700636X0.731255X1.231215X-1.248893X0.700636X0*%
%ADD16RoundRect,0.250000X-0.387676X-1.378525X1.387676X-0.353525X0.387676X1.378525X-1.387676X0.353525X0*%
%ADD17R,0.900000X0.900000*%
%ADD18R,0.900000X1.250000*%
%ADD19RoundRect,0.225000X0.375000X-0.225000X0.375000X0.225000X-0.375000X0.225000X-0.375000X-0.225000X0*%
%ADD20RoundRect,0.225000X-0.225000X-0.375000X0.225000X-0.375000X0.225000X0.375000X-0.225000X0.375000X0*%
%ADD21RoundRect,0.225000X-0.375000X0.225000X-0.375000X-0.225000X0.375000X-0.225000X0.375000X0.225000X0*%
%ADD22RoundRect,0.225000X0.225000X0.375000X-0.225000X0.375000X-0.225000X-0.375000X0.225000X-0.375000X0*%
G04 APERTURE END LIST*
D10*
%TO.C,SW4_r1*%
X58200000Y-39682000D03*
X70200000Y-41882000D03*
%TD*%
D11*
%TO.C,SW16*%
X194632118Y-91552556D03*
X205653826Y-96783422D03*
%TD*%
D10*
%TO.C,SW13*%
X179356000Y-70516000D03*
X167356000Y-68316000D03*
%TD*%
D12*
%TO.C,SW17*%
X222417089Y-105028152D03*
X213124784Y-97122897D03*
%TD*%
D10*
%TO.C,SW12*%
X161356000Y-77374000D03*
X149356000Y-75174000D03*
%TD*%
%TO.C,SW14*%
X197356000Y-75850000D03*
X185356000Y-73650000D03*
%TD*%
%TO.C,SW15*%
X215336000Y-78390000D03*
X203336000Y-76190000D03*
%TD*%
%TO.C,SW3*%
X179356000Y-36382000D03*
X167356000Y-34182000D03*
%TD*%
%TO.C,SW2*%
X161356000Y-43382000D03*
X149356000Y-41182000D03*
%TD*%
%TO.C,SW7*%
X161356000Y-60356000D03*
X149356000Y-58156000D03*
%TD*%
D13*
%TO.C,SW11*%
X136356000Y-77382000D03*
D14*
X147806000Y-79582000D03*
%TD*%
D10*
%TO.C,SW10*%
X215336000Y-61372000D03*
X203336000Y-59172000D03*
%TD*%
%TO.C,SW9*%
X197356000Y-58832000D03*
X185356000Y-56632000D03*
%TD*%
D13*
%TO.C,SW6*%
X136356000Y-60382000D03*
X148356000Y-62582000D03*
%TD*%
D10*
%TO.C,SW5*%
X215356000Y-44382000D03*
X203356000Y-42182000D03*
%TD*%
%TO.C,SW4*%
X197356000Y-41882000D03*
X185356000Y-39682000D03*
%TD*%
D13*
%TO.C,SW1*%
X136356000Y-43382000D03*
X148356000Y-45582000D03*
%TD*%
D10*
%TO.C,SW8*%
X179356000Y-53498000D03*
X167356000Y-51298000D03*
%TD*%
D13*
%TO.C,SW15_r1*%
X45186000Y-66390000D03*
X57186000Y-68590000D03*
%TD*%
D10*
%TO.C,SW9_r1*%
X70200000Y-58832000D03*
X58200000Y-56632000D03*
%TD*%
%TO.C,SW13_r1*%
X88188000Y-70516000D03*
X76188000Y-68316000D03*
%TD*%
%TO.C,SW12_r1*%
X106214000Y-77374000D03*
X94214000Y-75174000D03*
%TD*%
D13*
%TO.C,SW5_r1*%
X45186000Y-32382000D03*
X57186000Y-34582000D03*
%TD*%
D10*
%TO.C,SW1_r1*%
X124232000Y-55382000D03*
X112232000Y-53182000D03*
%TD*%
%TO.C,SW14_r1*%
X70200000Y-75850000D03*
X58200000Y-73650000D03*
%TD*%
%TO.C,SW3_r1*%
X88188000Y-36382000D03*
X76188000Y-34182000D03*
%TD*%
%TO.C,SW11_r1*%
X124232000Y-89382000D03*
X112232000Y-87182000D03*
%TD*%
D13*
%TO.C,SW10_r1*%
X45186000Y-49372000D03*
X57186000Y-51572000D03*
%TD*%
D10*
%TO.C,SW2_r1*%
X106214000Y-43382000D03*
X94214000Y-41182000D03*
%TD*%
%TO.C,SW7_r1*%
X106214000Y-60356000D03*
X94214000Y-58156000D03*
%TD*%
D15*
%TO.C,SW16_r1*%
X51844345Y-85192312D03*
X64004857Y-84211520D03*
%TD*%
D10*
%TO.C,SW8_r1*%
X88188000Y-53498000D03*
X76188000Y-51298000D03*
%TD*%
D16*
%TO.C,SW17_r1*%
X32186911Y-94635848D03*
X43679216Y-90541103D03*
%TD*%
D10*
%TO.C,SW6_r1*%
X124232000Y-72382000D03*
X112232000Y-70182000D03*
%TD*%
D17*
%TO.C,SW_POWER1*%
X233824000Y-52916000D03*
X233824000Y-50716000D03*
X226424000Y-52916000D03*
X226424000Y-50716000D03*
D18*
X227874000Y-53891000D03*
X230874000Y-53891000D03*
X232374000Y-53891000D03*
%TD*%
D17*
%TO.C,SW_POWERR1*%
X34180000Y-52916000D03*
X34180000Y-50716000D03*
X26780000Y-52916000D03*
X26780000Y-50716000D03*
D18*
X28230000Y-53891000D03*
X31230000Y-53891000D03*
X32730000Y-53891000D03*
%TD*%
D19*
%TO.C,D10*%
X76000000Y-59650000D03*
X76000000Y-56350000D03*
%TD*%
D20*
%TO.C,D17*%
X106850000Y-90000000D03*
X110150000Y-90000000D03*
%TD*%
D19*
%TO.C,D7*%
X61000000Y-65000000D03*
X61000000Y-61700000D03*
%TD*%
%TO.C,D12*%
X99000000Y-84300000D03*
X99000000Y-81000000D03*
%TD*%
%TO.C,D13*%
X99000000Y-67150000D03*
X99000000Y-63850000D03*
%TD*%
D21*
%TO.C,D34*%
X214000000Y-90350000D03*
X214000000Y-93650000D03*
%TD*%
D19*
%TO.C,D19*%
X152500000Y-49506000D03*
X152500000Y-46206000D03*
%TD*%
%TO.C,D20*%
X170000000Y-42648000D03*
X170000000Y-39348000D03*
%TD*%
%TO.C,D5*%
X67500000Y-89150000D03*
X67500000Y-85850000D03*
%TD*%
%TO.C,D8*%
X61000000Y-48000000D03*
X61000000Y-44700000D03*
%TD*%
%TO.C,D18*%
X148500000Y-52500000D03*
X148500000Y-49200000D03*
%TD*%
%TO.C,D32*%
X203500000Y-84150000D03*
X203500000Y-80850000D03*
%TD*%
%TO.C,D26*%
X189500000Y-64500000D03*
X189500000Y-61200000D03*
%TD*%
%TO.C,D3*%
X53500000Y-78150000D03*
X53500000Y-74850000D03*
%TD*%
D22*
%TO.C,D29*%
X159150000Y-81500000D03*
X155850000Y-81500000D03*
%TD*%
D20*
%TO.C,D33*%
X189350000Y-94000000D03*
X192650000Y-94000000D03*
%TD*%
D19*
%TO.C,D24*%
X152000000Y-66150000D03*
X152000000Y-62850000D03*
%TD*%
%TO.C,D1*%
X53500000Y-44150000D03*
X53500000Y-40850000D03*
%TD*%
%TO.C,D2*%
X53500000Y-61150000D03*
X53500000Y-57850000D03*
%TD*%
%TO.C,D22*%
X203000000Y-53150000D03*
X203000000Y-49850000D03*
%TD*%
%TO.C,D31*%
X190500000Y-84150000D03*
X190500000Y-80850000D03*
%TD*%
%TO.C,D21*%
X185206000Y-47650000D03*
X185206000Y-44350000D03*
%TD*%
%TO.C,D14*%
X98500000Y-50300000D03*
X98500000Y-47000000D03*
%TD*%
%TO.C,D15*%
X112500000Y-60800000D03*
X112500000Y-57500000D03*
%TD*%
%TO.C,D27*%
X203000000Y-66650000D03*
X203000000Y-63350000D03*
%TD*%
%TO.C,D30*%
X167500000Y-77150000D03*
X167500000Y-73850000D03*
%TD*%
%TO.C,D25*%
X167500000Y-59666000D03*
X167500000Y-56366000D03*
%TD*%
%TO.C,D11*%
X76000000Y-76800000D03*
X76000000Y-73500000D03*
%TD*%
%TO.C,D9*%
X75692000Y-47932000D03*
X75692000Y-44632000D03*
%TD*%
%TO.C,D4*%
X47500000Y-95150000D03*
X47500000Y-91850000D03*
%TD*%
%TO.C,D16*%
X112500000Y-77800000D03*
X112500000Y-74500000D03*
%TD*%
D22*
%TO.C,D28*%
X149150000Y-88000000D03*
X145850000Y-88000000D03*
%TD*%
D19*
%TO.C,D23*%
X148500000Y-70650000D03*
X148500000Y-67350000D03*
%TD*%
%TO.C,D6*%
X61000000Y-80650000D03*
X61000000Y-77350000D03*
%TD*%
M02*
