%TF.GenerationSoftware,KiCad,Pcbnew,9.0.4*%
%TF.CreationDate,2025-08-28T00:25:30-07:00*%
%TF.ProjectId,sweepbling-lp__pcb,73776565-7062-46c6-996e-672d6c705f5f,rev?*%
%TF.SameCoordinates,Original*%
%TF.FileFunction,Soldermask,Bot*%
%TF.FilePolarity,Negative*%
%FSLAX46Y46*%
G04 Gerber Fmt 4.6, Leading zero omitted, Abs format (unit mm)*
G04 Created by KiCad (PCBNEW 9.0.4) date 2025-08-28 00:25:30*
%MOMM*%
%LPD*%
G01*
G04 APERTURE LIST*
G04 Aperture macros list*
%AMRoundRect*
0 Rectangle with rounded corners*
0 $1 Rounding radius*
0 $2 $3 $4 $5 $6 $7 $8 $9 X,Y pos of 4 corners*
0 Add a 4 corners polygon primitive as box body*
4,1,4,$2,$3,$4,$5,$6,$7,$8,$9,$2,$3,0*
0 Add four circle primitives for the rounded corners*
1,1,$1+$1,$2,$3*
1,1,$1+$1,$4,$5*
1,1,$1+$1,$6,$7*
1,1,$1+$1,$8,$9*
0 Add four rect primitives between the rounded corners*
20,1,$1+$1,$2,$3,$4,$5,0*
20,1,$1+$1,$4,$5,$6,$7,0*
20,1,$1+$1,$6,$7,$8,$9,0*
20,1,$1+$1,$8,$9,$2,$3,0*%
G04 Aperture macros list end*
%ADD10RoundRect,0.250000X1.025000X1.000000X-1.025000X1.000000X-1.025000X-1.000000X1.025000X-1.000000X0*%
%ADD11C,1.800000*%
%ADD12C,3.050000*%
%ADD13C,3.400000*%
%ADD14C,1.300000*%
%ADD15RoundRect,0.250000X1.248893X0.700636X-0.731255X1.231215X-1.248893X-0.700636X0.731255X-1.231215X0*%
%ADD16C,1.524000*%
%ADD17RoundRect,0.250000X1.387676X0.353525X-0.387676X1.378525X-1.387676X-0.353525X0.387676X-1.378525X0*%
%ADD18RoundRect,0.250000X-1.025000X-1.000000X1.025000X-1.000000X1.025000X1.000000X-1.025000X1.000000X0*%
%ADD19RoundRect,0.200000X-0.800000X-1.050000X0.800000X-1.050000X0.800000X1.050000X-0.800000X1.050000X0*%
%ADD20C,0.500000*%
%ADD21C,2.200000*%
%ADD22C,1.397000*%
%ADD23RoundRect,0.250000X-0.731255X-1.231215X1.248893X-0.700636X0.731255X1.231215X-1.248893X0.700636X0*%
%ADD24RoundRect,0.250000X-0.387676X-1.378525X1.387676X-0.353525X0.387676X1.378525X-1.387676X0.353525X0*%
%ADD25R,1.700000X1.700000*%
%ADD26C,1.700000*%
%ADD27C,3.350000*%
%ADD28C,1.000000*%
%ADD29R,0.900000X0.900000*%
%ADD30R,0.900000X1.250000*%
%ADD31RoundRect,0.225000X0.375000X-0.225000X0.375000X0.225000X-0.375000X0.225000X-0.375000X-0.225000X0*%
%ADD32RoundRect,0.225000X-0.225000X-0.375000X0.225000X-0.375000X0.225000X0.375000X-0.225000X0.375000X0*%
%ADD33RoundRect,0.225000X-0.375000X0.225000X-0.375000X-0.225000X0.375000X-0.225000X0.375000X0.225000X0*%
%ADD34RoundRect,0.225000X0.225000X0.375000X-0.225000X0.375000X-0.225000X-0.375000X0.225000X-0.375000X0*%
G04 APERTURE END LIST*
D10*
%TO.C,SW4_r1*%
X58200000Y-39682000D03*
X70200000Y-41882000D03*
D11*
X61200000Y-35882000D03*
D12*
X61700000Y-39682000D03*
D13*
X66700000Y-35882000D03*
D12*
X66700000Y-41782000D03*
D14*
X71920000Y-31682000D03*
D11*
X72200000Y-35882000D03*
%TD*%
D15*
%TO.C,SW16*%
X194632118Y-91552556D03*
X205653826Y-96783422D03*
D11*
X198513408Y-88658495D03*
D12*
X198012858Y-92458423D03*
D13*
X203826000Y-90082000D03*
D12*
X202298968Y-95780962D03*
D14*
X209955173Y-87376147D03*
D11*
X209138592Y-91505505D03*
%TD*%
D16*
%TO.C,U1*%
X237789400Y-53086000D03*
X237789400Y-55626000D03*
X237789400Y-58166000D03*
X237789400Y-60706000D03*
X237789400Y-63246000D03*
X237789400Y-65786000D03*
X237789400Y-68326000D03*
X237789400Y-70866000D03*
X237789400Y-73406000D03*
X237789400Y-75946000D03*
X237789400Y-78486000D03*
X237789400Y-81026000D03*
X222569400Y-81026000D03*
X222569400Y-78486000D03*
X222569400Y-75946000D03*
X222569400Y-73406000D03*
X222569400Y-70866000D03*
X222569400Y-68326000D03*
X222569400Y-65786000D03*
X222569400Y-63246000D03*
X222569400Y-60706000D03*
X222569400Y-58166000D03*
X222569400Y-55626000D03*
X222569400Y-53086000D03*
%TD*%
D11*
%TO.C,SW13*%
X181356000Y-64516000D03*
D14*
X181076000Y-60316000D03*
D12*
X175856000Y-70416000D03*
D13*
X175856000Y-64516000D03*
D12*
X170856000Y-68316000D03*
D11*
X170356000Y-64516000D03*
D10*
X179356000Y-70516000D03*
X167356000Y-68316000D03*
%TD*%
D11*
%TO.C,SW17*%
X227149140Y-100832000D03*
D14*
X229006653Y-97054693D03*
D12*
X219436000Y-103191550D03*
D13*
X222386000Y-98082000D03*
D12*
X216155873Y-98872897D03*
D11*
X217622860Y-95332000D03*
D17*
X222417089Y-105028152D03*
X213124784Y-97122897D03*
%TD*%
D11*
%TO.C,SW12*%
X163356000Y-71374000D03*
D14*
X163076000Y-67174000D03*
D12*
X157856000Y-77274000D03*
D13*
X157856000Y-71374000D03*
D12*
X152856000Y-75174000D03*
D11*
X152356000Y-71374000D03*
D10*
X161356000Y-77374000D03*
X149356000Y-75174000D03*
%TD*%
D11*
%TO.C,SW14*%
X199356000Y-69850000D03*
D14*
X199076000Y-65650000D03*
D12*
X193856000Y-75750000D03*
D13*
X193856000Y-69850000D03*
D12*
X188856000Y-73650000D03*
D11*
X188356000Y-69850000D03*
D10*
X197356000Y-75850000D03*
X185356000Y-73650000D03*
%TD*%
D11*
%TO.C,SW15*%
X217336000Y-72390000D03*
D14*
X217056000Y-68190000D03*
D12*
X211836000Y-78290000D03*
D13*
X211836000Y-72390000D03*
D12*
X206836000Y-76190000D03*
D11*
X206336000Y-72390000D03*
D10*
X215336000Y-78390000D03*
X203336000Y-76190000D03*
%TD*%
D11*
%TO.C,SW3*%
X181356000Y-30382000D03*
D14*
X181076000Y-26182000D03*
D12*
X175856000Y-36282000D03*
D13*
X175856000Y-30382000D03*
D12*
X170856000Y-34182000D03*
D11*
X170356000Y-30382000D03*
D10*
X179356000Y-36382000D03*
X167356000Y-34182000D03*
%TD*%
D11*
%TO.C,SW2*%
X163356000Y-37382000D03*
D14*
X163076000Y-33182000D03*
D12*
X157856000Y-43282000D03*
D13*
X157856000Y-37382000D03*
D12*
X152856000Y-41182000D03*
D11*
X152356000Y-37382000D03*
D10*
X161356000Y-43382000D03*
X149356000Y-41182000D03*
%TD*%
D11*
%TO.C,SW7*%
X163356000Y-54356000D03*
D14*
X163076000Y-50156000D03*
D12*
X157856000Y-60256000D03*
D13*
X157856000Y-54356000D03*
D12*
X152856000Y-58156000D03*
D11*
X152356000Y-54356000D03*
D10*
X161356000Y-60356000D03*
X149356000Y-58156000D03*
%TD*%
D11*
%TO.C,SW11*%
X134356000Y-83382000D03*
D14*
X134636000Y-87582000D03*
D12*
X139856000Y-77482000D03*
D13*
X139856000Y-83382000D03*
D12*
X144856000Y-79582000D03*
D11*
X145356000Y-83382000D03*
D18*
X136356000Y-77382000D03*
D19*
X147806000Y-79582000D03*
%TD*%
D11*
%TO.C,SW10*%
X217336000Y-55372000D03*
D14*
X217056000Y-51172000D03*
D12*
X211836000Y-61272000D03*
D13*
X211836000Y-55372000D03*
D12*
X206836000Y-59172000D03*
D11*
X206336000Y-55372000D03*
D10*
X215336000Y-61372000D03*
X203336000Y-59172000D03*
%TD*%
D11*
%TO.C,SW9*%
X199356000Y-52832000D03*
D14*
X199076000Y-48632000D03*
D12*
X193856000Y-58732000D03*
D13*
X193856000Y-52832000D03*
D12*
X188856000Y-56632000D03*
D11*
X188356000Y-52832000D03*
D10*
X197356000Y-58832000D03*
X185356000Y-56632000D03*
%TD*%
D11*
%TO.C,SW6*%
X134356000Y-66382000D03*
D14*
X134636000Y-70582000D03*
D12*
X139856000Y-60482000D03*
D13*
X139856000Y-66382000D03*
D12*
X144856000Y-62582000D03*
D11*
X145356000Y-66382000D03*
D18*
X136356000Y-60382000D03*
X148356000Y-62582000D03*
%TD*%
D11*
%TO.C,SW5*%
X217356000Y-38382000D03*
D14*
X217076000Y-34182000D03*
D12*
X211856000Y-44282000D03*
D13*
X211856000Y-38382000D03*
D12*
X206856000Y-42182000D03*
D11*
X206356000Y-38382000D03*
D10*
X215356000Y-44382000D03*
X203356000Y-42182000D03*
%TD*%
D11*
%TO.C,SW4*%
X199356000Y-35882000D03*
D14*
X199076000Y-31682000D03*
D12*
X193856000Y-41782000D03*
D13*
X193856000Y-35882000D03*
D12*
X188856000Y-39682000D03*
D11*
X188356000Y-35882000D03*
D10*
X197356000Y-41882000D03*
X185356000Y-39682000D03*
%TD*%
D11*
%TO.C,SW1*%
X134356000Y-49382000D03*
D14*
X134636000Y-53582000D03*
D12*
X139856000Y-43482000D03*
D13*
X139856000Y-49382000D03*
D12*
X144856000Y-45582000D03*
D11*
X145356000Y-49382000D03*
D18*
X136356000Y-43382000D03*
X148356000Y-45582000D03*
%TD*%
D20*
%TO.C,mouse-bite-2mm-slot2*%
X129286000Y-49276000D03*
X129286000Y-50292000D03*
X129286000Y-51308000D03*
X129286000Y-52324000D03*
X129286000Y-53340000D03*
X131318000Y-49276000D03*
X131318000Y-50292000D03*
X131318000Y-51308000D03*
X131318000Y-52324000D03*
X131318000Y-53340000D03*
%TD*%
%TO.C,mouse-bite-2mm-slot1*%
X129286000Y-73152000D03*
X129286000Y-74168000D03*
X129286000Y-75184000D03*
X129286000Y-76200000D03*
X129286000Y-77216000D03*
X131318000Y-73152000D03*
X131318000Y-74168000D03*
X131318000Y-75184000D03*
X131318000Y-76200000D03*
X131318000Y-77216000D03*
%TD*%
D11*
%TO.C,SW8*%
X181356000Y-47498000D03*
D14*
X181076000Y-43298000D03*
D12*
X175856000Y-53398000D03*
D13*
X175856000Y-47498000D03*
D12*
X170856000Y-51298000D03*
D11*
X170356000Y-47498000D03*
D10*
X179356000Y-53498000D03*
X167356000Y-51298000D03*
%TD*%
D21*
%TO.C,e*%
X166306000Y-46282000D03*
X185356000Y-27232000D03*
X185356000Y-65332000D03*
X204406000Y-46282000D03*
%TD*%
D22*
%TO.C,Bat+1*%
X235966000Y-50800000D03*
%TD*%
%TO.C,BatGND1*%
X224282000Y-50800000D03*
%TD*%
D16*
%TO.C,U2*%
X37937400Y-53086000D03*
X37937400Y-55626000D03*
X37937400Y-58166000D03*
X37937400Y-60706000D03*
X37937400Y-63246000D03*
X37937400Y-65786000D03*
X37937400Y-68326000D03*
X37937400Y-70866000D03*
X37937400Y-73406000D03*
X37937400Y-75946000D03*
X37937400Y-78486000D03*
X37937400Y-81026000D03*
X22717400Y-81026000D03*
X22717400Y-78486000D03*
X22717400Y-75946000D03*
X22717400Y-73406000D03*
X22717400Y-70866000D03*
X22717400Y-68326000D03*
X22717400Y-65786000D03*
X22717400Y-63246000D03*
X22717400Y-60706000D03*
X22717400Y-58166000D03*
X22717400Y-55626000D03*
X22717400Y-53086000D03*
%TD*%
D11*
%TO.C,SW15_r1*%
X43186000Y-72390000D03*
D14*
X43466000Y-76590000D03*
D12*
X48686000Y-66490000D03*
D13*
X48686000Y-72390000D03*
D12*
X53686000Y-68590000D03*
D11*
X54186000Y-72390000D03*
D18*
X45186000Y-66390000D03*
X57186000Y-68590000D03*
%TD*%
D11*
%TO.C,SW9_r1*%
X72200000Y-52832000D03*
D14*
X71920000Y-48632000D03*
D12*
X66700000Y-58732000D03*
D13*
X66700000Y-52832000D03*
D12*
X61700000Y-56632000D03*
D11*
X61200000Y-52832000D03*
D10*
X70200000Y-58832000D03*
X58200000Y-56632000D03*
%TD*%
D11*
%TO.C,SW13_r1*%
X90188000Y-64516000D03*
D14*
X89908000Y-60316000D03*
D12*
X84688000Y-70416000D03*
D13*
X84688000Y-64516000D03*
D12*
X79688000Y-68316000D03*
D11*
X79188000Y-64516000D03*
D10*
X88188000Y-70516000D03*
X76188000Y-68316000D03*
%TD*%
D11*
%TO.C,SW12_r1*%
X108214000Y-71374000D03*
D14*
X107934000Y-67174000D03*
D12*
X102714000Y-77274000D03*
D13*
X102714000Y-71374000D03*
D12*
X97714000Y-75174000D03*
D11*
X97214000Y-71374000D03*
D10*
X106214000Y-77374000D03*
X94214000Y-75174000D03*
%TD*%
D11*
%TO.C,SW5_r1*%
X43186000Y-38382000D03*
D14*
X43466000Y-42582000D03*
D12*
X48686000Y-32482000D03*
D13*
X48686000Y-38382000D03*
D12*
X53686000Y-34582000D03*
D11*
X54186000Y-38382000D03*
D18*
X45186000Y-32382000D03*
X57186000Y-34582000D03*
%TD*%
D11*
%TO.C,SW1_r1*%
X126232000Y-49382000D03*
D14*
X125952000Y-45182000D03*
D12*
X120732000Y-55282000D03*
D13*
X120732000Y-49382000D03*
D12*
X115732000Y-53182000D03*
D11*
X115232000Y-49382000D03*
D10*
X124232000Y-55382000D03*
X112232000Y-53182000D03*
%TD*%
D11*
%TO.C,SW14_r1*%
X72200000Y-69850000D03*
D14*
X71920000Y-65650000D03*
D12*
X66700000Y-75750000D03*
D13*
X66700000Y-69850000D03*
D12*
X61700000Y-73650000D03*
D11*
X61200000Y-69850000D03*
D10*
X70200000Y-75850000D03*
X58200000Y-73650000D03*
%TD*%
D11*
%TO.C,SW3_r1*%
X90188000Y-30382000D03*
D14*
X89908000Y-26182000D03*
D12*
X84688000Y-36282000D03*
D13*
X84688000Y-30382000D03*
D12*
X79688000Y-34182000D03*
D11*
X79188000Y-30382000D03*
D10*
X88188000Y-36382000D03*
X76188000Y-34182000D03*
%TD*%
D11*
%TO.C,SW11_r1*%
X126232000Y-83382000D03*
D14*
X125952000Y-79182000D03*
D12*
X120732000Y-89282000D03*
D13*
X120732000Y-83382000D03*
D12*
X115732000Y-87182000D03*
D11*
X115232000Y-83382000D03*
D10*
X124232000Y-89382000D03*
X112232000Y-87182000D03*
%TD*%
D11*
%TO.C,SW10_r1*%
X43186000Y-55372000D03*
D14*
X43466000Y-59572000D03*
D12*
X48686000Y-49472000D03*
D13*
X48686000Y-55372000D03*
D12*
X53686000Y-51572000D03*
D11*
X54186000Y-55372000D03*
D18*
X45186000Y-49372000D03*
X57186000Y-51572000D03*
%TD*%
D11*
%TO.C,SW2_r1*%
X108214000Y-37382000D03*
D14*
X107934000Y-33182000D03*
D12*
X102714000Y-43282000D03*
D13*
X102714000Y-37382000D03*
D12*
X97714000Y-41182000D03*
D11*
X97214000Y-37382000D03*
D10*
X106214000Y-43382000D03*
X94214000Y-41182000D03*
%TD*%
D11*
%TO.C,SW7_r1*%
X108214000Y-54356000D03*
D14*
X107934000Y-50156000D03*
D12*
X102714000Y-60256000D03*
D13*
X102714000Y-54356000D03*
D12*
X97714000Y-58156000D03*
D11*
X97214000Y-54356000D03*
D10*
X106214000Y-60356000D03*
X94214000Y-58156000D03*
%TD*%
D11*
%TO.C,SW16_r1*%
X51465408Y-91505505D03*
D14*
X52822907Y-95489924D03*
D12*
X55250968Y-84383038D03*
D13*
X56778000Y-90082000D03*
D12*
X60624117Y-85117387D03*
D11*
X62090592Y-88658495D03*
D23*
X51844345Y-85192312D03*
X64004857Y-84211520D03*
%TD*%
D11*
%TO.C,SW8_r1*%
X90188000Y-47498000D03*
D14*
X89908000Y-43298000D03*
D12*
X84688000Y-53398000D03*
D13*
X84688000Y-47498000D03*
D12*
X79688000Y-51298000D03*
D11*
X79188000Y-47498000D03*
D10*
X88188000Y-53498000D03*
X76188000Y-51298000D03*
%TD*%
D11*
%TO.C,SW17_r1*%
X33454860Y-100832000D03*
D14*
X35797347Y-104329307D03*
D12*
X35268000Y-92972450D03*
D13*
X38218000Y-98082000D03*
D12*
X40648127Y-92291103D03*
D11*
X42981140Y-95332000D03*
D24*
X32186911Y-94635848D03*
X43679216Y-90541103D03*
%TD*%
D11*
%TO.C,SW6_r1*%
X126232000Y-66382000D03*
D14*
X125952000Y-62182000D03*
D12*
X120732000Y-72282000D03*
D13*
X120732000Y-66382000D03*
D12*
X115732000Y-70182000D03*
D11*
X115232000Y-66382000D03*
D10*
X124232000Y-72382000D03*
X112232000Y-70182000D03*
%TD*%
D21*
%TO.C,REF_PUCK_R*%
X56642000Y-46282000D03*
X75692000Y-27232000D03*
X75692000Y-65332000D03*
X94742000Y-46282000D03*
%TD*%
D22*
%TO.C,BatGNDr1*%
X36068000Y-50800000D03*
%TD*%
%TO.C,Bat+r1*%
X24638000Y-50800000D03*
%TD*%
D25*
%TO.C,J1*%
X225128000Y-85500000D03*
D26*
X227668000Y-85500000D03*
X230208000Y-85500000D03*
X232748000Y-85500000D03*
X235288000Y-85500000D03*
%TD*%
D25*
%TO.C,J1_r1*%
X25276000Y-85500000D03*
D26*
X27816000Y-85500000D03*
X30356000Y-85500000D03*
X32896000Y-85500000D03*
X35436000Y-85500000D03*
%TD*%
D27*
%TO.C,REF\u002A\u002A*%
X203918000Y-28194000D03*
%TD*%
%TO.C,REF\u002A\u002A*%
X56642000Y-28194000D03*
%TD*%
%TO.C,REF\u002A\u002A*%
X110109000Y-82419610D03*
%TD*%
%TO.C,REF\u002A\u002A*%
X28956000Y-91567000D03*
%TD*%
%TO.C,REF\u002A\u002A*%
X231648000Y-91567000D03*
%TD*%
%TO.C,REF\u002A\u002A*%
X150479000Y-82419610D03*
%TD*%
%TO.C,REF\u002A\u002A*%
X113665000Y-38354000D03*
%TD*%
%TO.C,REF\u002A\u002A*%
X146905000Y-38354000D03*
%TD*%
D28*
%TO.C,SW_POWER1*%
X231624000Y-51816000D03*
X228624000Y-51816000D03*
D29*
X233824000Y-52916000D03*
X233824000Y-50716000D03*
X226424000Y-52916000D03*
X226424000Y-50716000D03*
D30*
X227874000Y-53891000D03*
X230874000Y-53891000D03*
X232374000Y-53891000D03*
%TD*%
D28*
%TO.C,SW_POWERR1*%
X31980000Y-51816000D03*
X28980000Y-51816000D03*
D29*
X34180000Y-52916000D03*
X34180000Y-50716000D03*
X26780000Y-52916000D03*
X26780000Y-50716000D03*
D30*
X28230000Y-53891000D03*
X31230000Y-53891000D03*
X32730000Y-53891000D03*
%TD*%
D31*
%TO.C,D10*%
X76000000Y-59650000D03*
X76000000Y-56350000D03*
%TD*%
D32*
%TO.C,D17*%
X106850000Y-90000000D03*
X110150000Y-90000000D03*
%TD*%
D31*
%TO.C,D7*%
X61000000Y-65000000D03*
X61000000Y-61700000D03*
%TD*%
%TO.C,D12*%
X99000000Y-84300000D03*
X99000000Y-81000000D03*
%TD*%
%TO.C,D13*%
X99000000Y-67150000D03*
X99000000Y-63850000D03*
%TD*%
D33*
%TO.C,D34*%
X214000000Y-90350000D03*
X214000000Y-93650000D03*
%TD*%
D31*
%TO.C,D19*%
X152500000Y-49506000D03*
X152500000Y-46206000D03*
%TD*%
%TO.C,D20*%
X170000000Y-42648000D03*
X170000000Y-39348000D03*
%TD*%
%TO.C,D5*%
X67500000Y-89150000D03*
X67500000Y-85850000D03*
%TD*%
%TO.C,D8*%
X61000000Y-48000000D03*
X61000000Y-44700000D03*
%TD*%
%TO.C,D18*%
X148500000Y-52500000D03*
X148500000Y-49200000D03*
%TD*%
%TO.C,D32*%
X203500000Y-84150000D03*
X203500000Y-80850000D03*
%TD*%
%TO.C,D26*%
X189500000Y-64500000D03*
X189500000Y-61200000D03*
%TD*%
%TO.C,D3*%
X53500000Y-78150000D03*
X53500000Y-74850000D03*
%TD*%
D34*
%TO.C,D29*%
X159150000Y-81500000D03*
X155850000Y-81500000D03*
%TD*%
D32*
%TO.C,D33*%
X189350000Y-94000000D03*
X192650000Y-94000000D03*
%TD*%
D31*
%TO.C,D24*%
X152000000Y-66150000D03*
X152000000Y-62850000D03*
%TD*%
%TO.C,D1*%
X53500000Y-44150000D03*
X53500000Y-40850000D03*
%TD*%
%TO.C,D2*%
X53500000Y-61150000D03*
X53500000Y-57850000D03*
%TD*%
%TO.C,D22*%
X203000000Y-53150000D03*
X203000000Y-49850000D03*
%TD*%
%TO.C,D31*%
X190500000Y-84150000D03*
X190500000Y-80850000D03*
%TD*%
%TO.C,D21*%
X185206000Y-47650000D03*
X185206000Y-44350000D03*
%TD*%
%TO.C,D14*%
X98500000Y-50300000D03*
X98500000Y-47000000D03*
%TD*%
%TO.C,D15*%
X112500000Y-60800000D03*
X112500000Y-57500000D03*
%TD*%
%TO.C,D27*%
X203000000Y-66650000D03*
X203000000Y-63350000D03*
%TD*%
%TO.C,D30*%
X167500000Y-77150000D03*
X167500000Y-73850000D03*
%TD*%
%TO.C,D25*%
X167500000Y-59666000D03*
X167500000Y-56366000D03*
%TD*%
%TO.C,D11*%
X76000000Y-76800000D03*
X76000000Y-73500000D03*
%TD*%
%TO.C,D9*%
X75692000Y-47932000D03*
X75692000Y-44632000D03*
%TD*%
%TO.C,D4*%
X47500000Y-95150000D03*
X47500000Y-91850000D03*
%TD*%
%TO.C,D16*%
X112500000Y-77800000D03*
X112500000Y-74500000D03*
%TD*%
D34*
%TO.C,D28*%
X149150000Y-88000000D03*
X145850000Y-88000000D03*
%TD*%
D31*
%TO.C,D23*%
X148500000Y-70650000D03*
X148500000Y-67350000D03*
%TD*%
%TO.C,D6*%
X61000000Y-80650000D03*
X61000000Y-77350000D03*
%TD*%
M02*
