%TF.GenerationSoftware,KiCad,Pcbnew,9.0.4*%
%TF.CreationDate,2025-08-28T00:25:30-07:00*%
%TF.ProjectId,sweepbling-lp__pcb,73776565-7062-46c6-996e-672d6c705f5f,rev?*%
%TF.SameCoordinates,Original*%
%TF.FileFunction,Profile,NP*%
%FSLAX46Y46*%
G04 Gerber Fmt 4.6, Leading zero omitted, Abs format (unit mm)*
G04 Created by KiCad (PCBNEW 9.0.4) date 2025-08-28 00:25:30*
%MOMM*%
%LPD*%
G01*
G04 APERTURE LIST*
%TA.AperFunction,Profile*%
%ADD10C,0.050000*%
%TD*%
G04 APERTURE END LIST*
D10*
X131508500Y-77724000D02*
X131506254Y-89547024D01*
X219998001Y-47763999D02*
X219998045Y-30439419D01*
X226446000Y-107451265D02*
G75*
G02*
X223714000Y-108050000I-1662000J1051265D01*
G01*
X222033002Y-49694917D02*
G75*
G02*
X219998001Y-47763999I-35002J2000917D01*
G01*
X182067777Y-21502679D02*
G75*
G02*
X219563295Y-29758875I-11947277J-143529621D01*
G01*
X132893000Y-38265000D02*
G75*
G02*
X178120389Y-21508136I44973400J-51971230D01*
G01*
X237938000Y-49692000D02*
G75*
G02*
X238688000Y-50442000I0J-750000D01*
G01*
X131466055Y-40278702D02*
G75*
G02*
X132893000Y-38265000I3871945J-1231298D01*
G01*
X133544000Y-91383119D02*
G75*
G02*
X131506294Y-89547021I-59700J1982519D01*
G01*
X219563290Y-29758889D02*
G75*
G02*
X219998002Y-30439419I-315290J-680511D01*
G01*
X202185134Y-98863946D02*
G75*
G02*
X223714000Y-108050000I-22787134J-83226054D01*
G01*
X222033002Y-49694917D02*
X237938000Y-49692000D01*
X133544000Y-91383119D02*
G75*
G02*
X202185136Y-98863939I-578000J-323956281D01*
G01*
X238688000Y-58420000D02*
X238688000Y-66548000D01*
X236953304Y-88858150D02*
X226446000Y-107451265D01*
X238700000Y-81534000D02*
G75*
G02*
X236953327Y-88858162I-16773900J129900D01*
G01*
X182067777Y-21502679D02*
X178120389Y-21508139D01*
X238688000Y-50442000D02*
X238688000Y-58420000D01*
X131466055Y-40278702D02*
X131572000Y-48768000D01*
X129349500Y-48768000D02*
X128960000Y-48768000D01*
X238688000Y-66548000D02*
X238688000Y-75438000D01*
X238688000Y-75438000D02*
X238700000Y-81534000D01*
X129349500Y-72644000D02*
X128960000Y-72644000D01*
X129349500Y-53848000D02*
X128960000Y-53848000D01*
X129349500Y-77724000D02*
X128960000Y-77724000D01*
X131572000Y-53848000D02*
X131572000Y-72644000D01*
X78412223Y-21502679D02*
X82613611Y-21508139D01*
X21792000Y-50442000D02*
X21792000Y-58420000D01*
X128960000Y-77724000D02*
X128975507Y-89545022D01*
X127587000Y-38265000D02*
G75*
G02*
X129013945Y-40278702I-2445000J-3245000D01*
G01*
X128975507Y-89545022D02*
G75*
G02*
X126936000Y-91383122I-1980007J146422D01*
G01*
X40481999Y-47763999D02*
X40481955Y-30439419D01*
X21792000Y-66548000D02*
X21792000Y-73914000D01*
X23526696Y-88858150D02*
X34034000Y-107451265D01*
X40481999Y-47763999D02*
G75*
G02*
X38446998Y-49694917I-1999999J69999D01*
G01*
X40916710Y-29758889D02*
G75*
G02*
X78412223Y-21502679I49442840J-135273371D01*
G01*
X58294866Y-98863946D02*
G75*
G02*
X126936000Y-91383118I69219184J-316475584D01*
G01*
X23526696Y-88858150D02*
G75*
G02*
X21779999Y-81534000I15027154J7454100D01*
G01*
X21792000Y-50442000D02*
G75*
G02*
X22542000Y-49692000I750000J0D01*
G01*
X38446998Y-49694917D02*
X22542000Y-49692000D01*
X21792000Y-58420000D02*
X21792000Y-66548000D01*
X40481955Y-30439419D02*
G75*
G02*
X40916692Y-29758850I750045J19D01*
G01*
X36766000Y-108050000D02*
G75*
G02*
X34034000Y-107451265I-1070000J1650000D01*
G01*
X82613611Y-21508139D02*
G75*
G02*
X127586989Y-38265013I-11J-68729961D01*
G01*
X36766000Y-108050000D02*
G75*
G02*
X58294866Y-98863946I44316000J-74040000D01*
G01*
X21792000Y-73914000D02*
X21780000Y-81534000D01*
X128960000Y-53848000D02*
X128960000Y-72644000D01*
X129013945Y-40278702D02*
X128960000Y-48768000D01*
X131572000Y-48768000D02*
X131254500Y-48768000D01*
X131254499Y-72644000D02*
G75*
G02*
X129349501Y-72643999I-952499J381000D01*
G01*
X131572000Y-53848000D02*
X131254500Y-53848000D01*
X129349501Y-77724000D02*
G75*
G02*
X131254499Y-77724001I952499J-381000D01*
G01*
X131572000Y-72644000D02*
X131254500Y-72644000D01*
X131254499Y-48768000D02*
G75*
G02*
X129349501Y-48767999I-952499J381000D01*
G01*
X131508500Y-77724000D02*
X131254500Y-77724000D01*
X129349501Y-53848000D02*
G75*
G02*
X131254499Y-53848001I952499J-381000D01*
G01*
M02*
