%TF.GenerationSoftware,KiCad,Pcbnew,9.0.4*%
%TF.CreationDate,2025-08-28T00:25:30-07:00*%
%TF.ProjectId,sweepbling-lp__pcb,73776565-7062-46c6-996e-672d6c705f5f,rev?*%
%TF.SameCoordinates,Original*%
%TF.FileFunction,Legend,Top*%
%TF.FilePolarity,Positive*%
%FSLAX46Y46*%
G04 Gerber Fmt 4.6, Leading zero omitted, Abs format (unit mm)*
G04 Created by KiCad (PCBNEW 9.0.4) date 2025-08-28 00:25:30*
%MOMM*%
%LPD*%
G01*
G04 APERTURE LIST*
%ADD10C,0.300000*%
%ADD11C,0.150000*%
%ADD12C,0.120000*%
%ADD13C,0.125000*%
%ADD14C,0.100000*%
%ADD15C,0.200000*%
%ADD16C,0.010000*%
%ADD17C,1.524000*%
%ADD18C,1.397000*%
G04 APERTURE END LIST*
D10*
X230270614Y-72198857D02*
X230270614Y-72698857D01*
X231056328Y-72698857D02*
X229556328Y-72698857D01*
X229556328Y-72698857D02*
X229556328Y-71984571D01*
X231056328Y-70770286D02*
X230270614Y-70770286D01*
X230270614Y-70770286D02*
X230127757Y-70841714D01*
X230127757Y-70841714D02*
X230056328Y-70984571D01*
X230056328Y-70984571D02*
X230056328Y-71270286D01*
X230056328Y-71270286D02*
X230127757Y-71413143D01*
X230984900Y-70770286D02*
X231056328Y-70913143D01*
X231056328Y-70913143D02*
X231056328Y-71270286D01*
X231056328Y-71270286D02*
X230984900Y-71413143D01*
X230984900Y-71413143D02*
X230842042Y-71484571D01*
X230842042Y-71484571D02*
X230699185Y-71484571D01*
X230699185Y-71484571D02*
X230556328Y-71413143D01*
X230556328Y-71413143D02*
X230484900Y-71270286D01*
X230484900Y-71270286D02*
X230484900Y-70913143D01*
X230484900Y-70913143D02*
X230413471Y-70770286D01*
X230984900Y-69413143D02*
X231056328Y-69556000D01*
X231056328Y-69556000D02*
X231056328Y-69841714D01*
X231056328Y-69841714D02*
X230984900Y-69984571D01*
X230984900Y-69984571D02*
X230913471Y-70056000D01*
X230913471Y-70056000D02*
X230770614Y-70127428D01*
X230770614Y-70127428D02*
X230342042Y-70127428D01*
X230342042Y-70127428D02*
X230199185Y-70056000D01*
X230199185Y-70056000D02*
X230127757Y-69984571D01*
X230127757Y-69984571D02*
X230056328Y-69841714D01*
X230056328Y-69841714D02*
X230056328Y-69556000D01*
X230056328Y-69556000D02*
X230127757Y-69413143D01*
X230984900Y-68198857D02*
X231056328Y-68341714D01*
X231056328Y-68341714D02*
X231056328Y-68627429D01*
X231056328Y-68627429D02*
X230984900Y-68770286D01*
X230984900Y-68770286D02*
X230842042Y-68841714D01*
X230842042Y-68841714D02*
X230270614Y-68841714D01*
X230270614Y-68841714D02*
X230127757Y-68770286D01*
X230127757Y-68770286D02*
X230056328Y-68627429D01*
X230056328Y-68627429D02*
X230056328Y-68341714D01*
X230056328Y-68341714D02*
X230127757Y-68198857D01*
X230127757Y-68198857D02*
X230270614Y-68127429D01*
X230270614Y-68127429D02*
X230413471Y-68127429D01*
X230413471Y-68127429D02*
X230556328Y-68841714D01*
X231056328Y-65698858D02*
X229556328Y-65698858D01*
X230984900Y-65698858D02*
X231056328Y-65841715D01*
X231056328Y-65841715D02*
X231056328Y-66127429D01*
X231056328Y-66127429D02*
X230984900Y-66270286D01*
X230984900Y-66270286D02*
X230913471Y-66341715D01*
X230913471Y-66341715D02*
X230770614Y-66413143D01*
X230770614Y-66413143D02*
X230342042Y-66413143D01*
X230342042Y-66413143D02*
X230199185Y-66341715D01*
X230199185Y-66341715D02*
X230127757Y-66270286D01*
X230127757Y-66270286D02*
X230056328Y-66127429D01*
X230056328Y-66127429D02*
X230056328Y-65841715D01*
X230056328Y-65841715D02*
X230127757Y-65698858D01*
X231056328Y-64770286D02*
X230984900Y-64913143D01*
X230984900Y-64913143D02*
X230913471Y-64984572D01*
X230913471Y-64984572D02*
X230770614Y-65056000D01*
X230770614Y-65056000D02*
X230342042Y-65056000D01*
X230342042Y-65056000D02*
X230199185Y-64984572D01*
X230199185Y-64984572D02*
X230127757Y-64913143D01*
X230127757Y-64913143D02*
X230056328Y-64770286D01*
X230056328Y-64770286D02*
X230056328Y-64556000D01*
X230056328Y-64556000D02*
X230127757Y-64413143D01*
X230127757Y-64413143D02*
X230199185Y-64341715D01*
X230199185Y-64341715D02*
X230342042Y-64270286D01*
X230342042Y-64270286D02*
X230770614Y-64270286D01*
X230770614Y-64270286D02*
X230913471Y-64341715D01*
X230913471Y-64341715D02*
X230984900Y-64413143D01*
X230984900Y-64413143D02*
X231056328Y-64556000D01*
X231056328Y-64556000D02*
X231056328Y-64770286D01*
X230056328Y-63770286D02*
X231056328Y-63484572D01*
X231056328Y-63484572D02*
X230342042Y-63198857D01*
X230342042Y-63198857D02*
X231056328Y-62913143D01*
X231056328Y-62913143D02*
X230056328Y-62627429D01*
X230056328Y-62056000D02*
X231056328Y-62056000D01*
X230199185Y-62056000D02*
X230127757Y-61984571D01*
X230127757Y-61984571D02*
X230056328Y-61841714D01*
X230056328Y-61841714D02*
X230056328Y-61627428D01*
X230056328Y-61627428D02*
X230127757Y-61484571D01*
X230127757Y-61484571D02*
X230270614Y-61413143D01*
X230270614Y-61413143D02*
X231056328Y-61413143D01*
X29610614Y-71690857D02*
X29610614Y-72190857D01*
X30396328Y-72190857D02*
X28896328Y-72190857D01*
X28896328Y-72190857D02*
X28896328Y-71476571D01*
X30396328Y-70262286D02*
X29610614Y-70262286D01*
X29610614Y-70262286D02*
X29467757Y-70333714D01*
X29467757Y-70333714D02*
X29396328Y-70476571D01*
X29396328Y-70476571D02*
X29396328Y-70762286D01*
X29396328Y-70762286D02*
X29467757Y-70905143D01*
X30324900Y-70262286D02*
X30396328Y-70405143D01*
X30396328Y-70405143D02*
X30396328Y-70762286D01*
X30396328Y-70762286D02*
X30324900Y-70905143D01*
X30324900Y-70905143D02*
X30182042Y-70976571D01*
X30182042Y-70976571D02*
X30039185Y-70976571D01*
X30039185Y-70976571D02*
X29896328Y-70905143D01*
X29896328Y-70905143D02*
X29824900Y-70762286D01*
X29824900Y-70762286D02*
X29824900Y-70405143D01*
X29824900Y-70405143D02*
X29753471Y-70262286D01*
X30324900Y-68905143D02*
X30396328Y-69048000D01*
X30396328Y-69048000D02*
X30396328Y-69333714D01*
X30396328Y-69333714D02*
X30324900Y-69476571D01*
X30324900Y-69476571D02*
X30253471Y-69548000D01*
X30253471Y-69548000D02*
X30110614Y-69619428D01*
X30110614Y-69619428D02*
X29682042Y-69619428D01*
X29682042Y-69619428D02*
X29539185Y-69548000D01*
X29539185Y-69548000D02*
X29467757Y-69476571D01*
X29467757Y-69476571D02*
X29396328Y-69333714D01*
X29396328Y-69333714D02*
X29396328Y-69048000D01*
X29396328Y-69048000D02*
X29467757Y-68905143D01*
X30324900Y-67690857D02*
X30396328Y-67833714D01*
X30396328Y-67833714D02*
X30396328Y-68119429D01*
X30396328Y-68119429D02*
X30324900Y-68262286D01*
X30324900Y-68262286D02*
X30182042Y-68333714D01*
X30182042Y-68333714D02*
X29610614Y-68333714D01*
X29610614Y-68333714D02*
X29467757Y-68262286D01*
X29467757Y-68262286D02*
X29396328Y-68119429D01*
X29396328Y-68119429D02*
X29396328Y-67833714D01*
X29396328Y-67833714D02*
X29467757Y-67690857D01*
X29467757Y-67690857D02*
X29610614Y-67619429D01*
X29610614Y-67619429D02*
X29753471Y-67619429D01*
X29753471Y-67619429D02*
X29896328Y-68333714D01*
X30396328Y-65190858D02*
X28896328Y-65190858D01*
X30324900Y-65190858D02*
X30396328Y-65333715D01*
X30396328Y-65333715D02*
X30396328Y-65619429D01*
X30396328Y-65619429D02*
X30324900Y-65762286D01*
X30324900Y-65762286D02*
X30253471Y-65833715D01*
X30253471Y-65833715D02*
X30110614Y-65905143D01*
X30110614Y-65905143D02*
X29682042Y-65905143D01*
X29682042Y-65905143D02*
X29539185Y-65833715D01*
X29539185Y-65833715D02*
X29467757Y-65762286D01*
X29467757Y-65762286D02*
X29396328Y-65619429D01*
X29396328Y-65619429D02*
X29396328Y-65333715D01*
X29396328Y-65333715D02*
X29467757Y-65190858D01*
X30396328Y-64262286D02*
X30324900Y-64405143D01*
X30324900Y-64405143D02*
X30253471Y-64476572D01*
X30253471Y-64476572D02*
X30110614Y-64548000D01*
X30110614Y-64548000D02*
X29682042Y-64548000D01*
X29682042Y-64548000D02*
X29539185Y-64476572D01*
X29539185Y-64476572D02*
X29467757Y-64405143D01*
X29467757Y-64405143D02*
X29396328Y-64262286D01*
X29396328Y-64262286D02*
X29396328Y-64048000D01*
X29396328Y-64048000D02*
X29467757Y-63905143D01*
X29467757Y-63905143D02*
X29539185Y-63833715D01*
X29539185Y-63833715D02*
X29682042Y-63762286D01*
X29682042Y-63762286D02*
X30110614Y-63762286D01*
X30110614Y-63762286D02*
X30253471Y-63833715D01*
X30253471Y-63833715D02*
X30324900Y-63905143D01*
X30324900Y-63905143D02*
X30396328Y-64048000D01*
X30396328Y-64048000D02*
X30396328Y-64262286D01*
X29396328Y-63262286D02*
X30396328Y-62976572D01*
X30396328Y-62976572D02*
X29682042Y-62690857D01*
X29682042Y-62690857D02*
X30396328Y-62405143D01*
X30396328Y-62405143D02*
X29396328Y-62119429D01*
X29396328Y-61548000D02*
X30396328Y-61548000D01*
X29539185Y-61548000D02*
X29467757Y-61476571D01*
X29467757Y-61476571D02*
X29396328Y-61333714D01*
X29396328Y-61333714D02*
X29396328Y-61119428D01*
X29396328Y-61119428D02*
X29467757Y-60976571D01*
X29467757Y-60976571D02*
X29610614Y-60905143D01*
X29610614Y-60905143D02*
X30396328Y-60905143D01*
D11*
X22269504Y-50743247D02*
X22383790Y-50781342D01*
X22383790Y-50781342D02*
X22421885Y-50819438D01*
X22421885Y-50819438D02*
X22459981Y-50895628D01*
X22459981Y-50895628D02*
X22459981Y-51009914D01*
X22459981Y-51009914D02*
X22421885Y-51086104D01*
X22421885Y-51086104D02*
X22383790Y-51124200D01*
X22383790Y-51124200D02*
X22307600Y-51162295D01*
X22307600Y-51162295D02*
X22002838Y-51162295D01*
X22002838Y-51162295D02*
X22002838Y-50362295D01*
X22002838Y-50362295D02*
X22269504Y-50362295D01*
X22269504Y-50362295D02*
X22345695Y-50400390D01*
X22345695Y-50400390D02*
X22383790Y-50438485D01*
X22383790Y-50438485D02*
X22421885Y-50514676D01*
X22421885Y-50514676D02*
X22421885Y-50590866D01*
X22421885Y-50590866D02*
X22383790Y-50667057D01*
X22383790Y-50667057D02*
X22345695Y-50705152D01*
X22345695Y-50705152D02*
X22269504Y-50743247D01*
X22269504Y-50743247D02*
X22002838Y-50743247D01*
X22802838Y-50857533D02*
X23412362Y-50857533D01*
X23107600Y-51162295D02*
X23107600Y-50552771D01*
X37661904Y-50743247D02*
X37776190Y-50781342D01*
X37776190Y-50781342D02*
X37814285Y-50819438D01*
X37814285Y-50819438D02*
X37852381Y-50895628D01*
X37852381Y-50895628D02*
X37852381Y-51009914D01*
X37852381Y-51009914D02*
X37814285Y-51086104D01*
X37814285Y-51086104D02*
X37776190Y-51124200D01*
X37776190Y-51124200D02*
X37700000Y-51162295D01*
X37700000Y-51162295D02*
X37395238Y-51162295D01*
X37395238Y-51162295D02*
X37395238Y-50362295D01*
X37395238Y-50362295D02*
X37661904Y-50362295D01*
X37661904Y-50362295D02*
X37738095Y-50400390D01*
X37738095Y-50400390D02*
X37776190Y-50438485D01*
X37776190Y-50438485D02*
X37814285Y-50514676D01*
X37814285Y-50514676D02*
X37814285Y-50590866D01*
X37814285Y-50590866D02*
X37776190Y-50667057D01*
X37776190Y-50667057D02*
X37738095Y-50705152D01*
X37738095Y-50705152D02*
X37661904Y-50743247D01*
X37661904Y-50743247D02*
X37395238Y-50743247D01*
X38195238Y-50857533D02*
X38804762Y-50857533D01*
X221913504Y-50692447D02*
X222027790Y-50730542D01*
X222027790Y-50730542D02*
X222065885Y-50768638D01*
X222065885Y-50768638D02*
X222103981Y-50844828D01*
X222103981Y-50844828D02*
X222103981Y-50959114D01*
X222103981Y-50959114D02*
X222065885Y-51035304D01*
X222065885Y-51035304D02*
X222027790Y-51073400D01*
X222027790Y-51073400D02*
X221951600Y-51111495D01*
X221951600Y-51111495D02*
X221646838Y-51111495D01*
X221646838Y-51111495D02*
X221646838Y-50311495D01*
X221646838Y-50311495D02*
X221913504Y-50311495D01*
X221913504Y-50311495D02*
X221989695Y-50349590D01*
X221989695Y-50349590D02*
X222027790Y-50387685D01*
X222027790Y-50387685D02*
X222065885Y-50463876D01*
X222065885Y-50463876D02*
X222065885Y-50540066D01*
X222065885Y-50540066D02*
X222027790Y-50616257D01*
X222027790Y-50616257D02*
X221989695Y-50654352D01*
X221989695Y-50654352D02*
X221913504Y-50692447D01*
X221913504Y-50692447D02*
X221646838Y-50692447D01*
X222446838Y-50806733D02*
X223056362Y-50806733D01*
X237458304Y-50743247D02*
X237572590Y-50781342D01*
X237572590Y-50781342D02*
X237610685Y-50819438D01*
X237610685Y-50819438D02*
X237648781Y-50895628D01*
X237648781Y-50895628D02*
X237648781Y-51009914D01*
X237648781Y-51009914D02*
X237610685Y-51086104D01*
X237610685Y-51086104D02*
X237572590Y-51124200D01*
X237572590Y-51124200D02*
X237496400Y-51162295D01*
X237496400Y-51162295D02*
X237191638Y-51162295D01*
X237191638Y-51162295D02*
X237191638Y-50362295D01*
X237191638Y-50362295D02*
X237458304Y-50362295D01*
X237458304Y-50362295D02*
X237534495Y-50400390D01*
X237534495Y-50400390D02*
X237572590Y-50438485D01*
X237572590Y-50438485D02*
X237610685Y-50514676D01*
X237610685Y-50514676D02*
X237610685Y-50590866D01*
X237610685Y-50590866D02*
X237572590Y-50667057D01*
X237572590Y-50667057D02*
X237534495Y-50705152D01*
X237534495Y-50705152D02*
X237458304Y-50743247D01*
X237458304Y-50743247D02*
X237191638Y-50743247D01*
X237991638Y-50857533D02*
X238601162Y-50857533D01*
X238296400Y-51162295D02*
X238296400Y-50552771D01*
D12*
X29094286Y-50969731D02*
X29094286Y-50369731D01*
X29094286Y-50369731D02*
X29322857Y-50369731D01*
X29322857Y-50369731D02*
X29380000Y-50398302D01*
X29380000Y-50398302D02*
X29408571Y-50426874D01*
X29408571Y-50426874D02*
X29437143Y-50484017D01*
X29437143Y-50484017D02*
X29437143Y-50569731D01*
X29437143Y-50569731D02*
X29408571Y-50626874D01*
X29408571Y-50626874D02*
X29380000Y-50655445D01*
X29380000Y-50655445D02*
X29322857Y-50684017D01*
X29322857Y-50684017D02*
X29094286Y-50684017D01*
X29808571Y-50369731D02*
X29922857Y-50369731D01*
X29922857Y-50369731D02*
X29980000Y-50398302D01*
X29980000Y-50398302D02*
X30037143Y-50455445D01*
X30037143Y-50455445D02*
X30065714Y-50569731D01*
X30065714Y-50569731D02*
X30065714Y-50769731D01*
X30065714Y-50769731D02*
X30037143Y-50884017D01*
X30037143Y-50884017D02*
X29980000Y-50941160D01*
X29980000Y-50941160D02*
X29922857Y-50969731D01*
X29922857Y-50969731D02*
X29808571Y-50969731D01*
X29808571Y-50969731D02*
X29751429Y-50941160D01*
X29751429Y-50941160D02*
X29694286Y-50884017D01*
X29694286Y-50884017D02*
X29665714Y-50769731D01*
X29665714Y-50769731D02*
X29665714Y-50569731D01*
X29665714Y-50569731D02*
X29694286Y-50455445D01*
X29694286Y-50455445D02*
X29751429Y-50398302D01*
X29751429Y-50398302D02*
X29808571Y-50369731D01*
X30265714Y-50369731D02*
X30408571Y-50969731D01*
X30408571Y-50969731D02*
X30522857Y-50541160D01*
X30522857Y-50541160D02*
X30637142Y-50969731D01*
X30637142Y-50969731D02*
X30780000Y-50369731D01*
X31008571Y-50655445D02*
X31208571Y-50655445D01*
X31294285Y-50969731D02*
X31008571Y-50969731D01*
X31008571Y-50969731D02*
X31008571Y-50369731D01*
X31008571Y-50369731D02*
X31294285Y-50369731D01*
X31894285Y-50969731D02*
X31694285Y-50684017D01*
X31551428Y-50969731D02*
X31551428Y-50369731D01*
X31551428Y-50369731D02*
X31779999Y-50369731D01*
X31779999Y-50369731D02*
X31837142Y-50398302D01*
X31837142Y-50398302D02*
X31865713Y-50426874D01*
X31865713Y-50426874D02*
X31894285Y-50484017D01*
X31894285Y-50484017D02*
X31894285Y-50569731D01*
X31894285Y-50569731D02*
X31865713Y-50626874D01*
X31865713Y-50626874D02*
X31837142Y-50655445D01*
X31837142Y-50655445D02*
X31779999Y-50684017D01*
X31779999Y-50684017D02*
X31551428Y-50684017D01*
X228636686Y-51122131D02*
X228636686Y-50522131D01*
X228636686Y-50522131D02*
X228865257Y-50522131D01*
X228865257Y-50522131D02*
X228922400Y-50550702D01*
X228922400Y-50550702D02*
X228950971Y-50579274D01*
X228950971Y-50579274D02*
X228979543Y-50636417D01*
X228979543Y-50636417D02*
X228979543Y-50722131D01*
X228979543Y-50722131D02*
X228950971Y-50779274D01*
X228950971Y-50779274D02*
X228922400Y-50807845D01*
X228922400Y-50807845D02*
X228865257Y-50836417D01*
X228865257Y-50836417D02*
X228636686Y-50836417D01*
X229350971Y-50522131D02*
X229465257Y-50522131D01*
X229465257Y-50522131D02*
X229522400Y-50550702D01*
X229522400Y-50550702D02*
X229579543Y-50607845D01*
X229579543Y-50607845D02*
X229608114Y-50722131D01*
X229608114Y-50722131D02*
X229608114Y-50922131D01*
X229608114Y-50922131D02*
X229579543Y-51036417D01*
X229579543Y-51036417D02*
X229522400Y-51093560D01*
X229522400Y-51093560D02*
X229465257Y-51122131D01*
X229465257Y-51122131D02*
X229350971Y-51122131D01*
X229350971Y-51122131D02*
X229293829Y-51093560D01*
X229293829Y-51093560D02*
X229236686Y-51036417D01*
X229236686Y-51036417D02*
X229208114Y-50922131D01*
X229208114Y-50922131D02*
X229208114Y-50722131D01*
X229208114Y-50722131D02*
X229236686Y-50607845D01*
X229236686Y-50607845D02*
X229293829Y-50550702D01*
X229293829Y-50550702D02*
X229350971Y-50522131D01*
X229808114Y-50522131D02*
X229950971Y-51122131D01*
X229950971Y-51122131D02*
X230065257Y-50693560D01*
X230065257Y-50693560D02*
X230179542Y-51122131D01*
X230179542Y-51122131D02*
X230322400Y-50522131D01*
X230550971Y-50807845D02*
X230750971Y-50807845D01*
X230836685Y-51122131D02*
X230550971Y-51122131D01*
X230550971Y-51122131D02*
X230550971Y-50522131D01*
X230550971Y-50522131D02*
X230836685Y-50522131D01*
X231436685Y-51122131D02*
X231236685Y-50836417D01*
X231093828Y-51122131D02*
X231093828Y-50522131D01*
X231093828Y-50522131D02*
X231322399Y-50522131D01*
X231322399Y-50522131D02*
X231379542Y-50550702D01*
X231379542Y-50550702D02*
X231408113Y-50579274D01*
X231408113Y-50579274D02*
X231436685Y-50636417D01*
X231436685Y-50636417D02*
X231436685Y-50722131D01*
X231436685Y-50722131D02*
X231408113Y-50779274D01*
X231408113Y-50779274D02*
X231379542Y-50807845D01*
X231379542Y-50807845D02*
X231322399Y-50836417D01*
X231322399Y-50836417D02*
X231093828Y-50836417D01*
X227681571Y-48954724D02*
X227681571Y-48204724D01*
X227681571Y-48204724D02*
X227931571Y-48740438D01*
X227931571Y-48740438D02*
X228181571Y-48204724D01*
X228181571Y-48204724D02*
X228181571Y-48954724D01*
X228538714Y-48954724D02*
X228538714Y-48454724D01*
X228538714Y-48204724D02*
X228503000Y-48240438D01*
X228503000Y-48240438D02*
X228538714Y-48276152D01*
X228538714Y-48276152D02*
X228574428Y-48240438D01*
X228574428Y-48240438D02*
X228538714Y-48204724D01*
X228538714Y-48204724D02*
X228538714Y-48276152D01*
X229217286Y-48919010D02*
X229145857Y-48954724D01*
X229145857Y-48954724D02*
X229003000Y-48954724D01*
X229003000Y-48954724D02*
X228931571Y-48919010D01*
X228931571Y-48919010D02*
X228895857Y-48883295D01*
X228895857Y-48883295D02*
X228860143Y-48811867D01*
X228860143Y-48811867D02*
X228860143Y-48597581D01*
X228860143Y-48597581D02*
X228895857Y-48526152D01*
X228895857Y-48526152D02*
X228931571Y-48490438D01*
X228931571Y-48490438D02*
X229003000Y-48454724D01*
X229003000Y-48454724D02*
X229145857Y-48454724D01*
X229145857Y-48454724D02*
X229217286Y-48490438D01*
X229538714Y-48954724D02*
X229538714Y-48454724D01*
X229538714Y-48597581D02*
X229574428Y-48526152D01*
X229574428Y-48526152D02*
X229610143Y-48490438D01*
X229610143Y-48490438D02*
X229681571Y-48454724D01*
X229681571Y-48454724D02*
X229753000Y-48454724D01*
X230110143Y-48954724D02*
X230038714Y-48919010D01*
X230038714Y-48919010D02*
X230003000Y-48883295D01*
X230003000Y-48883295D02*
X229967286Y-48811867D01*
X229967286Y-48811867D02*
X229967286Y-48597581D01*
X229967286Y-48597581D02*
X230003000Y-48526152D01*
X230003000Y-48526152D02*
X230038714Y-48490438D01*
X230038714Y-48490438D02*
X230110143Y-48454724D01*
X230110143Y-48454724D02*
X230217286Y-48454724D01*
X230217286Y-48454724D02*
X230288714Y-48490438D01*
X230288714Y-48490438D02*
X230324429Y-48526152D01*
X230324429Y-48526152D02*
X230360143Y-48597581D01*
X230360143Y-48597581D02*
X230360143Y-48811867D01*
X230360143Y-48811867D02*
X230324429Y-48883295D01*
X230324429Y-48883295D02*
X230288714Y-48919010D01*
X230288714Y-48919010D02*
X230217286Y-48954724D01*
X230217286Y-48954724D02*
X230110143Y-48954724D01*
X230681571Y-48204724D02*
X230681571Y-48811867D01*
X230681571Y-48811867D02*
X230717285Y-48883295D01*
X230717285Y-48883295D02*
X230753000Y-48919010D01*
X230753000Y-48919010D02*
X230824428Y-48954724D01*
X230824428Y-48954724D02*
X230967285Y-48954724D01*
X230967285Y-48954724D02*
X231038714Y-48919010D01*
X231038714Y-48919010D02*
X231074428Y-48883295D01*
X231074428Y-48883295D02*
X231110142Y-48811867D01*
X231110142Y-48811867D02*
X231110142Y-48204724D01*
X231431571Y-48919010D02*
X231538714Y-48954724D01*
X231538714Y-48954724D02*
X231717285Y-48954724D01*
X231717285Y-48954724D02*
X231788714Y-48919010D01*
X231788714Y-48919010D02*
X231824428Y-48883295D01*
X231824428Y-48883295D02*
X231860142Y-48811867D01*
X231860142Y-48811867D02*
X231860142Y-48740438D01*
X231860142Y-48740438D02*
X231824428Y-48669010D01*
X231824428Y-48669010D02*
X231788714Y-48633295D01*
X231788714Y-48633295D02*
X231717285Y-48597581D01*
X231717285Y-48597581D02*
X231574428Y-48561867D01*
X231574428Y-48561867D02*
X231502999Y-48526152D01*
X231502999Y-48526152D02*
X231467285Y-48490438D01*
X231467285Y-48490438D02*
X231431571Y-48419010D01*
X231431571Y-48419010D02*
X231431571Y-48347581D01*
X231431571Y-48347581D02*
X231467285Y-48276152D01*
X231467285Y-48276152D02*
X231502999Y-48240438D01*
X231502999Y-48240438D02*
X231574428Y-48204724D01*
X231574428Y-48204724D02*
X231752999Y-48204724D01*
X231752999Y-48204724D02*
X231860142Y-48240438D01*
X232431571Y-48561867D02*
X232538714Y-48597581D01*
X232538714Y-48597581D02*
X232574428Y-48633295D01*
X232574428Y-48633295D02*
X232610142Y-48704724D01*
X232610142Y-48704724D02*
X232610142Y-48811867D01*
X232610142Y-48811867D02*
X232574428Y-48883295D01*
X232574428Y-48883295D02*
X232538714Y-48919010D01*
X232538714Y-48919010D02*
X232467285Y-48954724D01*
X232467285Y-48954724D02*
X232181571Y-48954724D01*
X232181571Y-48954724D02*
X232181571Y-48204724D01*
X232181571Y-48204724D02*
X232431571Y-48204724D01*
X232431571Y-48204724D02*
X232503000Y-48240438D01*
X232503000Y-48240438D02*
X232538714Y-48276152D01*
X232538714Y-48276152D02*
X232574428Y-48347581D01*
X232574428Y-48347581D02*
X232574428Y-48419010D01*
X232574428Y-48419010D02*
X232538714Y-48490438D01*
X232538714Y-48490438D02*
X232503000Y-48526152D01*
X232503000Y-48526152D02*
X232431571Y-48561867D01*
X232431571Y-48561867D02*
X232181571Y-48561867D01*
D13*
X235677047Y-57810178D02*
X235629428Y-57774464D01*
X235629428Y-57774464D02*
X235557999Y-57774464D01*
X235557999Y-57774464D02*
X235486571Y-57810178D01*
X235486571Y-57810178D02*
X235438952Y-57881607D01*
X235438952Y-57881607D02*
X235415142Y-57953035D01*
X235415142Y-57953035D02*
X235391333Y-58095892D01*
X235391333Y-58095892D02*
X235391333Y-58203035D01*
X235391333Y-58203035D02*
X235415142Y-58345892D01*
X235415142Y-58345892D02*
X235438952Y-58417321D01*
X235438952Y-58417321D02*
X235486571Y-58488750D01*
X235486571Y-58488750D02*
X235557999Y-58524464D01*
X235557999Y-58524464D02*
X235605618Y-58524464D01*
X235605618Y-58524464D02*
X235677047Y-58488750D01*
X235677047Y-58488750D02*
X235700856Y-58453035D01*
X235700856Y-58453035D02*
X235700856Y-58203035D01*
X235700856Y-58203035D02*
X235605618Y-58203035D01*
X235915142Y-58524464D02*
X235915142Y-57774464D01*
X235915142Y-57774464D02*
X236200856Y-58524464D01*
X236200856Y-58524464D02*
X236200856Y-57774464D01*
X236438952Y-58524464D02*
X236438952Y-57774464D01*
X236438952Y-57774464D02*
X236558000Y-57774464D01*
X236558000Y-57774464D02*
X236629428Y-57810178D01*
X236629428Y-57810178D02*
X236677047Y-57881607D01*
X236677047Y-57881607D02*
X236700857Y-57953035D01*
X236700857Y-57953035D02*
X236724666Y-58095892D01*
X236724666Y-58095892D02*
X236724666Y-58203035D01*
X236724666Y-58203035D02*
X236700857Y-58345892D01*
X236700857Y-58345892D02*
X236677047Y-58417321D01*
X236677047Y-58417321D02*
X236629428Y-58488750D01*
X236629428Y-58488750D02*
X236558000Y-58524464D01*
X236558000Y-58524464D02*
X236438952Y-58524464D01*
X224027047Y-55280178D02*
X223979428Y-55244464D01*
X223979428Y-55244464D02*
X223907999Y-55244464D01*
X223907999Y-55244464D02*
X223836571Y-55280178D01*
X223836571Y-55280178D02*
X223788952Y-55351607D01*
X223788952Y-55351607D02*
X223765142Y-55423035D01*
X223765142Y-55423035D02*
X223741333Y-55565892D01*
X223741333Y-55565892D02*
X223741333Y-55673035D01*
X223741333Y-55673035D02*
X223765142Y-55815892D01*
X223765142Y-55815892D02*
X223788952Y-55887321D01*
X223788952Y-55887321D02*
X223836571Y-55958750D01*
X223836571Y-55958750D02*
X223907999Y-55994464D01*
X223907999Y-55994464D02*
X223955618Y-55994464D01*
X223955618Y-55994464D02*
X224027047Y-55958750D01*
X224027047Y-55958750D02*
X224050856Y-55923035D01*
X224050856Y-55923035D02*
X224050856Y-55673035D01*
X224050856Y-55673035D02*
X223955618Y-55673035D01*
X224265142Y-55994464D02*
X224265142Y-55244464D01*
X224265142Y-55244464D02*
X224550856Y-55994464D01*
X224550856Y-55994464D02*
X224550856Y-55244464D01*
X224788952Y-55994464D02*
X224788952Y-55244464D01*
X224788952Y-55244464D02*
X224908000Y-55244464D01*
X224908000Y-55244464D02*
X224979428Y-55280178D01*
X224979428Y-55280178D02*
X225027047Y-55351607D01*
X225027047Y-55351607D02*
X225050857Y-55423035D01*
X225050857Y-55423035D02*
X225074666Y-55565892D01*
X225074666Y-55565892D02*
X225074666Y-55673035D01*
X225074666Y-55673035D02*
X225050857Y-55815892D01*
X225050857Y-55815892D02*
X225027047Y-55887321D01*
X225027047Y-55887321D02*
X224979428Y-55958750D01*
X224979428Y-55958750D02*
X224908000Y-55994464D01*
X224908000Y-55994464D02*
X224788952Y-55994464D01*
X235657047Y-60390178D02*
X235609428Y-60354464D01*
X235609428Y-60354464D02*
X235537999Y-60354464D01*
X235537999Y-60354464D02*
X235466571Y-60390178D01*
X235466571Y-60390178D02*
X235418952Y-60461607D01*
X235418952Y-60461607D02*
X235395142Y-60533035D01*
X235395142Y-60533035D02*
X235371333Y-60675892D01*
X235371333Y-60675892D02*
X235371333Y-60783035D01*
X235371333Y-60783035D02*
X235395142Y-60925892D01*
X235395142Y-60925892D02*
X235418952Y-60997321D01*
X235418952Y-60997321D02*
X235466571Y-61068750D01*
X235466571Y-61068750D02*
X235537999Y-61104464D01*
X235537999Y-61104464D02*
X235585618Y-61104464D01*
X235585618Y-61104464D02*
X235657047Y-61068750D01*
X235657047Y-61068750D02*
X235680856Y-61033035D01*
X235680856Y-61033035D02*
X235680856Y-60783035D01*
X235680856Y-60783035D02*
X235585618Y-60783035D01*
X235895142Y-61104464D02*
X235895142Y-60354464D01*
X235895142Y-60354464D02*
X236180856Y-61104464D01*
X236180856Y-61104464D02*
X236180856Y-60354464D01*
X236418952Y-61104464D02*
X236418952Y-60354464D01*
X236418952Y-60354464D02*
X236538000Y-60354464D01*
X236538000Y-60354464D02*
X236609428Y-60390178D01*
X236609428Y-60390178D02*
X236657047Y-60461607D01*
X236657047Y-60461607D02*
X236680857Y-60533035D01*
X236680857Y-60533035D02*
X236704666Y-60675892D01*
X236704666Y-60675892D02*
X236704666Y-60783035D01*
X236704666Y-60783035D02*
X236680857Y-60925892D01*
X236680857Y-60925892D02*
X236657047Y-60997321D01*
X236657047Y-60997321D02*
X236609428Y-61068750D01*
X236609428Y-61068750D02*
X236538000Y-61104464D01*
X236538000Y-61104464D02*
X236418952Y-61104464D01*
X224162761Y-53384464D02*
X223996095Y-53027321D01*
X223877047Y-53384464D02*
X223877047Y-52634464D01*
X223877047Y-52634464D02*
X224067523Y-52634464D01*
X224067523Y-52634464D02*
X224115142Y-52670178D01*
X224115142Y-52670178D02*
X224138952Y-52705892D01*
X224138952Y-52705892D02*
X224162761Y-52777321D01*
X224162761Y-52777321D02*
X224162761Y-52884464D01*
X224162761Y-52884464D02*
X224138952Y-52955892D01*
X224138952Y-52955892D02*
X224115142Y-52991607D01*
X224115142Y-52991607D02*
X224067523Y-53027321D01*
X224067523Y-53027321D02*
X223877047Y-53027321D01*
X224353238Y-53170178D02*
X224591333Y-53170178D01*
X224305619Y-53384464D02*
X224472285Y-52634464D01*
X224472285Y-52634464D02*
X224638952Y-53384464D01*
X224757999Y-52634464D02*
X224877047Y-53384464D01*
X224877047Y-53384464D02*
X224972285Y-52848750D01*
X224972285Y-52848750D02*
X225067523Y-53384464D01*
X225067523Y-53384464D02*
X225186571Y-52634464D01*
D11*
X215414315Y-85825381D02*
X214938124Y-86158714D01*
X215414315Y-86396809D02*
X214414315Y-86396809D01*
X214414315Y-86396809D02*
X214414315Y-86015857D01*
X214414315Y-86015857D02*
X214461934Y-85920619D01*
X214461934Y-85920619D02*
X214509553Y-85873000D01*
X214509553Y-85873000D02*
X214604791Y-85825381D01*
X214604791Y-85825381D02*
X214747648Y-85825381D01*
X214747648Y-85825381D02*
X214842886Y-85873000D01*
X214842886Y-85873000D02*
X214890505Y-85920619D01*
X214890505Y-85920619D02*
X214938124Y-86015857D01*
X214938124Y-86015857D02*
X214938124Y-86396809D01*
X214890505Y-85396809D02*
X214890505Y-85063476D01*
X215414315Y-84920619D02*
X215414315Y-85396809D01*
X215414315Y-85396809D02*
X214414315Y-85396809D01*
X214414315Y-85396809D02*
X214414315Y-84920619D01*
X215366696Y-84539666D02*
X215414315Y-84396809D01*
X215414315Y-84396809D02*
X215414315Y-84158714D01*
X215414315Y-84158714D02*
X215366696Y-84063476D01*
X215366696Y-84063476D02*
X215319076Y-84015857D01*
X215319076Y-84015857D02*
X215223838Y-83968238D01*
X215223838Y-83968238D02*
X215128600Y-83968238D01*
X215128600Y-83968238D02*
X215033362Y-84015857D01*
X215033362Y-84015857D02*
X214985743Y-84063476D01*
X214985743Y-84063476D02*
X214938124Y-84158714D01*
X214938124Y-84158714D02*
X214890505Y-84349190D01*
X214890505Y-84349190D02*
X214842886Y-84444428D01*
X214842886Y-84444428D02*
X214795267Y-84492047D01*
X214795267Y-84492047D02*
X214700029Y-84539666D01*
X214700029Y-84539666D02*
X214604791Y-84539666D01*
X214604791Y-84539666D02*
X214509553Y-84492047D01*
X214509553Y-84492047D02*
X214461934Y-84444428D01*
X214461934Y-84444428D02*
X214414315Y-84349190D01*
X214414315Y-84349190D02*
X214414315Y-84111095D01*
X214414315Y-84111095D02*
X214461934Y-83968238D01*
X214890505Y-83539666D02*
X214890505Y-83206333D01*
X215414315Y-83063476D02*
X215414315Y-83539666D01*
X215414315Y-83539666D02*
X214414315Y-83539666D01*
X214414315Y-83539666D02*
X214414315Y-83063476D01*
X214414315Y-82777761D02*
X214414315Y-82206333D01*
X215414315Y-82492047D02*
X214414315Y-82492047D01*
D14*
X184892752Y-41749499D02*
X185892752Y-41749499D01*
X184940371Y-41749499D02*
X184892752Y-41654261D01*
X184892752Y-41654261D02*
X184892752Y-41463785D01*
X184892752Y-41463785D02*
X184940371Y-41368547D01*
X184940371Y-41368547D02*
X184987990Y-41320928D01*
X184987990Y-41320928D02*
X185083228Y-41273309D01*
X185083228Y-41273309D02*
X185368942Y-41273309D01*
X185368942Y-41273309D02*
X185464180Y-41320928D01*
X185464180Y-41320928D02*
X185511800Y-41368547D01*
X185511800Y-41368547D02*
X185559419Y-41463785D01*
X185559419Y-41463785D02*
X185559419Y-41654261D01*
X185559419Y-41654261D02*
X185511800Y-41749499D01*
X184892752Y-40416166D02*
X185559419Y-40416166D01*
X184892752Y-40844737D02*
X185416561Y-40844737D01*
X185416561Y-40844737D02*
X185511800Y-40797118D01*
X185511800Y-40797118D02*
X185559419Y-40701880D01*
X185559419Y-40701880D02*
X185559419Y-40559023D01*
X185559419Y-40559023D02*
X185511800Y-40463785D01*
X185511800Y-40463785D02*
X185464180Y-40416166D01*
X185511800Y-39511404D02*
X185559419Y-39606642D01*
X185559419Y-39606642D02*
X185559419Y-39797118D01*
X185559419Y-39797118D02*
X185511800Y-39892356D01*
X185511800Y-39892356D02*
X185464180Y-39939975D01*
X185464180Y-39939975D02*
X185368942Y-39987594D01*
X185368942Y-39987594D02*
X185083228Y-39987594D01*
X185083228Y-39987594D02*
X184987990Y-39939975D01*
X184987990Y-39939975D02*
X184940371Y-39892356D01*
X184940371Y-39892356D02*
X184892752Y-39797118D01*
X184892752Y-39797118D02*
X184892752Y-39606642D01*
X184892752Y-39606642D02*
X184940371Y-39511404D01*
X185559419Y-39082832D02*
X184559419Y-39082832D01*
X185178466Y-38987594D02*
X185559419Y-38701880D01*
X184892752Y-38701880D02*
X185273704Y-39082832D01*
X184956252Y-55639999D02*
X184956252Y-55259047D01*
X184622919Y-55497142D02*
X185480061Y-55497142D01*
X185480061Y-55497142D02*
X185575300Y-55449523D01*
X185575300Y-55449523D02*
X185622919Y-55354285D01*
X185622919Y-55354285D02*
X185622919Y-55259047D01*
X185575300Y-54544761D02*
X185622919Y-54639999D01*
X185622919Y-54639999D02*
X185622919Y-54830475D01*
X185622919Y-54830475D02*
X185575300Y-54925713D01*
X185575300Y-54925713D02*
X185480061Y-54973332D01*
X185480061Y-54973332D02*
X185099109Y-54973332D01*
X185099109Y-54973332D02*
X185003871Y-54925713D01*
X185003871Y-54925713D02*
X184956252Y-54830475D01*
X184956252Y-54830475D02*
X184956252Y-54639999D01*
X184956252Y-54639999D02*
X185003871Y-54544761D01*
X185003871Y-54544761D02*
X185099109Y-54497142D01*
X185099109Y-54497142D02*
X185194347Y-54497142D01*
X185194347Y-54497142D02*
X185289585Y-54973332D01*
X184956252Y-54068570D02*
X185622919Y-54068570D01*
X185051490Y-54068570D02*
X185003871Y-54020951D01*
X185003871Y-54020951D02*
X184956252Y-53925713D01*
X184956252Y-53925713D02*
X184956252Y-53782856D01*
X184956252Y-53782856D02*
X185003871Y-53687618D01*
X185003871Y-53687618D02*
X185099109Y-53639999D01*
X185099109Y-53639999D02*
X185622919Y-53639999D01*
X184956252Y-53306665D02*
X184956252Y-52925713D01*
X184622919Y-53163808D02*
X185480061Y-53163808D01*
X185480061Y-53163808D02*
X185575300Y-53116189D01*
X185575300Y-53116189D02*
X185622919Y-53020951D01*
X185622919Y-53020951D02*
X185622919Y-52925713D01*
X185622919Y-52592379D02*
X184956252Y-52592379D01*
X184622919Y-52592379D02*
X184670538Y-52639998D01*
X184670538Y-52639998D02*
X184718157Y-52592379D01*
X184718157Y-52592379D02*
X184670538Y-52544760D01*
X184670538Y-52544760D02*
X184622919Y-52592379D01*
X184622919Y-52592379D02*
X184718157Y-52592379D01*
X184956252Y-52116189D02*
X185622919Y-52116189D01*
X185051490Y-52116189D02*
X185003871Y-52068570D01*
X185003871Y-52068570D02*
X184956252Y-51973332D01*
X184956252Y-51973332D02*
X184956252Y-51830475D01*
X184956252Y-51830475D02*
X185003871Y-51735237D01*
X185003871Y-51735237D02*
X185099109Y-51687618D01*
X185099109Y-51687618D02*
X185622919Y-51687618D01*
X184956252Y-50782856D02*
X185765776Y-50782856D01*
X185765776Y-50782856D02*
X185861014Y-50830475D01*
X185861014Y-50830475D02*
X185908633Y-50878094D01*
X185908633Y-50878094D02*
X185956252Y-50973332D01*
X185956252Y-50973332D02*
X185956252Y-51116189D01*
X185956252Y-51116189D02*
X185908633Y-51211427D01*
X185575300Y-50782856D02*
X185622919Y-50878094D01*
X185622919Y-50878094D02*
X185622919Y-51068570D01*
X185622919Y-51068570D02*
X185575300Y-51163808D01*
X185575300Y-51163808D02*
X185527680Y-51211427D01*
X185527680Y-51211427D02*
X185432442Y-51259046D01*
X185432442Y-51259046D02*
X185146728Y-51259046D01*
X185146728Y-51259046D02*
X185051490Y-51211427D01*
X185051490Y-51211427D02*
X185003871Y-51163808D01*
X185003871Y-51163808D02*
X184956252Y-51068570D01*
X184956252Y-51068570D02*
X184956252Y-50878094D01*
X184956252Y-50878094D02*
X185003871Y-50782856D01*
D13*
X24175047Y-55280178D02*
X24127428Y-55244464D01*
X24127428Y-55244464D02*
X24055999Y-55244464D01*
X24055999Y-55244464D02*
X23984571Y-55280178D01*
X23984571Y-55280178D02*
X23936952Y-55351607D01*
X23936952Y-55351607D02*
X23913142Y-55423035D01*
X23913142Y-55423035D02*
X23889333Y-55565892D01*
X23889333Y-55565892D02*
X23889333Y-55673035D01*
X23889333Y-55673035D02*
X23913142Y-55815892D01*
X23913142Y-55815892D02*
X23936952Y-55887321D01*
X23936952Y-55887321D02*
X23984571Y-55958750D01*
X23984571Y-55958750D02*
X24055999Y-55994464D01*
X24055999Y-55994464D02*
X24103618Y-55994464D01*
X24103618Y-55994464D02*
X24175047Y-55958750D01*
X24175047Y-55958750D02*
X24198856Y-55923035D01*
X24198856Y-55923035D02*
X24198856Y-55673035D01*
X24198856Y-55673035D02*
X24103618Y-55673035D01*
X24413142Y-55994464D02*
X24413142Y-55244464D01*
X24413142Y-55244464D02*
X24698856Y-55994464D01*
X24698856Y-55994464D02*
X24698856Y-55244464D01*
X24936952Y-55994464D02*
X24936952Y-55244464D01*
X24936952Y-55244464D02*
X25056000Y-55244464D01*
X25056000Y-55244464D02*
X25127428Y-55280178D01*
X25127428Y-55280178D02*
X25175047Y-55351607D01*
X25175047Y-55351607D02*
X25198857Y-55423035D01*
X25198857Y-55423035D02*
X25222666Y-55565892D01*
X25222666Y-55565892D02*
X25222666Y-55673035D01*
X25222666Y-55673035D02*
X25198857Y-55815892D01*
X25198857Y-55815892D02*
X25175047Y-55887321D01*
X25175047Y-55887321D02*
X25127428Y-55958750D01*
X25127428Y-55958750D02*
X25056000Y-55994464D01*
X25056000Y-55994464D02*
X24936952Y-55994464D01*
D12*
X27829571Y-48954724D02*
X27829571Y-48204724D01*
X27829571Y-48204724D02*
X28079571Y-48740438D01*
X28079571Y-48740438D02*
X28329571Y-48204724D01*
X28329571Y-48204724D02*
X28329571Y-48954724D01*
X28686714Y-48954724D02*
X28686714Y-48454724D01*
X28686714Y-48204724D02*
X28651000Y-48240438D01*
X28651000Y-48240438D02*
X28686714Y-48276152D01*
X28686714Y-48276152D02*
X28722428Y-48240438D01*
X28722428Y-48240438D02*
X28686714Y-48204724D01*
X28686714Y-48204724D02*
X28686714Y-48276152D01*
X29365286Y-48919010D02*
X29293857Y-48954724D01*
X29293857Y-48954724D02*
X29151000Y-48954724D01*
X29151000Y-48954724D02*
X29079571Y-48919010D01*
X29079571Y-48919010D02*
X29043857Y-48883295D01*
X29043857Y-48883295D02*
X29008143Y-48811867D01*
X29008143Y-48811867D02*
X29008143Y-48597581D01*
X29008143Y-48597581D02*
X29043857Y-48526152D01*
X29043857Y-48526152D02*
X29079571Y-48490438D01*
X29079571Y-48490438D02*
X29151000Y-48454724D01*
X29151000Y-48454724D02*
X29293857Y-48454724D01*
X29293857Y-48454724D02*
X29365286Y-48490438D01*
X29686714Y-48954724D02*
X29686714Y-48454724D01*
X29686714Y-48597581D02*
X29722428Y-48526152D01*
X29722428Y-48526152D02*
X29758143Y-48490438D01*
X29758143Y-48490438D02*
X29829571Y-48454724D01*
X29829571Y-48454724D02*
X29901000Y-48454724D01*
X30258143Y-48954724D02*
X30186714Y-48919010D01*
X30186714Y-48919010D02*
X30151000Y-48883295D01*
X30151000Y-48883295D02*
X30115286Y-48811867D01*
X30115286Y-48811867D02*
X30115286Y-48597581D01*
X30115286Y-48597581D02*
X30151000Y-48526152D01*
X30151000Y-48526152D02*
X30186714Y-48490438D01*
X30186714Y-48490438D02*
X30258143Y-48454724D01*
X30258143Y-48454724D02*
X30365286Y-48454724D01*
X30365286Y-48454724D02*
X30436714Y-48490438D01*
X30436714Y-48490438D02*
X30472429Y-48526152D01*
X30472429Y-48526152D02*
X30508143Y-48597581D01*
X30508143Y-48597581D02*
X30508143Y-48811867D01*
X30508143Y-48811867D02*
X30472429Y-48883295D01*
X30472429Y-48883295D02*
X30436714Y-48919010D01*
X30436714Y-48919010D02*
X30365286Y-48954724D01*
X30365286Y-48954724D02*
X30258143Y-48954724D01*
X30829571Y-48204724D02*
X30829571Y-48811867D01*
X30829571Y-48811867D02*
X30865285Y-48883295D01*
X30865285Y-48883295D02*
X30901000Y-48919010D01*
X30901000Y-48919010D02*
X30972428Y-48954724D01*
X30972428Y-48954724D02*
X31115285Y-48954724D01*
X31115285Y-48954724D02*
X31186714Y-48919010D01*
X31186714Y-48919010D02*
X31222428Y-48883295D01*
X31222428Y-48883295D02*
X31258142Y-48811867D01*
X31258142Y-48811867D02*
X31258142Y-48204724D01*
X31579571Y-48919010D02*
X31686714Y-48954724D01*
X31686714Y-48954724D02*
X31865285Y-48954724D01*
X31865285Y-48954724D02*
X31936714Y-48919010D01*
X31936714Y-48919010D02*
X31972428Y-48883295D01*
X31972428Y-48883295D02*
X32008142Y-48811867D01*
X32008142Y-48811867D02*
X32008142Y-48740438D01*
X32008142Y-48740438D02*
X31972428Y-48669010D01*
X31972428Y-48669010D02*
X31936714Y-48633295D01*
X31936714Y-48633295D02*
X31865285Y-48597581D01*
X31865285Y-48597581D02*
X31722428Y-48561867D01*
X31722428Y-48561867D02*
X31650999Y-48526152D01*
X31650999Y-48526152D02*
X31615285Y-48490438D01*
X31615285Y-48490438D02*
X31579571Y-48419010D01*
X31579571Y-48419010D02*
X31579571Y-48347581D01*
X31579571Y-48347581D02*
X31615285Y-48276152D01*
X31615285Y-48276152D02*
X31650999Y-48240438D01*
X31650999Y-48240438D02*
X31722428Y-48204724D01*
X31722428Y-48204724D02*
X31900999Y-48204724D01*
X31900999Y-48204724D02*
X32008142Y-48240438D01*
X32579571Y-48561867D02*
X32686714Y-48597581D01*
X32686714Y-48597581D02*
X32722428Y-48633295D01*
X32722428Y-48633295D02*
X32758142Y-48704724D01*
X32758142Y-48704724D02*
X32758142Y-48811867D01*
X32758142Y-48811867D02*
X32722428Y-48883295D01*
X32722428Y-48883295D02*
X32686714Y-48919010D01*
X32686714Y-48919010D02*
X32615285Y-48954724D01*
X32615285Y-48954724D02*
X32329571Y-48954724D01*
X32329571Y-48954724D02*
X32329571Y-48204724D01*
X32329571Y-48204724D02*
X32579571Y-48204724D01*
X32579571Y-48204724D02*
X32651000Y-48240438D01*
X32651000Y-48240438D02*
X32686714Y-48276152D01*
X32686714Y-48276152D02*
X32722428Y-48347581D01*
X32722428Y-48347581D02*
X32722428Y-48419010D01*
X32722428Y-48419010D02*
X32686714Y-48490438D01*
X32686714Y-48490438D02*
X32651000Y-48526152D01*
X32651000Y-48526152D02*
X32579571Y-48561867D01*
X32579571Y-48561867D02*
X32329571Y-48561867D01*
D13*
X35707047Y-57810178D02*
X35659428Y-57774464D01*
X35659428Y-57774464D02*
X35587999Y-57774464D01*
X35587999Y-57774464D02*
X35516571Y-57810178D01*
X35516571Y-57810178D02*
X35468952Y-57881607D01*
X35468952Y-57881607D02*
X35445142Y-57953035D01*
X35445142Y-57953035D02*
X35421333Y-58095892D01*
X35421333Y-58095892D02*
X35421333Y-58203035D01*
X35421333Y-58203035D02*
X35445142Y-58345892D01*
X35445142Y-58345892D02*
X35468952Y-58417321D01*
X35468952Y-58417321D02*
X35516571Y-58488750D01*
X35516571Y-58488750D02*
X35587999Y-58524464D01*
X35587999Y-58524464D02*
X35635618Y-58524464D01*
X35635618Y-58524464D02*
X35707047Y-58488750D01*
X35707047Y-58488750D02*
X35730856Y-58453035D01*
X35730856Y-58453035D02*
X35730856Y-58203035D01*
X35730856Y-58203035D02*
X35635618Y-58203035D01*
X35945142Y-58524464D02*
X35945142Y-57774464D01*
X35945142Y-57774464D02*
X36230856Y-58524464D01*
X36230856Y-58524464D02*
X36230856Y-57774464D01*
X36468952Y-58524464D02*
X36468952Y-57774464D01*
X36468952Y-57774464D02*
X36588000Y-57774464D01*
X36588000Y-57774464D02*
X36659428Y-57810178D01*
X36659428Y-57810178D02*
X36707047Y-57881607D01*
X36707047Y-57881607D02*
X36730857Y-57953035D01*
X36730857Y-57953035D02*
X36754666Y-58095892D01*
X36754666Y-58095892D02*
X36754666Y-58203035D01*
X36754666Y-58203035D02*
X36730857Y-58345892D01*
X36730857Y-58345892D02*
X36707047Y-58417321D01*
X36707047Y-58417321D02*
X36659428Y-58488750D01*
X36659428Y-58488750D02*
X36588000Y-58524464D01*
X36588000Y-58524464D02*
X36468952Y-58524464D01*
X24310761Y-53384464D02*
X24144095Y-53027321D01*
X24025047Y-53384464D02*
X24025047Y-52634464D01*
X24025047Y-52634464D02*
X24215523Y-52634464D01*
X24215523Y-52634464D02*
X24263142Y-52670178D01*
X24263142Y-52670178D02*
X24286952Y-52705892D01*
X24286952Y-52705892D02*
X24310761Y-52777321D01*
X24310761Y-52777321D02*
X24310761Y-52884464D01*
X24310761Y-52884464D02*
X24286952Y-52955892D01*
X24286952Y-52955892D02*
X24263142Y-52991607D01*
X24263142Y-52991607D02*
X24215523Y-53027321D01*
X24215523Y-53027321D02*
X24025047Y-53027321D01*
X24501238Y-53170178D02*
X24739333Y-53170178D01*
X24453619Y-53384464D02*
X24620285Y-52634464D01*
X24620285Y-52634464D02*
X24786952Y-53384464D01*
X24905999Y-52634464D02*
X25025047Y-53384464D01*
X25025047Y-53384464D02*
X25120285Y-52848750D01*
X25120285Y-52848750D02*
X25215523Y-53384464D01*
X25215523Y-53384464D02*
X25334571Y-52634464D01*
X35687047Y-60390178D02*
X35639428Y-60354464D01*
X35639428Y-60354464D02*
X35567999Y-60354464D01*
X35567999Y-60354464D02*
X35496571Y-60390178D01*
X35496571Y-60390178D02*
X35448952Y-60461607D01*
X35448952Y-60461607D02*
X35425142Y-60533035D01*
X35425142Y-60533035D02*
X35401333Y-60675892D01*
X35401333Y-60675892D02*
X35401333Y-60783035D01*
X35401333Y-60783035D02*
X35425142Y-60925892D01*
X35425142Y-60925892D02*
X35448952Y-60997321D01*
X35448952Y-60997321D02*
X35496571Y-61068750D01*
X35496571Y-61068750D02*
X35567999Y-61104464D01*
X35567999Y-61104464D02*
X35615618Y-61104464D01*
X35615618Y-61104464D02*
X35687047Y-61068750D01*
X35687047Y-61068750D02*
X35710856Y-61033035D01*
X35710856Y-61033035D02*
X35710856Y-60783035D01*
X35710856Y-60783035D02*
X35615618Y-60783035D01*
X35925142Y-61104464D02*
X35925142Y-60354464D01*
X35925142Y-60354464D02*
X36210856Y-61104464D01*
X36210856Y-61104464D02*
X36210856Y-60354464D01*
X36448952Y-61104464D02*
X36448952Y-60354464D01*
X36448952Y-60354464D02*
X36568000Y-60354464D01*
X36568000Y-60354464D02*
X36639428Y-60390178D01*
X36639428Y-60390178D02*
X36687047Y-60461607D01*
X36687047Y-60461607D02*
X36710857Y-60533035D01*
X36710857Y-60533035D02*
X36734666Y-60675892D01*
X36734666Y-60675892D02*
X36734666Y-60783035D01*
X36734666Y-60783035D02*
X36710857Y-60925892D01*
X36710857Y-60925892D02*
X36687047Y-60997321D01*
X36687047Y-60997321D02*
X36639428Y-61068750D01*
X36639428Y-61068750D02*
X36568000Y-61104464D01*
X36568000Y-61104464D02*
X36448952Y-61104464D01*
D14*
X75292252Y-55639999D02*
X75292252Y-55259047D01*
X74958919Y-55497142D02*
X75816061Y-55497142D01*
X75816061Y-55497142D02*
X75911300Y-55449523D01*
X75911300Y-55449523D02*
X75958919Y-55354285D01*
X75958919Y-55354285D02*
X75958919Y-55259047D01*
X75911300Y-54544761D02*
X75958919Y-54639999D01*
X75958919Y-54639999D02*
X75958919Y-54830475D01*
X75958919Y-54830475D02*
X75911300Y-54925713D01*
X75911300Y-54925713D02*
X75816061Y-54973332D01*
X75816061Y-54973332D02*
X75435109Y-54973332D01*
X75435109Y-54973332D02*
X75339871Y-54925713D01*
X75339871Y-54925713D02*
X75292252Y-54830475D01*
X75292252Y-54830475D02*
X75292252Y-54639999D01*
X75292252Y-54639999D02*
X75339871Y-54544761D01*
X75339871Y-54544761D02*
X75435109Y-54497142D01*
X75435109Y-54497142D02*
X75530347Y-54497142D01*
X75530347Y-54497142D02*
X75625585Y-54973332D01*
X75292252Y-54068570D02*
X75958919Y-54068570D01*
X75387490Y-54068570D02*
X75339871Y-54020951D01*
X75339871Y-54020951D02*
X75292252Y-53925713D01*
X75292252Y-53925713D02*
X75292252Y-53782856D01*
X75292252Y-53782856D02*
X75339871Y-53687618D01*
X75339871Y-53687618D02*
X75435109Y-53639999D01*
X75435109Y-53639999D02*
X75958919Y-53639999D01*
X75292252Y-53306665D02*
X75292252Y-52925713D01*
X74958919Y-53163808D02*
X75816061Y-53163808D01*
X75816061Y-53163808D02*
X75911300Y-53116189D01*
X75911300Y-53116189D02*
X75958919Y-53020951D01*
X75958919Y-53020951D02*
X75958919Y-52925713D01*
X75958919Y-52592379D02*
X75292252Y-52592379D01*
X74958919Y-52592379D02*
X75006538Y-52639998D01*
X75006538Y-52639998D02*
X75054157Y-52592379D01*
X75054157Y-52592379D02*
X75006538Y-52544760D01*
X75006538Y-52544760D02*
X74958919Y-52592379D01*
X74958919Y-52592379D02*
X75054157Y-52592379D01*
X75292252Y-52116189D02*
X75958919Y-52116189D01*
X75387490Y-52116189D02*
X75339871Y-52068570D01*
X75339871Y-52068570D02*
X75292252Y-51973332D01*
X75292252Y-51973332D02*
X75292252Y-51830475D01*
X75292252Y-51830475D02*
X75339871Y-51735237D01*
X75339871Y-51735237D02*
X75435109Y-51687618D01*
X75435109Y-51687618D02*
X75958919Y-51687618D01*
X75292252Y-50782856D02*
X76101776Y-50782856D01*
X76101776Y-50782856D02*
X76197014Y-50830475D01*
X76197014Y-50830475D02*
X76244633Y-50878094D01*
X76244633Y-50878094D02*
X76292252Y-50973332D01*
X76292252Y-50973332D02*
X76292252Y-51116189D01*
X76292252Y-51116189D02*
X76244633Y-51211427D01*
X75911300Y-50782856D02*
X75958919Y-50878094D01*
X75958919Y-50878094D02*
X75958919Y-51068570D01*
X75958919Y-51068570D02*
X75911300Y-51163808D01*
X75911300Y-51163808D02*
X75863680Y-51211427D01*
X75863680Y-51211427D02*
X75768442Y-51259046D01*
X75768442Y-51259046D02*
X75482728Y-51259046D01*
X75482728Y-51259046D02*
X75387490Y-51211427D01*
X75387490Y-51211427D02*
X75339871Y-51163808D01*
X75339871Y-51163808D02*
X75292252Y-51068570D01*
X75292252Y-51068570D02*
X75292252Y-50878094D01*
X75292252Y-50878094D02*
X75339871Y-50782856D01*
X75228752Y-41749499D02*
X76228752Y-41749499D01*
X75276371Y-41749499D02*
X75228752Y-41654261D01*
X75228752Y-41654261D02*
X75228752Y-41463785D01*
X75228752Y-41463785D02*
X75276371Y-41368547D01*
X75276371Y-41368547D02*
X75323990Y-41320928D01*
X75323990Y-41320928D02*
X75419228Y-41273309D01*
X75419228Y-41273309D02*
X75704942Y-41273309D01*
X75704942Y-41273309D02*
X75800180Y-41320928D01*
X75800180Y-41320928D02*
X75847800Y-41368547D01*
X75847800Y-41368547D02*
X75895419Y-41463785D01*
X75895419Y-41463785D02*
X75895419Y-41654261D01*
X75895419Y-41654261D02*
X75847800Y-41749499D01*
X75228752Y-40416166D02*
X75895419Y-40416166D01*
X75228752Y-40844737D02*
X75752561Y-40844737D01*
X75752561Y-40844737D02*
X75847800Y-40797118D01*
X75847800Y-40797118D02*
X75895419Y-40701880D01*
X75895419Y-40701880D02*
X75895419Y-40559023D01*
X75895419Y-40559023D02*
X75847800Y-40463785D01*
X75847800Y-40463785D02*
X75800180Y-40416166D01*
X75847800Y-39511404D02*
X75895419Y-39606642D01*
X75895419Y-39606642D02*
X75895419Y-39797118D01*
X75895419Y-39797118D02*
X75847800Y-39892356D01*
X75847800Y-39892356D02*
X75800180Y-39939975D01*
X75800180Y-39939975D02*
X75704942Y-39987594D01*
X75704942Y-39987594D02*
X75419228Y-39987594D01*
X75419228Y-39987594D02*
X75323990Y-39939975D01*
X75323990Y-39939975D02*
X75276371Y-39892356D01*
X75276371Y-39892356D02*
X75228752Y-39797118D01*
X75228752Y-39797118D02*
X75228752Y-39606642D01*
X75228752Y-39606642D02*
X75276371Y-39511404D01*
X75895419Y-39082832D02*
X74895419Y-39082832D01*
X75514466Y-38987594D02*
X75895419Y-38701880D01*
X75228752Y-38701880D02*
X75609704Y-39082832D01*
D11*
X46490356Y-85525381D02*
X46014165Y-85858714D01*
X46490356Y-86096809D02*
X45490356Y-86096809D01*
X45490356Y-86096809D02*
X45490356Y-85715857D01*
X45490356Y-85715857D02*
X45537975Y-85620619D01*
X45537975Y-85620619D02*
X45585594Y-85573000D01*
X45585594Y-85573000D02*
X45680832Y-85525381D01*
X45680832Y-85525381D02*
X45823689Y-85525381D01*
X45823689Y-85525381D02*
X45918927Y-85573000D01*
X45918927Y-85573000D02*
X45966546Y-85620619D01*
X45966546Y-85620619D02*
X46014165Y-85715857D01*
X46014165Y-85715857D02*
X46014165Y-86096809D01*
X45966546Y-85096809D02*
X45966546Y-84763476D01*
X46490356Y-84620619D02*
X46490356Y-85096809D01*
X46490356Y-85096809D02*
X45490356Y-85096809D01*
X45490356Y-85096809D02*
X45490356Y-84620619D01*
X46442737Y-84239666D02*
X46490356Y-84096809D01*
X46490356Y-84096809D02*
X46490356Y-83858714D01*
X46490356Y-83858714D02*
X46442737Y-83763476D01*
X46442737Y-83763476D02*
X46395117Y-83715857D01*
X46395117Y-83715857D02*
X46299879Y-83668238D01*
X46299879Y-83668238D02*
X46204641Y-83668238D01*
X46204641Y-83668238D02*
X46109403Y-83715857D01*
X46109403Y-83715857D02*
X46061784Y-83763476D01*
X46061784Y-83763476D02*
X46014165Y-83858714D01*
X46014165Y-83858714D02*
X45966546Y-84049190D01*
X45966546Y-84049190D02*
X45918927Y-84144428D01*
X45918927Y-84144428D02*
X45871308Y-84192047D01*
X45871308Y-84192047D02*
X45776070Y-84239666D01*
X45776070Y-84239666D02*
X45680832Y-84239666D01*
X45680832Y-84239666D02*
X45585594Y-84192047D01*
X45585594Y-84192047D02*
X45537975Y-84144428D01*
X45537975Y-84144428D02*
X45490356Y-84049190D01*
X45490356Y-84049190D02*
X45490356Y-83811095D01*
X45490356Y-83811095D02*
X45537975Y-83668238D01*
X45966546Y-83239666D02*
X45966546Y-82906333D01*
X46490356Y-82763476D02*
X46490356Y-83239666D01*
X46490356Y-83239666D02*
X45490356Y-83239666D01*
X45490356Y-83239666D02*
X45490356Y-82763476D01*
X45490356Y-82477761D02*
X45490356Y-81906333D01*
X46490356Y-82192047D02*
X45490356Y-82192047D01*
X221812819Y-85833333D02*
X222527104Y-85833333D01*
X222527104Y-85833333D02*
X222669961Y-85880952D01*
X222669961Y-85880952D02*
X222765200Y-85976190D01*
X222765200Y-85976190D02*
X222812819Y-86119047D01*
X222812819Y-86119047D02*
X222812819Y-86214285D01*
X222812819Y-84833333D02*
X222812819Y-85404761D01*
X222812819Y-85119047D02*
X221812819Y-85119047D01*
X221812819Y-85119047D02*
X221955676Y-85214285D01*
X221955676Y-85214285D02*
X222050914Y-85309523D01*
X222050914Y-85309523D02*
X222098533Y-85404761D01*
X28775999Y-82454819D02*
X28775999Y-83169104D01*
X28775999Y-83169104D02*
X28728380Y-83311961D01*
X28728380Y-83311961D02*
X28633142Y-83407200D01*
X28633142Y-83407200D02*
X28490285Y-83454819D01*
X28490285Y-83454819D02*
X28395047Y-83454819D01*
X29775999Y-83454819D02*
X29204571Y-83454819D01*
X29490285Y-83454819D02*
X29490285Y-82454819D01*
X29490285Y-82454819D02*
X29395047Y-82597676D01*
X29395047Y-82597676D02*
X29299809Y-82692914D01*
X29299809Y-82692914D02*
X29204571Y-82740533D01*
X29966476Y-83550057D02*
X30728380Y-83550057D01*
X30966476Y-83454819D02*
X30966476Y-82788152D01*
X30966476Y-82978628D02*
X31014095Y-82883390D01*
X31014095Y-82883390D02*
X31061714Y-82835771D01*
X31061714Y-82835771D02*
X31156952Y-82788152D01*
X31156952Y-82788152D02*
X31252190Y-82788152D01*
X32109333Y-83454819D02*
X31537905Y-83454819D01*
X31823619Y-83454819D02*
X31823619Y-82454819D01*
X31823619Y-82454819D02*
X31728381Y-82597676D01*
X31728381Y-82597676D02*
X31633143Y-82692914D01*
X31633143Y-82692914D02*
X31537905Y-82740533D01*
D12*
%TO.C,SW4_r1*%
X73700000Y-42382000D02*
G75*
G02*
X73200000Y-42882000I-500001J1D01*
G01*
X73200000Y-28882000D02*
G75*
G02*
X73700000Y-29382000I-1J-500001D01*
G01*
X60200000Y-42882000D02*
G75*
G02*
X59700000Y-42382000I0J500000D01*
G01*
X59700000Y-29382000D02*
G75*
G02*
X60200000Y-28882000I500000J0D01*
G01*
X73700000Y-42382000D02*
X73700000Y-29382000D01*
X73200000Y-28882000D02*
X60200000Y-28882000D01*
X60200000Y-42882000D02*
X73200000Y-42882000D01*
X59700000Y-29382000D02*
X59700000Y-42382000D01*
%TO.C,SW16*%
X211916251Y-85002843D02*
G75*
G02*
X212269805Y-85615214I-129411J-482964D01*
G01*
X208905157Y-98172251D02*
G75*
G02*
X208292786Y-98525805I-482964J129411D01*
G01*
X198746843Y-81991749D02*
G75*
G02*
X199359214Y-81638195I482963J-129409D01*
G01*
X195735749Y-95161157D02*
G75*
G02*
X195382195Y-94548786I129409J482963D01*
G01*
X211916251Y-85002843D02*
X199359214Y-81638195D01*
X208905157Y-98172251D02*
X212269805Y-85615214D01*
X198746843Y-81991749D02*
X195382195Y-94548786D01*
X195735749Y-95161157D02*
X208292786Y-98525805D01*
D11*
%TO.C,U1*%
X221278000Y-49264000D02*
X221278000Y-50264000D01*
X221278000Y-49264000D02*
X222278000Y-49264000D01*
X221278000Y-81264000D02*
X221278000Y-82314000D01*
X221278000Y-82314000D02*
X222278000Y-82314000D01*
X226428000Y-46364000D02*
X226428000Y-47664000D01*
X226428000Y-47664000D02*
X233928000Y-47664000D01*
X229678000Y-46714000D02*
X230678000Y-46714000D01*
X229828000Y-46864000D02*
X230528000Y-46864000D01*
X229928000Y-47014000D02*
X230428000Y-47014000D01*
X230028000Y-47164000D02*
X230328000Y-47164000D01*
X230178000Y-47364000D02*
X229678000Y-46714000D01*
X230678000Y-46714000D02*
X230178000Y-47364000D01*
X233928000Y-46364000D02*
X226428000Y-46364000D01*
X233928000Y-47664000D02*
X233928000Y-46364000D01*
X239078000Y-49264000D02*
X238128000Y-49264000D01*
X239078000Y-49264000D02*
X239078000Y-50264000D01*
X239078000Y-81314000D02*
X239078000Y-82314000D01*
X239078000Y-82314000D02*
X238068000Y-82314000D01*
D12*
%TO.C,SW13*%
X168856000Y-58016000D02*
X168856000Y-71016000D01*
X169356000Y-71516000D02*
X182356000Y-71516000D01*
X182356000Y-57516000D02*
X169356000Y-57516000D01*
X182856000Y-71016000D02*
X182856000Y-58016000D01*
X168856000Y-58016000D02*
G75*
G02*
X169356000Y-57516000I500000J0D01*
G01*
X169356000Y-71516000D02*
G75*
G02*
X168856000Y-71016000I0J500000D01*
G01*
X182356000Y-57516000D02*
G75*
G02*
X182856000Y-58016000I-1J-500001D01*
G01*
X182856000Y-71016000D02*
G75*
G02*
X182356000Y-71516000I-500001J1D01*
G01*
%TO.C,SW17*%
X213256835Y-100894178D02*
X224515165Y-107394178D01*
X219573822Y-88952835D02*
X213073822Y-100211165D01*
X225198178Y-107211165D02*
X231698178Y-95952835D01*
X231515165Y-95269822D02*
X220256835Y-88769822D01*
X213256835Y-100894178D02*
G75*
G02*
X213073822Y-100211165I250000J433013D01*
G01*
X219573822Y-88952835D02*
G75*
G02*
X220256835Y-88769822I433013J-250000D01*
G01*
X225198178Y-107211165D02*
G75*
G02*
X224515165Y-107394178I-433013J250000D01*
G01*
X231515165Y-95269822D02*
G75*
G02*
X231698178Y-95952835I-250000J-433013D01*
G01*
%TO.C,SW12*%
X150856000Y-64874000D02*
X150856000Y-77874000D01*
X151356000Y-78374000D02*
X164356000Y-78374000D01*
X164356000Y-64374000D02*
X151356000Y-64374000D01*
X164856000Y-77874000D02*
X164856000Y-64874000D01*
X150856000Y-64874000D02*
G75*
G02*
X151356000Y-64374000I500000J0D01*
G01*
X151356000Y-78374000D02*
G75*
G02*
X150856000Y-77874000I0J500000D01*
G01*
X164356000Y-64374000D02*
G75*
G02*
X164856000Y-64874000I-1J-500001D01*
G01*
X164856000Y-77874000D02*
G75*
G02*
X164356000Y-78374000I-500001J1D01*
G01*
%TO.C,SW14*%
X186856000Y-63350000D02*
X186856000Y-76350000D01*
X187356000Y-76850000D02*
X200356000Y-76850000D01*
X200356000Y-62850000D02*
X187356000Y-62850000D01*
X200856000Y-76350000D02*
X200856000Y-63350000D01*
X186856000Y-63350000D02*
G75*
G02*
X187356000Y-62850000I500000J0D01*
G01*
X187356000Y-76850000D02*
G75*
G02*
X186856000Y-76350000I0J500000D01*
G01*
X200356000Y-62850000D02*
G75*
G02*
X200856000Y-63350000I-1J-500001D01*
G01*
X200856000Y-76350000D02*
G75*
G02*
X200356000Y-76850000I-500001J1D01*
G01*
%TO.C,SW15*%
X204836000Y-65890000D02*
X204836000Y-78890000D01*
X205336000Y-79390000D02*
X218336000Y-79390000D01*
X218336000Y-65390000D02*
X205336000Y-65390000D01*
X218836000Y-78890000D02*
X218836000Y-65890000D01*
X204836000Y-65890000D02*
G75*
G02*
X205336000Y-65390000I500000J0D01*
G01*
X205336000Y-79390000D02*
G75*
G02*
X204836000Y-78890000I0J500000D01*
G01*
X218336000Y-65390000D02*
G75*
G02*
X218836000Y-65890000I-1J-500001D01*
G01*
X218836000Y-78890000D02*
G75*
G02*
X218336000Y-79390000I-500001J1D01*
G01*
%TO.C,SW3*%
X168856000Y-23882000D02*
X168856000Y-36882000D01*
X169356000Y-37382000D02*
X182356000Y-37382000D01*
X182356000Y-23382000D02*
X169356000Y-23382000D01*
X182856000Y-36882000D02*
X182856000Y-23882000D01*
X168856000Y-23882000D02*
G75*
G02*
X169356000Y-23382000I500000J0D01*
G01*
X169356000Y-37382000D02*
G75*
G02*
X168856000Y-36882000I0J500000D01*
G01*
X182356000Y-23382000D02*
G75*
G02*
X182856000Y-23882000I-1J-500001D01*
G01*
X182856000Y-36882000D02*
G75*
G02*
X182356000Y-37382000I-500001J1D01*
G01*
%TO.C,SW2*%
X150856000Y-30882000D02*
X150856000Y-43882000D01*
X151356000Y-44382000D02*
X164356000Y-44382000D01*
X164356000Y-30382000D02*
X151356000Y-30382000D01*
X164856000Y-43882000D02*
X164856000Y-30882000D01*
X150856000Y-30882000D02*
G75*
G02*
X151356000Y-30382000I500000J0D01*
G01*
X151356000Y-44382000D02*
G75*
G02*
X150856000Y-43882000I0J500000D01*
G01*
X164356000Y-30382000D02*
G75*
G02*
X164856000Y-30882000I-1J-500001D01*
G01*
X164856000Y-43882000D02*
G75*
G02*
X164356000Y-44382000I-500001J1D01*
G01*
%TO.C,SW7*%
X150856000Y-47856000D02*
X150856000Y-60856000D01*
X151356000Y-61356000D02*
X164356000Y-61356000D01*
X164356000Y-47356000D02*
X151356000Y-47356000D01*
X164856000Y-60856000D02*
X164856000Y-47856000D01*
X150856000Y-47856000D02*
G75*
G02*
X151356000Y-47356000I500000J0D01*
G01*
X151356000Y-61356000D02*
G75*
G02*
X150856000Y-60856000I0J500000D01*
G01*
X164356000Y-47356000D02*
G75*
G02*
X164856000Y-47856000I-1J-500001D01*
G01*
X164856000Y-60856000D02*
G75*
G02*
X164356000Y-61356000I-500001J1D01*
G01*
%TO.C,SW11*%
X132856000Y-76882000D02*
X132856000Y-89882000D01*
X133356000Y-90382000D02*
X146356000Y-90382000D01*
X146356000Y-76382000D02*
X133356000Y-76382000D01*
X146856000Y-89882000D02*
X146856000Y-76882000D01*
X132856000Y-76882000D02*
G75*
G02*
X133356000Y-76382000I500001J-1D01*
G01*
X133356000Y-90382000D02*
G75*
G02*
X132856000Y-89882000I1J500001D01*
G01*
X146356000Y-76382000D02*
G75*
G02*
X146856000Y-76882000I0J-500000D01*
G01*
X146856000Y-89882000D02*
G75*
G02*
X146356000Y-90382000I-500000J0D01*
G01*
%TO.C,SW10*%
X204836000Y-48872000D02*
X204836000Y-61872000D01*
X205336000Y-62372000D02*
X218336000Y-62372000D01*
X218336000Y-48372000D02*
X205336000Y-48372000D01*
X218836000Y-61872000D02*
X218836000Y-48872000D01*
X204836000Y-48872000D02*
G75*
G02*
X205336000Y-48372000I500000J0D01*
G01*
X205336000Y-62372000D02*
G75*
G02*
X204836000Y-61872000I0J500000D01*
G01*
X218336000Y-48372000D02*
G75*
G02*
X218836000Y-48872000I-1J-500001D01*
G01*
X218836000Y-61872000D02*
G75*
G02*
X218336000Y-62372000I-500001J1D01*
G01*
%TO.C,SW9*%
X186856000Y-46332000D02*
X186856000Y-59332000D01*
X187356000Y-59832000D02*
X200356000Y-59832000D01*
X200356000Y-45832000D02*
X187356000Y-45832000D01*
X200856000Y-59332000D02*
X200856000Y-46332000D01*
X186856000Y-46332000D02*
G75*
G02*
X187356000Y-45832000I500000J0D01*
G01*
X187356000Y-59832000D02*
G75*
G02*
X186856000Y-59332000I0J500000D01*
G01*
X200356000Y-45832000D02*
G75*
G02*
X200856000Y-46332000I-1J-500001D01*
G01*
X200856000Y-59332000D02*
G75*
G02*
X200356000Y-59832000I-500001J1D01*
G01*
%TO.C,SW6*%
X132856000Y-59882000D02*
X132856000Y-72882000D01*
X133356000Y-73382000D02*
X146356000Y-73382000D01*
X146356000Y-59382000D02*
X133356000Y-59382000D01*
X146856000Y-72882000D02*
X146856000Y-59882000D01*
X132856000Y-59882000D02*
G75*
G02*
X133356000Y-59382000I500001J-1D01*
G01*
X133356000Y-73382000D02*
G75*
G02*
X132856000Y-72882000I1J500001D01*
G01*
X146356000Y-59382000D02*
G75*
G02*
X146856000Y-59882000I0J-500000D01*
G01*
X146856000Y-72882000D02*
G75*
G02*
X146356000Y-73382000I-500000J0D01*
G01*
%TO.C,SW5*%
X204856000Y-31882000D02*
X204856000Y-44882000D01*
X205356000Y-45382000D02*
X218356000Y-45382000D01*
X218356000Y-31382000D02*
X205356000Y-31382000D01*
X218856000Y-44882000D02*
X218856000Y-31882000D01*
X204856000Y-31882000D02*
G75*
G02*
X205356000Y-31382000I500000J0D01*
G01*
X205356000Y-45382000D02*
G75*
G02*
X204856000Y-44882000I0J500000D01*
G01*
X218356000Y-31382000D02*
G75*
G02*
X218856000Y-31882000I-1J-500001D01*
G01*
X218856000Y-44882000D02*
G75*
G02*
X218356000Y-45382000I-500001J1D01*
G01*
%TO.C,SW4*%
X186856000Y-29382000D02*
X186856000Y-42382000D01*
X187356000Y-42882000D02*
X200356000Y-42882000D01*
X200356000Y-28882000D02*
X187356000Y-28882000D01*
X200856000Y-42382000D02*
X200856000Y-29382000D01*
X186856000Y-29382000D02*
G75*
G02*
X187356000Y-28882000I500000J0D01*
G01*
X187356000Y-42882000D02*
G75*
G02*
X186856000Y-42382000I0J500000D01*
G01*
X200356000Y-28882000D02*
G75*
G02*
X200856000Y-29382000I-1J-500001D01*
G01*
X200856000Y-42382000D02*
G75*
G02*
X200356000Y-42882000I-500001J1D01*
G01*
%TO.C,SW1*%
X132856000Y-42882000D02*
X132856000Y-55882000D01*
X133356000Y-56382000D02*
X146356000Y-56382000D01*
X146356000Y-42382000D02*
X133356000Y-42382000D01*
X146856000Y-55882000D02*
X146856000Y-42882000D01*
X132856000Y-42882000D02*
G75*
G02*
X133356000Y-42382000I500001J-1D01*
G01*
X133356000Y-56382000D02*
G75*
G02*
X132856000Y-55882000I1J500001D01*
G01*
X146356000Y-42382000D02*
G75*
G02*
X146856000Y-42882000I0J-500000D01*
G01*
X146856000Y-55882000D02*
G75*
G02*
X146356000Y-56382000I-500000J0D01*
G01*
D14*
%TO.C,mouse-bite-2mm-slot2*%
X129302000Y-54229000D02*
G75*
G02*
X131302000Y-54229000I1000000J0D01*
G01*
X131302000Y-48387000D02*
G75*
G02*
X129302000Y-48387000I-1000000J0D01*
G01*
%TO.C,mouse-bite-2mm-slot1*%
X129302000Y-78105000D02*
G75*
G02*
X131302000Y-78105000I1000000J0D01*
G01*
X131302000Y-72263000D02*
G75*
G02*
X129302000Y-72263000I-1000000J0D01*
G01*
D12*
%TO.C,RSW1*%
X216100000Y-82850000D02*
X216400000Y-82850000D01*
X216100000Y-86150000D02*
X216100000Y-82850000D01*
X216400000Y-86150000D02*
X216100000Y-86150000D01*
X218600000Y-86150000D02*
X218900000Y-86150000D01*
X218900000Y-82850000D02*
X218600000Y-82850000D01*
X218900000Y-86150000D02*
X218900000Y-82850000D01*
%TO.C,SW8*%
X168856000Y-40998000D02*
X168856000Y-53998000D01*
X169356000Y-54498000D02*
X182356000Y-54498000D01*
X182356000Y-40498000D02*
X169356000Y-40498000D01*
X182856000Y-53998000D02*
X182856000Y-40998000D01*
X168856000Y-40998000D02*
G75*
G02*
X169356000Y-40498000I500000J0D01*
G01*
X169356000Y-54498000D02*
G75*
G02*
X168856000Y-53998000I0J500000D01*
G01*
X182356000Y-40498000D02*
G75*
G02*
X182856000Y-40998000I-1J-500001D01*
G01*
X182856000Y-53998000D02*
G75*
G02*
X182356000Y-54498000I-500001J1D01*
G01*
D15*
%TO.C,e*%
X165036000Y-43424500D02*
G75*
G02*
X166069866Y-39273952I20319983J-2857496D01*
G01*
X166069866Y-53290047D02*
G75*
G02*
X165036000Y-49139500I19286087J7008037D01*
G01*
X178347952Y-26995866D02*
G75*
G02*
X182498500Y-25962000I7008044J-19286117D01*
G01*
X182498500Y-66602000D02*
G75*
G02*
X178347954Y-65568135I2857500J20320000D01*
G01*
X184227615Y-35546136D02*
G75*
G02*
X185356000Y-35487000I1128379J-10735785D01*
G01*
X185356000Y-35487000D02*
G75*
G02*
X186484385Y-35546137I0J-10794900D01*
G01*
X185356000Y-57077000D02*
G75*
G02*
X184227615Y-57017864I-6J10794921D01*
G01*
X186484385Y-57017864D02*
G75*
G02*
X185356000Y-57077001I-1128385J10735764D01*
G01*
X188213500Y-25962000D02*
G75*
G02*
X192364047Y-26995866I-2857500J-20320000D01*
G01*
X192364047Y-65568134D02*
G75*
G02*
X188213500Y-66602000I-7008047J19286134D01*
G01*
X204642135Y-39273955D02*
G75*
G02*
X205676000Y-43424500I-19286154J-7008051D01*
G01*
X205676000Y-49139500D02*
G75*
G02*
X204642135Y-53290046I-20320050J2857512D01*
G01*
D12*
X168506000Y-46282000D02*
G75*
G02*
X164106000Y-46282000I-2200000J0D01*
G01*
X164106000Y-46282000D02*
G75*
G02*
X168506000Y-46282000I2200000J0D01*
G01*
X187556000Y-27232000D02*
G75*
G02*
X183156000Y-27232000I-2200000J0D01*
G01*
X183156000Y-27232000D02*
G75*
G02*
X187556000Y-27232000I2200000J0D01*
G01*
X187556000Y-65332000D02*
G75*
G02*
X183156000Y-65332000I-2200000J0D01*
G01*
X183156000Y-65332000D02*
G75*
G02*
X187556000Y-65332000I2200000J0D01*
G01*
X206606000Y-46282000D02*
G75*
G02*
X202206000Y-46282000I-2200000J0D01*
G01*
X202206000Y-46282000D02*
G75*
G02*
X206606000Y-46282000I2200000J0D01*
G01*
D16*
X183729245Y-60363867D02*
X184532191Y-59561167D01*
X184820559Y-59564261D01*
X185108927Y-59567354D01*
X184261703Y-60427491D01*
X184143778Y-60547214D01*
X184028979Y-60663763D01*
X183918525Y-60775903D01*
X183813633Y-60882396D01*
X183715521Y-60982007D01*
X183625406Y-61073500D01*
X183544507Y-61155637D01*
X183474040Y-61227182D01*
X183415224Y-61286900D01*
X183369277Y-61333554D01*
X183337416Y-61365907D01*
X183323635Y-61379903D01*
X183232791Y-61472179D01*
X183232791Y-58730309D01*
X183729245Y-58730309D01*
X183729245Y-60363867D01*
G36*
X183729245Y-60363867D02*
G01*
X184532191Y-59561167D01*
X184820559Y-59564261D01*
X185108927Y-59567354D01*
X184261703Y-60427491D01*
X184143778Y-60547214D01*
X184028979Y-60663763D01*
X183918525Y-60775903D01*
X183813633Y-60882396D01*
X183715521Y-60982007D01*
X183625406Y-61073500D01*
X183544507Y-61155637D01*
X183474040Y-61227182D01*
X183415224Y-61286900D01*
X183369277Y-61333554D01*
X183337416Y-61365907D01*
X183323635Y-61379903D01*
X183232791Y-61472179D01*
X183232791Y-58730309D01*
X183729245Y-58730309D01*
X183729245Y-60363867D01*
G37*
X184536025Y-60770398D02*
X184558728Y-60793261D01*
X184593207Y-60828792D01*
X184637476Y-60874884D01*
X184689543Y-60929430D01*
X184747422Y-60990324D01*
X184809121Y-61055459D01*
X184872654Y-61122729D01*
X184936029Y-61190027D01*
X184997259Y-61255246D01*
X185054355Y-61316281D01*
X185105327Y-61371024D01*
X185148187Y-61417369D01*
X185180945Y-61453209D01*
X185201613Y-61476438D01*
X185203906Y-61479129D01*
X185232207Y-61512764D01*
X184612193Y-61512764D01*
X184438843Y-61336695D01*
X184385101Y-61281952D01*
X184334818Y-61230439D01*
X184291002Y-61185259D01*
X184256656Y-61149513D01*
X184234788Y-61126304D01*
X184231611Y-61122812D01*
X184197729Y-61084997D01*
X184358764Y-60923653D01*
X184408477Y-60874198D01*
X184452701Y-60830873D01*
X184488848Y-60796160D01*
X184514330Y-60772540D01*
X184526559Y-60762492D01*
X184527090Y-60762309D01*
X184536025Y-60770398D01*
G36*
X184536025Y-60770398D02*
G01*
X184558728Y-60793261D01*
X184593207Y-60828792D01*
X184637476Y-60874884D01*
X184689543Y-60929430D01*
X184747422Y-60990324D01*
X184809121Y-61055459D01*
X184872654Y-61122729D01*
X184936029Y-61190027D01*
X184997259Y-61255246D01*
X185054355Y-61316281D01*
X185105327Y-61371024D01*
X185148187Y-61417369D01*
X185180945Y-61453209D01*
X185201613Y-61476438D01*
X185203906Y-61479129D01*
X185232207Y-61512764D01*
X184612193Y-61512764D01*
X184438843Y-61336695D01*
X184385101Y-61281952D01*
X184334818Y-61230439D01*
X184291002Y-61185259D01*
X184256656Y-61149513D01*
X184234788Y-61126304D01*
X184231611Y-61122812D01*
X184197729Y-61084997D01*
X184358764Y-60923653D01*
X184408477Y-60874198D01*
X184452701Y-60830873D01*
X184488848Y-60796160D01*
X184514330Y-60772540D01*
X184526559Y-60762492D01*
X184527090Y-60762309D01*
X184536025Y-60770398D01*
G37*
X185934279Y-59229650D02*
X185934471Y-59333890D01*
X185934960Y-59430635D01*
X185935710Y-59517521D01*
X185936686Y-59592183D01*
X185937855Y-59652258D01*
X185939182Y-59695381D01*
X185940631Y-59719188D01*
X185941539Y-59723218D01*
X185953970Y-59716904D01*
X185978816Y-59700561D01*
X186002950Y-59683359D01*
X186117647Y-59612637D01*
X186239863Y-59563533D01*
X186370246Y-59535857D01*
X186509447Y-59529419D01*
X186527259Y-59530087D01*
X186616894Y-59536639D01*
X186693377Y-59548576D01*
X186765029Y-59568068D01*
X186840167Y-59597285D01*
X186910018Y-59629924D01*
X187037951Y-59705217D01*
X187150871Y-59797197D01*
X187247765Y-59904186D01*
X187327623Y-60024511D01*
X187389433Y-60156496D01*
X187432185Y-60298465D01*
X187454866Y-60448744D01*
X187458427Y-60538414D01*
X187448136Y-60690892D01*
X187416780Y-60835456D01*
X187363635Y-60974692D01*
X187306380Y-61081611D01*
X187220668Y-61201904D01*
X187119055Y-61306753D01*
X187003722Y-61395075D01*
X186876847Y-61465789D01*
X186740611Y-61517812D01*
X186597192Y-61550065D01*
X186448771Y-61561464D01*
X186348525Y-61556981D01*
X186203917Y-61532100D01*
X186063349Y-61485825D01*
X185930176Y-61419846D01*
X185807756Y-61335849D01*
X185699444Y-61235523D01*
X185691050Y-61226357D01*
X185609919Y-61122237D01*
X185540227Y-61004055D01*
X185485061Y-60878192D01*
X185447508Y-60751032D01*
X185438639Y-60704582D01*
X185436026Y-60676187D01*
X185433681Y-60626115D01*
X185432212Y-60575781D01*
X185928550Y-60575781D01*
X185939122Y-60673330D01*
X185969554Y-60767349D01*
X185998208Y-60821494D01*
X186065142Y-60909777D01*
X186144623Y-60980654D01*
X186234055Y-61033147D01*
X186330841Y-61066279D01*
X186432382Y-61079073D01*
X186536083Y-61070552D01*
X186608910Y-61051264D01*
X186651907Y-61035178D01*
X186692812Y-61017818D01*
X186708979Y-61010042D01*
X186754265Y-60979038D01*
X186803588Y-60932844D01*
X186851645Y-60877388D01*
X186893130Y-60818594D01*
X186914618Y-60780267D01*
X186934799Y-60736021D01*
X186947444Y-60697413D01*
X186954801Y-60655121D01*
X186959119Y-60599818D01*
X186959401Y-60594528D01*
X186956033Y-60487283D01*
X186933177Y-60389391D01*
X186889525Y-60295968D01*
X186871755Y-60267439D01*
X186807213Y-60189535D01*
X186728396Y-60127365D01*
X186638760Y-60081869D01*
X186541761Y-60053991D01*
X186440857Y-60044671D01*
X186339505Y-60054853D01*
X186241159Y-60085478D01*
X186227156Y-60091764D01*
X186139204Y-60144713D01*
X186065214Y-60212927D01*
X186006171Y-60293273D01*
X185963058Y-60382620D01*
X185936856Y-60477833D01*
X185928550Y-60575781D01*
X185432212Y-60575781D01*
X185431628Y-60555778D01*
X185429889Y-60466589D01*
X185428486Y-60359960D01*
X185427442Y-60237304D01*
X185426778Y-60100032D01*
X185426517Y-59949558D01*
X185426514Y-59937822D01*
X185426427Y-59246108D01*
X185934131Y-58736082D01*
X185934279Y-59229650D01*
G36*
X185934279Y-59229650D02*
G01*
X185934471Y-59333890D01*
X185934960Y-59430635D01*
X185935710Y-59517521D01*
X185936686Y-59592183D01*
X185937855Y-59652258D01*
X185939182Y-59695381D01*
X185940631Y-59719188D01*
X185941539Y-59723218D01*
X185953970Y-59716904D01*
X185978816Y-59700561D01*
X186002950Y-59683359D01*
X186117647Y-59612637D01*
X186239863Y-59563533D01*
X186370246Y-59535857D01*
X186509447Y-59529419D01*
X186527259Y-59530087D01*
X186616894Y-59536639D01*
X186693377Y-59548576D01*
X186765029Y-59568068D01*
X186840167Y-59597285D01*
X186910018Y-59629924D01*
X187037951Y-59705217D01*
X187150871Y-59797197D01*
X187247765Y-59904186D01*
X187327623Y-60024511D01*
X187389433Y-60156496D01*
X187432185Y-60298465D01*
X187454866Y-60448744D01*
X187458427Y-60538414D01*
X187448136Y-60690892D01*
X187416780Y-60835456D01*
X187363635Y-60974692D01*
X187306380Y-61081611D01*
X187220668Y-61201904D01*
X187119055Y-61306753D01*
X187003722Y-61395075D01*
X186876847Y-61465789D01*
X186740611Y-61517812D01*
X186597192Y-61550065D01*
X186448771Y-61561464D01*
X186348525Y-61556981D01*
X186203917Y-61532100D01*
X186063349Y-61485825D01*
X185930176Y-61419846D01*
X185807756Y-61335849D01*
X185699444Y-61235523D01*
X185691050Y-61226357D01*
X185609919Y-61122237D01*
X185540227Y-61004055D01*
X185485061Y-60878192D01*
X185447508Y-60751032D01*
X185438639Y-60704582D01*
X185436026Y-60676187D01*
X185433681Y-60626115D01*
X185432212Y-60575781D01*
X185928550Y-60575781D01*
X185939122Y-60673330D01*
X185969554Y-60767349D01*
X185998208Y-60821494D01*
X186065142Y-60909777D01*
X186144623Y-60980654D01*
X186234055Y-61033147D01*
X186330841Y-61066279D01*
X186432382Y-61079073D01*
X186536083Y-61070552D01*
X186608910Y-61051264D01*
X186651907Y-61035178D01*
X186692812Y-61017818D01*
X186708979Y-61010042D01*
X186754265Y-60979038D01*
X186803588Y-60932844D01*
X186851645Y-60877388D01*
X186893130Y-60818594D01*
X186914618Y-60780267D01*
X186934799Y-60736021D01*
X186947444Y-60697413D01*
X186954801Y-60655121D01*
X186959119Y-60599818D01*
X186959401Y-60594528D01*
X186956033Y-60487283D01*
X186933177Y-60389391D01*
X186889525Y-60295968D01*
X186871755Y-60267439D01*
X186807213Y-60189535D01*
X186728396Y-60127365D01*
X186638760Y-60081869D01*
X186541761Y-60053991D01*
X186440857Y-60044671D01*
X186339505Y-60054853D01*
X186241159Y-60085478D01*
X186227156Y-60091764D01*
X186139204Y-60144713D01*
X186065214Y-60212927D01*
X186006171Y-60293273D01*
X185963058Y-60382620D01*
X185936856Y-60477833D01*
X185928550Y-60575781D01*
X185432212Y-60575781D01*
X185431628Y-60555778D01*
X185429889Y-60466589D01*
X185428486Y-60359960D01*
X185427442Y-60237304D01*
X185426778Y-60100032D01*
X185426517Y-59949558D01*
X185426514Y-59937822D01*
X185426427Y-59246108D01*
X185934131Y-58736082D01*
X185934279Y-59229650D01*
G37*
D11*
%TO.C,Bat+1*%
X234966000Y-49800000D02*
X234966000Y-51800000D01*
X234966000Y-51800000D02*
X236966000Y-51800000D01*
X236966000Y-49800000D02*
X234966000Y-49800000D01*
X236966000Y-51800000D02*
X236966000Y-49800000D01*
%TO.C,BatGND1*%
X223282000Y-49800000D02*
X223282000Y-51800000D01*
X223282000Y-51800000D02*
X225282000Y-51800000D01*
X225282000Y-49800000D02*
X223282000Y-49800000D01*
X225282000Y-51800000D02*
X225282000Y-49800000D01*
%TO.C,U2*%
X21426000Y-49264000D02*
X21426000Y-50264000D01*
X21426000Y-49264000D02*
X22426000Y-49264000D01*
X21426000Y-81264000D02*
X21426000Y-82314000D01*
X21426000Y-82314000D02*
X22426000Y-82314000D01*
X26576000Y-46364000D02*
X26576000Y-47664000D01*
X26576000Y-47664000D02*
X34076000Y-47664000D01*
X29826000Y-46714000D02*
X30826000Y-46714000D01*
X29976000Y-46864000D02*
X30676000Y-46864000D01*
X30076000Y-47014000D02*
X30576000Y-47014000D01*
X30176000Y-47164000D02*
X30476000Y-47164000D01*
X30326000Y-47364000D02*
X29826000Y-46714000D01*
X30826000Y-46714000D02*
X30326000Y-47364000D01*
X34076000Y-46364000D02*
X26576000Y-46364000D01*
X34076000Y-47664000D02*
X34076000Y-46364000D01*
X39226000Y-49264000D02*
X38276000Y-49264000D01*
X39226000Y-49264000D02*
X39226000Y-50264000D01*
X39226000Y-81314000D02*
X39226000Y-82314000D01*
X39226000Y-82314000D02*
X38216000Y-82314000D01*
D12*
%TO.C,SW15_r1*%
X41686000Y-65890000D02*
X41686000Y-78890000D01*
X42186000Y-79390000D02*
X55186000Y-79390000D01*
X55186000Y-65390000D02*
X42186000Y-65390000D01*
X55686000Y-78890000D02*
X55686000Y-65890000D01*
X41686000Y-65890000D02*
G75*
G02*
X42186000Y-65390000I500001J-1D01*
G01*
X42186000Y-79390000D02*
G75*
G02*
X41686000Y-78890000I1J500001D01*
G01*
X55186000Y-65390000D02*
G75*
G02*
X55686000Y-65890000I0J-500000D01*
G01*
X55686000Y-78890000D02*
G75*
G02*
X55186000Y-79390000I-500000J0D01*
G01*
%TO.C,SW9_r1*%
X59700000Y-46332000D02*
X59700000Y-59332000D01*
X60200000Y-59832000D02*
X73200000Y-59832000D01*
X73200000Y-45832000D02*
X60200000Y-45832000D01*
X73700000Y-59332000D02*
X73700000Y-46332000D01*
X59700000Y-46332000D02*
G75*
G02*
X60200000Y-45832000I500000J0D01*
G01*
X60200000Y-59832000D02*
G75*
G02*
X59700000Y-59332000I0J500000D01*
G01*
X73200000Y-45832000D02*
G75*
G02*
X73700000Y-46332000I-1J-500001D01*
G01*
X73700000Y-59332000D02*
G75*
G02*
X73200000Y-59832000I-500001J1D01*
G01*
%TO.C,SW13_r1*%
X77688000Y-58016000D02*
X77688000Y-71016000D01*
X78188000Y-71516000D02*
X91188000Y-71516000D01*
X91188000Y-57516000D02*
X78188000Y-57516000D01*
X91688000Y-71016000D02*
X91688000Y-58016000D01*
X77688000Y-58016000D02*
G75*
G02*
X78188000Y-57516000I500000J0D01*
G01*
X78188000Y-71516000D02*
G75*
G02*
X77688000Y-71016000I0J500000D01*
G01*
X91188000Y-57516000D02*
G75*
G02*
X91688000Y-58016000I-1J-500001D01*
G01*
X91688000Y-71016000D02*
G75*
G02*
X91188000Y-71516000I-500001J1D01*
G01*
%TO.C,SW12_r1*%
X95714000Y-64874000D02*
X95714000Y-77874000D01*
X96214000Y-78374000D02*
X109214000Y-78374000D01*
X109214000Y-64374000D02*
X96214000Y-64374000D01*
X109714000Y-77874000D02*
X109714000Y-64874000D01*
X95714000Y-64874000D02*
G75*
G02*
X96214000Y-64374000I500000J0D01*
G01*
X96214000Y-78374000D02*
G75*
G02*
X95714000Y-77874000I0J500000D01*
G01*
X109214000Y-64374000D02*
G75*
G02*
X109714000Y-64874000I-1J-500001D01*
G01*
X109714000Y-77874000D02*
G75*
G02*
X109214000Y-78374000I-500001J1D01*
G01*
%TO.C,SW5_r1*%
X41686000Y-31882000D02*
X41686000Y-44882000D01*
X42186000Y-45382000D02*
X55186000Y-45382000D01*
X55186000Y-31382000D02*
X42186000Y-31382000D01*
X55686000Y-44882000D02*
X55686000Y-31882000D01*
X41686000Y-31882000D02*
G75*
G02*
X42186000Y-31382000I500001J-1D01*
G01*
X42186000Y-45382000D02*
G75*
G02*
X41686000Y-44882000I1J500001D01*
G01*
X55186000Y-31382000D02*
G75*
G02*
X55686000Y-31882000I0J-500000D01*
G01*
X55686000Y-44882000D02*
G75*
G02*
X55186000Y-45382000I-500000J0D01*
G01*
%TO.C,SW1_r1*%
X113732000Y-42882000D02*
X113732000Y-55882000D01*
X114232000Y-56382000D02*
X127232000Y-56382000D01*
X127232000Y-42382000D02*
X114232000Y-42382000D01*
X127732000Y-55882000D02*
X127732000Y-42882000D01*
X113732000Y-42882000D02*
G75*
G02*
X114232000Y-42382000I500000J0D01*
G01*
X114232000Y-56382000D02*
G75*
G02*
X113732000Y-55882000I0J500000D01*
G01*
X127232000Y-42382000D02*
G75*
G02*
X127732000Y-42882000I-1J-500001D01*
G01*
X127732000Y-55882000D02*
G75*
G02*
X127232000Y-56382000I-500001J1D01*
G01*
%TO.C,SW14_r1*%
X59700000Y-63350000D02*
X59700000Y-76350000D01*
X60200000Y-76850000D02*
X73200000Y-76850000D01*
X73200000Y-62850000D02*
X60200000Y-62850000D01*
X73700000Y-76350000D02*
X73700000Y-63350000D01*
X59700000Y-63350000D02*
G75*
G02*
X60200000Y-62850000I500000J0D01*
G01*
X60200000Y-76850000D02*
G75*
G02*
X59700000Y-76350000I0J500000D01*
G01*
X73200000Y-62850000D02*
G75*
G02*
X73700000Y-63350000I-1J-500001D01*
G01*
X73700000Y-76350000D02*
G75*
G02*
X73200000Y-76850000I-500001J1D01*
G01*
%TO.C,SW3_r1*%
X77688000Y-23882000D02*
X77688000Y-36882000D01*
X78188000Y-37382000D02*
X91188000Y-37382000D01*
X91188000Y-23382000D02*
X78188000Y-23382000D01*
X91688000Y-36882000D02*
X91688000Y-23882000D01*
X77688000Y-23882000D02*
G75*
G02*
X78188000Y-23382000I500000J0D01*
G01*
X78188000Y-37382000D02*
G75*
G02*
X77688000Y-36882000I0J500000D01*
G01*
X91188000Y-23382000D02*
G75*
G02*
X91688000Y-23882000I-1J-500001D01*
G01*
X91688000Y-36882000D02*
G75*
G02*
X91188000Y-37382000I-500001J1D01*
G01*
%TO.C,SW11_r1*%
X113732000Y-76882000D02*
X113732000Y-89882000D01*
X114232000Y-90382000D02*
X127232000Y-90382000D01*
X127232000Y-76382000D02*
X114232000Y-76382000D01*
X127732000Y-89882000D02*
X127732000Y-76882000D01*
X113732000Y-76882000D02*
G75*
G02*
X114232000Y-76382000I500000J0D01*
G01*
X114232000Y-90382000D02*
G75*
G02*
X113732000Y-89882000I0J500000D01*
G01*
X127232000Y-76382000D02*
G75*
G02*
X127732000Y-76882000I-1J-500001D01*
G01*
X127732000Y-89882000D02*
G75*
G02*
X127232000Y-90382000I-500001J1D01*
G01*
%TO.C,SW10_r1*%
X41686000Y-48872000D02*
X41686000Y-61872000D01*
X42186000Y-62372000D02*
X55186000Y-62372000D01*
X55186000Y-48372000D02*
X42186000Y-48372000D01*
X55686000Y-61872000D02*
X55686000Y-48872000D01*
X41686000Y-48872000D02*
G75*
G02*
X42186000Y-48372000I500001J-1D01*
G01*
X42186000Y-62372000D02*
G75*
G02*
X41686000Y-61872000I1J500001D01*
G01*
X55186000Y-48372000D02*
G75*
G02*
X55686000Y-48872000I0J-500000D01*
G01*
X55686000Y-61872000D02*
G75*
G02*
X55186000Y-62372000I-500000J0D01*
G01*
%TO.C,SW2_r1*%
X95714000Y-30882000D02*
X95714000Y-43882000D01*
X96214000Y-44382000D02*
X109214000Y-44382000D01*
X109214000Y-30382000D02*
X96214000Y-30382000D01*
X109714000Y-43882000D02*
X109714000Y-30882000D01*
X95714000Y-30882000D02*
G75*
G02*
X96214000Y-30382000I500000J0D01*
G01*
X96214000Y-44382000D02*
G75*
G02*
X95714000Y-43882000I0J500000D01*
G01*
X109214000Y-30382000D02*
G75*
G02*
X109714000Y-30882000I-1J-500001D01*
G01*
X109714000Y-43882000D02*
G75*
G02*
X109214000Y-44382000I-500001J1D01*
G01*
%TO.C,SW7_r1*%
X95714000Y-47856000D02*
X95714000Y-60856000D01*
X96214000Y-61356000D02*
X109214000Y-61356000D01*
X109214000Y-47356000D02*
X96214000Y-47356000D01*
X109714000Y-60856000D02*
X109714000Y-47856000D01*
X95714000Y-47856000D02*
G75*
G02*
X96214000Y-47356000I500000J0D01*
G01*
X96214000Y-61356000D02*
G75*
G02*
X95714000Y-60856000I0J500000D01*
G01*
X109214000Y-47356000D02*
G75*
G02*
X109714000Y-47856000I-1J-500001D01*
G01*
X109714000Y-60856000D02*
G75*
G02*
X109214000Y-61356000I-500001J1D01*
G01*
%TO.C,SW16_r1*%
X48334195Y-85615214D02*
X51698843Y-98172251D01*
X52311214Y-98525805D02*
X64868251Y-95161157D01*
X61244786Y-81638195D02*
X48687749Y-85002843D01*
X65221805Y-94548786D02*
X61857157Y-81991749D01*
X48334195Y-85615214D02*
G75*
G02*
X48687749Y-85002843I482965J129407D01*
G01*
X52311214Y-98525805D02*
G75*
G02*
X51698843Y-98172251I-129407J482965D01*
G01*
X61244786Y-81638195D02*
G75*
G02*
X61857157Y-81991749I129408J-482963D01*
G01*
X65221805Y-94548786D02*
G75*
G02*
X64868251Y-95161157I-482963J-129408D01*
G01*
D16*
%TO.C,SweepLogo*%
X76669904Y-78093937D02*
X76686043Y-78099438D01*
X76705908Y-78110176D01*
X76731659Y-78127235D01*
X76765459Y-78151700D01*
X76809471Y-78184655D01*
X76838313Y-78206415D01*
X76863220Y-78225387D01*
X76899440Y-78253228D01*
X76945771Y-78289002D01*
X77001011Y-78331769D01*
X77063958Y-78380594D01*
X77133412Y-78434538D01*
X77208169Y-78492663D01*
X77287029Y-78554033D01*
X77368789Y-78617711D01*
X77452247Y-78682758D01*
X77536203Y-78748236D01*
X77619454Y-78813210D01*
X77700797Y-78876740D01*
X77779033Y-78937890D01*
X77852958Y-78995723D01*
X77921371Y-79049301D01*
X77983071Y-79097686D01*
X78036855Y-79139941D01*
X78081523Y-79175128D01*
X78115871Y-79202311D01*
X78138698Y-79220550D01*
X78145826Y-79226363D01*
X78176621Y-79251526D01*
X78205780Y-79274668D01*
X78228668Y-79292137D01*
X78235545Y-79297076D01*
X78249027Y-79307121D01*
X78273739Y-79326254D01*
X78307733Y-79352937D01*
X78349058Y-79385630D01*
X78395761Y-79422796D01*
X78445892Y-79462893D01*
X78455423Y-79470539D01*
X78504582Y-79509912D01*
X78564417Y-79557700D01*
X78632316Y-79611825D01*
X78705666Y-79670208D01*
X78781853Y-79730769D01*
X78858268Y-79791431D01*
X78932294Y-79850113D01*
X78961209Y-79873007D01*
X79040389Y-79935708D01*
X79128867Y-80005823D01*
X79222904Y-80080390D01*
X79318769Y-80156444D01*
X79412724Y-80231023D01*
X79501037Y-80301164D01*
X79579971Y-80363902D01*
X79583303Y-80366552D01*
X79892443Y-80612397D01*
X79863006Y-80664564D01*
X79833571Y-80716055D01*
X79809599Y-80756274D01*
X79788759Y-80788977D01*
X79768722Y-80817927D01*
X79763416Y-80825220D01*
X79745458Y-80852201D01*
X79730676Y-80878751D01*
X79725677Y-80890075D01*
X79716332Y-80910654D01*
X79701057Y-80939653D01*
X79682975Y-80971182D01*
X79680915Y-80974605D01*
X79664680Y-81002976D01*
X79652878Y-81026535D01*
X79647603Y-81041017D01*
X79647528Y-81042584D01*
X79643998Y-81055210D01*
X79633532Y-81076346D01*
X79623826Y-81092704D01*
X79610140Y-81116060D01*
X79601518Y-81134142D01*
X79599876Y-81140804D01*
X79598570Y-81150659D01*
X79590309Y-81151711D01*
X79573742Y-81143269D01*
X79547522Y-81124643D01*
X79510298Y-81095146D01*
X79509897Y-81094818D01*
X79483544Y-81073484D01*
X79446267Y-81043495D01*
X79400404Y-81006727D01*
X79348294Y-80965050D01*
X79292279Y-80920336D01*
X79234695Y-80874458D01*
X79207472Y-80852800D01*
X79124018Y-80786284D01*
X79030528Y-80711489D01*
X78929550Y-80630473D01*
X78823634Y-80545293D01*
X78715329Y-80458006D01*
X78607187Y-80370669D01*
X78501754Y-80285341D01*
X78401580Y-80204073D01*
X78309216Y-80128929D01*
X78227209Y-80061962D01*
X78216669Y-80053331D01*
X78202203Y-80041488D01*
X78176830Y-80020719D01*
X78142746Y-79992827D01*
X78102154Y-79959610D01*
X78057248Y-79922865D01*
X78025843Y-79897170D01*
X77978958Y-79858715D01*
X77934658Y-79822207D01*
X77895208Y-79789525D01*
X77862877Y-79762553D01*
X77839932Y-79743173D01*
X77831127Y-79735541D01*
X77812265Y-79718963D01*
X77790856Y-79700604D01*
X77765030Y-79678911D01*
X77732916Y-79652337D01*
X77692645Y-79619329D01*
X77642346Y-79578336D01*
X77600581Y-79544395D01*
X77535729Y-79491618D01*
X77470859Y-79438610D01*
X77407574Y-79386695D01*
X77347472Y-79337199D01*
X77292154Y-79291445D01*
X77243222Y-79250759D01*
X77202275Y-79216465D01*
X77170914Y-79189887D01*
X77150739Y-79172351D01*
X77147878Y-79169760D01*
X77114789Y-79140248D01*
X77073836Y-79104967D01*
X77030500Y-79068573D01*
X76990261Y-79035722D01*
X76986408Y-79032641D01*
X76970220Y-79019280D01*
X76943175Y-78996441D01*
X76907183Y-78965760D01*
X76864152Y-78928883D01*
X76815990Y-78887452D01*
X76764606Y-78843110D01*
X76711909Y-78797502D01*
X76659807Y-78752268D01*
X76610210Y-78709054D01*
X76590865Y-78692146D01*
X76561390Y-78666012D01*
X76535528Y-78642451D01*
X76516737Y-78624649D01*
X76509865Y-78617572D01*
X76495802Y-78603408D01*
X76474102Y-78583462D01*
X76455920Y-78567596D01*
X76414899Y-78530481D01*
X76386417Y-78498892D01*
X76368370Y-78469850D01*
X76358656Y-78440374D01*
X76356495Y-78426627D01*
X76358638Y-78376493D01*
X76374611Y-78323483D01*
X76402249Y-78270276D01*
X76439384Y-78219550D01*
X76483850Y-78173986D01*
X76533483Y-78136262D01*
X76586115Y-78109057D01*
X76622205Y-78098000D01*
X76640147Y-78094302D01*
X76655325Y-78092586D01*
X76669904Y-78093937D01*
G36*
X76669904Y-78093937D02*
G01*
X76686043Y-78099438D01*
X76705908Y-78110176D01*
X76731659Y-78127235D01*
X76765459Y-78151700D01*
X76809471Y-78184655D01*
X76838313Y-78206415D01*
X76863220Y-78225387D01*
X76899440Y-78253228D01*
X76945771Y-78289002D01*
X77001011Y-78331769D01*
X77063958Y-78380594D01*
X77133412Y-78434538D01*
X77208169Y-78492663D01*
X77287029Y-78554033D01*
X77368789Y-78617711D01*
X77452247Y-78682758D01*
X77536203Y-78748236D01*
X77619454Y-78813210D01*
X77700797Y-78876740D01*
X77779033Y-78937890D01*
X77852958Y-78995723D01*
X77921371Y-79049301D01*
X77983071Y-79097686D01*
X78036855Y-79139941D01*
X78081523Y-79175128D01*
X78115871Y-79202311D01*
X78138698Y-79220550D01*
X78145826Y-79226363D01*
X78176621Y-79251526D01*
X78205780Y-79274668D01*
X78228668Y-79292137D01*
X78235545Y-79297076D01*
X78249027Y-79307121D01*
X78273739Y-79326254D01*
X78307733Y-79352937D01*
X78349058Y-79385630D01*
X78395761Y-79422796D01*
X78445892Y-79462893D01*
X78455423Y-79470539D01*
X78504582Y-79509912D01*
X78564417Y-79557700D01*
X78632316Y-79611825D01*
X78705666Y-79670208D01*
X78781853Y-79730769D01*
X78858268Y-79791431D01*
X78932294Y-79850113D01*
X78961209Y-79873007D01*
X79040389Y-79935708D01*
X79128867Y-80005823D01*
X79222904Y-80080390D01*
X79318769Y-80156444D01*
X79412724Y-80231023D01*
X79501037Y-80301164D01*
X79579971Y-80363902D01*
X79583303Y-80366552D01*
X79892443Y-80612397D01*
X79863006Y-80664564D01*
X79833571Y-80716055D01*
X79809599Y-80756274D01*
X79788759Y-80788977D01*
X79768722Y-80817927D01*
X79763416Y-80825220D01*
X79745458Y-80852201D01*
X79730676Y-80878751D01*
X79725677Y-80890075D01*
X79716332Y-80910654D01*
X79701057Y-80939653D01*
X79682975Y-80971182D01*
X79680915Y-80974605D01*
X79664680Y-81002976D01*
X79652878Y-81026535D01*
X79647603Y-81041017D01*
X79647528Y-81042584D01*
X79643998Y-81055210D01*
X79633532Y-81076346D01*
X79623826Y-81092704D01*
X79610140Y-81116060D01*
X79601518Y-81134142D01*
X79599876Y-81140804D01*
X79598570Y-81150659D01*
X79590309Y-81151711D01*
X79573742Y-81143269D01*
X79547522Y-81124643D01*
X79510298Y-81095146D01*
X79509897Y-81094818D01*
X79483544Y-81073484D01*
X79446267Y-81043495D01*
X79400404Y-81006727D01*
X79348294Y-80965050D01*
X79292279Y-80920336D01*
X79234695Y-80874458D01*
X79207472Y-80852800D01*
X79124018Y-80786284D01*
X79030528Y-80711489D01*
X78929550Y-80630473D01*
X78823634Y-80545293D01*
X78715329Y-80458006D01*
X78607187Y-80370669D01*
X78501754Y-80285341D01*
X78401580Y-80204073D01*
X78309216Y-80128929D01*
X78227209Y-80061962D01*
X78216669Y-80053331D01*
X78202203Y-80041488D01*
X78176830Y-80020719D01*
X78142746Y-79992827D01*
X78102154Y-79959610D01*
X78057248Y-79922865D01*
X78025843Y-79897170D01*
X77978958Y-79858715D01*
X77934658Y-79822207D01*
X77895208Y-79789525D01*
X77862877Y-79762553D01*
X77839932Y-79743173D01*
X77831127Y-79735541D01*
X77812265Y-79718963D01*
X77790856Y-79700604D01*
X77765030Y-79678911D01*
X77732916Y-79652337D01*
X77692645Y-79619329D01*
X77642346Y-79578336D01*
X77600581Y-79544395D01*
X77535729Y-79491618D01*
X77470859Y-79438610D01*
X77407574Y-79386695D01*
X77347472Y-79337199D01*
X77292154Y-79291445D01*
X77243222Y-79250759D01*
X77202275Y-79216465D01*
X77170914Y-79189887D01*
X77150739Y-79172351D01*
X77147878Y-79169760D01*
X77114789Y-79140248D01*
X77073836Y-79104967D01*
X77030500Y-79068573D01*
X76990261Y-79035722D01*
X76986408Y-79032641D01*
X76970220Y-79019280D01*
X76943175Y-78996441D01*
X76907183Y-78965760D01*
X76864152Y-78928883D01*
X76815990Y-78887452D01*
X76764606Y-78843110D01*
X76711909Y-78797502D01*
X76659807Y-78752268D01*
X76610210Y-78709054D01*
X76590865Y-78692146D01*
X76561390Y-78666012D01*
X76535528Y-78642451D01*
X76516737Y-78624649D01*
X76509865Y-78617572D01*
X76495802Y-78603408D01*
X76474102Y-78583462D01*
X76455920Y-78567596D01*
X76414899Y-78530481D01*
X76386417Y-78498892D01*
X76368370Y-78469850D01*
X76358656Y-78440374D01*
X76356495Y-78426627D01*
X76358638Y-78376493D01*
X76374611Y-78323483D01*
X76402249Y-78270276D01*
X76439384Y-78219550D01*
X76483850Y-78173986D01*
X76533483Y-78136262D01*
X76586115Y-78109057D01*
X76622205Y-78098000D01*
X76640147Y-78094302D01*
X76655325Y-78092586D01*
X76669904Y-78093937D01*
G37*
X81579654Y-81964682D02*
X81625784Y-82001836D01*
X81681556Y-82046858D01*
X81743480Y-82096925D01*
X81808070Y-82149213D01*
X81871832Y-82200902D01*
X81927903Y-82246421D01*
X82134469Y-82413805D01*
X82329205Y-82570656D01*
X82511787Y-82716716D01*
X82623527Y-82805534D01*
X82668552Y-82841328D01*
X82723286Y-82885012D01*
X82785527Y-82934813D01*
X82853070Y-82988958D01*
X82923713Y-83045676D01*
X82995252Y-83103195D01*
X83065483Y-83159742D01*
X83132202Y-83213546D01*
X83193208Y-83262834D01*
X83246295Y-83305834D01*
X83289262Y-83340774D01*
X83303530Y-83352431D01*
X83373310Y-83409349D01*
X83446904Y-83468970D01*
X83526068Y-83532697D01*
X83612555Y-83601938D01*
X83708125Y-83678099D01*
X83814524Y-83762588D01*
X83866945Y-83804126D01*
X83937950Y-83860480D01*
X84014405Y-83921380D01*
X84093114Y-83984263D01*
X84170882Y-84046570D01*
X84244512Y-84105742D01*
X84310809Y-84159217D01*
X84359927Y-84199026D01*
X84419323Y-84247137D01*
X84488564Y-84302923D01*
X84564172Y-84363604D01*
X84642676Y-84426399D01*
X84720599Y-84488527D01*
X84794466Y-84547205D01*
X84835290Y-84579517D01*
X84892930Y-84625186D01*
X84946218Y-84667643D01*
X84993731Y-84705736D01*
X85034043Y-84738312D01*
X85065729Y-84764218D01*
X85087364Y-84782299D01*
X85097523Y-84791404D01*
X85098119Y-84792199D01*
X85091688Y-84799419D01*
X85073662Y-84812971D01*
X85047195Y-84830860D01*
X85015435Y-84851095D01*
X84981535Y-84871680D01*
X84948645Y-84890620D01*
X84919917Y-84905923D01*
X84913194Y-84909215D01*
X84884678Y-84924330D01*
X84860792Y-84939643D01*
X84848767Y-84949799D01*
X84833769Y-84963200D01*
X84809796Y-84980998D01*
X84786273Y-84996621D01*
X84759788Y-85014034D01*
X84738042Y-85029727D01*
X84726867Y-85039241D01*
X84718983Y-85044551D01*
X84708518Y-85042929D01*
X84692115Y-85032926D01*
X84666545Y-85013197D01*
X84640213Y-84992605D01*
X84604875Y-84965686D01*
X84565262Y-84936013D01*
X84528136Y-84908643D01*
X84486778Y-84878249D01*
X84443198Y-84845915D01*
X84402954Y-84815784D01*
X84375067Y-84794647D01*
X84350627Y-84776188D01*
X84315188Y-84749748D01*
X84271438Y-84717318D01*
X84222068Y-84680886D01*
X84169765Y-84642442D01*
X84129228Y-84612751D01*
X84076873Y-84574353D01*
X84025743Y-84536637D01*
X83978440Y-84501541D01*
X83937570Y-84471004D01*
X83905737Y-84446961D01*
X83888729Y-84433861D01*
X83858327Y-84410504D01*
X83819348Y-84381232D01*
X83777017Y-84349942D01*
X83739989Y-84322995D01*
X83700468Y-84294377D01*
X83660760Y-84265411D01*
X83625565Y-84239539D01*
X83600288Y-84220725D01*
X83562114Y-84192231D01*
X83512263Y-84155403D01*
X83452829Y-84111765D01*
X83385902Y-84062841D01*
X83313573Y-84010161D01*
X83237933Y-83955241D01*
X83161075Y-83899612D01*
X83085087Y-83844799D01*
X83060297Y-83826962D01*
X83006565Y-83788222D01*
X82955171Y-83750981D01*
X82908344Y-83716865D01*
X82868313Y-83687506D01*
X82837307Y-83664532D01*
X82817556Y-83649575D01*
X82815946Y-83648316D01*
X82786783Y-83626073D01*
X82757078Y-83604528D01*
X82739905Y-83592765D01*
X82713704Y-83575049D01*
X82677117Y-83549597D01*
X82633390Y-83518724D01*
X82585765Y-83484744D01*
X82537485Y-83449969D01*
X82491795Y-83416717D01*
X82452211Y-83387503D01*
X82413442Y-83358658D01*
X82371147Y-83327264D01*
X82332522Y-83298661D01*
X82320444Y-83289738D01*
X82254700Y-83240895D01*
X82177184Y-83182758D01*
X82089433Y-83116499D01*
X81992986Y-83043292D01*
X81889380Y-82964307D01*
X81780154Y-82880719D01*
X81666845Y-82793699D01*
X81550992Y-82704420D01*
X81434372Y-82614238D01*
X81342019Y-82542489D01*
X81262807Y-82480485D01*
X81196293Y-82427866D01*
X81142033Y-82384268D01*
X81099585Y-82349337D01*
X81068504Y-82322704D01*
X81048347Y-82304008D01*
X81038671Y-82292888D01*
X81037635Y-82290460D01*
X81040384Y-82276404D01*
X81054446Y-82263147D01*
X81071445Y-82253198D01*
X81092291Y-82240588D01*
X81104817Y-82229958D01*
X81106530Y-82226308D01*
X81112836Y-82218722D01*
X81130543Y-82204886D01*
X81156478Y-82187173D01*
X81171854Y-82177410D01*
X81206108Y-82155093D01*
X81229708Y-82136201D01*
X81247080Y-82116456D01*
X81262652Y-82091587D01*
X81264840Y-82087640D01*
X81284912Y-82053976D01*
X81309627Y-82016532D01*
X81328676Y-81990069D01*
X81354143Y-81956429D01*
X81381818Y-81919699D01*
X81400475Y-81894827D01*
X81435131Y-81848478D01*
X81579654Y-81964682D01*
G36*
X81579654Y-81964682D02*
G01*
X81625784Y-82001836D01*
X81681556Y-82046858D01*
X81743480Y-82096925D01*
X81808070Y-82149213D01*
X81871832Y-82200902D01*
X81927903Y-82246421D01*
X82134469Y-82413805D01*
X82329205Y-82570656D01*
X82511787Y-82716716D01*
X82623527Y-82805534D01*
X82668552Y-82841328D01*
X82723286Y-82885012D01*
X82785527Y-82934813D01*
X82853070Y-82988958D01*
X82923713Y-83045676D01*
X82995252Y-83103195D01*
X83065483Y-83159742D01*
X83132202Y-83213546D01*
X83193208Y-83262834D01*
X83246295Y-83305834D01*
X83289262Y-83340774D01*
X83303530Y-83352431D01*
X83373310Y-83409349D01*
X83446904Y-83468970D01*
X83526068Y-83532697D01*
X83612555Y-83601938D01*
X83708125Y-83678099D01*
X83814524Y-83762588D01*
X83866945Y-83804126D01*
X83937950Y-83860480D01*
X84014405Y-83921380D01*
X84093114Y-83984263D01*
X84170882Y-84046570D01*
X84244512Y-84105742D01*
X84310809Y-84159217D01*
X84359927Y-84199026D01*
X84419323Y-84247137D01*
X84488564Y-84302923D01*
X84564172Y-84363604D01*
X84642676Y-84426399D01*
X84720599Y-84488527D01*
X84794466Y-84547205D01*
X84835290Y-84579517D01*
X84892930Y-84625186D01*
X84946218Y-84667643D01*
X84993731Y-84705736D01*
X85034043Y-84738312D01*
X85065729Y-84764218D01*
X85087364Y-84782299D01*
X85097523Y-84791404D01*
X85098119Y-84792199D01*
X85091688Y-84799419D01*
X85073662Y-84812971D01*
X85047195Y-84830860D01*
X85015435Y-84851095D01*
X84981535Y-84871680D01*
X84948645Y-84890620D01*
X84919917Y-84905923D01*
X84913194Y-84909215D01*
X84884678Y-84924330D01*
X84860792Y-84939643D01*
X84848767Y-84949799D01*
X84833769Y-84963200D01*
X84809796Y-84980998D01*
X84786273Y-84996621D01*
X84759788Y-85014034D01*
X84738042Y-85029727D01*
X84726867Y-85039241D01*
X84718983Y-85044551D01*
X84708518Y-85042929D01*
X84692115Y-85032926D01*
X84666545Y-85013197D01*
X84640213Y-84992605D01*
X84604875Y-84965686D01*
X84565262Y-84936013D01*
X84528136Y-84908643D01*
X84486778Y-84878249D01*
X84443198Y-84845915D01*
X84402954Y-84815784D01*
X84375067Y-84794647D01*
X84350627Y-84776188D01*
X84315188Y-84749748D01*
X84271438Y-84717318D01*
X84222068Y-84680886D01*
X84169765Y-84642442D01*
X84129228Y-84612751D01*
X84076873Y-84574353D01*
X84025743Y-84536637D01*
X83978440Y-84501541D01*
X83937570Y-84471004D01*
X83905737Y-84446961D01*
X83888729Y-84433861D01*
X83858327Y-84410504D01*
X83819348Y-84381232D01*
X83777017Y-84349942D01*
X83739989Y-84322995D01*
X83700468Y-84294377D01*
X83660760Y-84265411D01*
X83625565Y-84239539D01*
X83600288Y-84220725D01*
X83562114Y-84192231D01*
X83512263Y-84155403D01*
X83452829Y-84111765D01*
X83385902Y-84062841D01*
X83313573Y-84010161D01*
X83237933Y-83955241D01*
X83161075Y-83899612D01*
X83085087Y-83844799D01*
X83060297Y-83826962D01*
X83006565Y-83788222D01*
X82955171Y-83750981D01*
X82908344Y-83716865D01*
X82868313Y-83687506D01*
X82837307Y-83664532D01*
X82817556Y-83649575D01*
X82815946Y-83648316D01*
X82786783Y-83626073D01*
X82757078Y-83604528D01*
X82739905Y-83592765D01*
X82713704Y-83575049D01*
X82677117Y-83549597D01*
X82633390Y-83518724D01*
X82585765Y-83484744D01*
X82537485Y-83449969D01*
X82491795Y-83416717D01*
X82452211Y-83387503D01*
X82413442Y-83358658D01*
X82371147Y-83327264D01*
X82332522Y-83298661D01*
X82320444Y-83289738D01*
X82254700Y-83240895D01*
X82177184Y-83182758D01*
X82089433Y-83116499D01*
X81992986Y-83043292D01*
X81889380Y-82964307D01*
X81780154Y-82880719D01*
X81666845Y-82793699D01*
X81550992Y-82704420D01*
X81434372Y-82614238D01*
X81342019Y-82542489D01*
X81262807Y-82480485D01*
X81196293Y-82427866D01*
X81142033Y-82384268D01*
X81099585Y-82349337D01*
X81068504Y-82322704D01*
X81048347Y-82304008D01*
X81038671Y-82292888D01*
X81037635Y-82290460D01*
X81040384Y-82276404D01*
X81054446Y-82263147D01*
X81071445Y-82253198D01*
X81092291Y-82240588D01*
X81104817Y-82229958D01*
X81106530Y-82226308D01*
X81112836Y-82218722D01*
X81130543Y-82204886D01*
X81156478Y-82187173D01*
X81171854Y-82177410D01*
X81206108Y-82155093D01*
X81229708Y-82136201D01*
X81247080Y-82116456D01*
X81262652Y-82091587D01*
X81264840Y-82087640D01*
X81284912Y-82053976D01*
X81309627Y-82016532D01*
X81328676Y-81990069D01*
X81354143Y-81956429D01*
X81381818Y-81919699D01*
X81400475Y-81894827D01*
X81435131Y-81848478D01*
X81579654Y-81964682D01*
G37*
X86037962Y-86020330D02*
X86100837Y-86044619D01*
X86150567Y-86064163D01*
X86189893Y-86080080D01*
X86221552Y-86093490D01*
X86248285Y-86105514D01*
X86261625Y-86111819D01*
X86287135Y-86124089D01*
X86322619Y-86141176D01*
X86362799Y-86160537D01*
X86392077Y-86174652D01*
X86433899Y-86194251D01*
X86476544Y-86213278D01*
X86514062Y-86229124D01*
X86533703Y-86236785D01*
X86563380Y-86248353D01*
X86588009Y-86259148D01*
X86601298Y-86266251D01*
X86616743Y-86274381D01*
X86641901Y-86285095D01*
X86662654Y-86292923D01*
X86694892Y-86306043D01*
X86725603Y-86321154D01*
X86739648Y-86329472D01*
X86767315Y-86343885D01*
X86799835Y-86355636D01*
X86808748Y-86357907D01*
X86842095Y-86363115D01*
X86882996Y-86366191D01*
X86928107Y-86367275D01*
X86974082Y-86366510D01*
X87017577Y-86364037D01*
X87055246Y-86360000D01*
X87083743Y-86354539D01*
X87099722Y-86347796D01*
X87101610Y-86345472D01*
X87111061Y-86343339D01*
X87130829Y-86350124D01*
X87157757Y-86364483D01*
X87179564Y-86378591D01*
X87199218Y-86391396D01*
X87216679Y-86402037D01*
X87267520Y-86431227D01*
X87311004Y-86454266D01*
X87351499Y-86472913D01*
X87393376Y-86488925D01*
X87441003Y-86504059D01*
X87498747Y-86520073D01*
X87531159Y-86528541D01*
X87589997Y-86544849D01*
X87648121Y-86562983D01*
X87701756Y-86581620D01*
X87747127Y-86599432D01*
X87780461Y-86615097D01*
X87785068Y-86617688D01*
X87816069Y-86629210D01*
X87861362Y-86635695D01*
X87921375Y-86637144D01*
X87996532Y-86633562D01*
X88087260Y-86624951D01*
X88128994Y-86619978D01*
X88246748Y-86607966D01*
X88352008Y-86603199D01*
X88447563Y-86605618D01*
X88516182Y-86612329D01*
X88600346Y-86624244D01*
X88687039Y-86638047D01*
X88772904Y-86653101D01*
X88854591Y-86668771D01*
X88928747Y-86684420D01*
X88992018Y-86699411D01*
X89031481Y-86710185D01*
X89053262Y-86716289D01*
X89084607Y-86724649D01*
X89117961Y-86733257D01*
X89167343Y-86746712D01*
X89219157Y-86762449D01*
X89270651Y-86779455D01*
X89319070Y-86796716D01*
X89361655Y-86813220D01*
X89395657Y-86827951D01*
X89418318Y-86839897D01*
X89426424Y-86846755D01*
X89436932Y-86852167D01*
X89439886Y-86852183D01*
X89455141Y-86856713D01*
X89477038Y-86869612D01*
X89500360Y-86887164D01*
X89519888Y-86905650D01*
X89526429Y-86913830D01*
X89538126Y-86936432D01*
X89543560Y-86955483D01*
X89541339Y-86980252D01*
X89530937Y-87016821D01*
X89513403Y-87062789D01*
X89489784Y-87115758D01*
X89461130Y-87173332D01*
X89428488Y-87233107D01*
X89404307Y-87274186D01*
X89385890Y-87304639D01*
X89369769Y-87331515D01*
X89358870Y-87349932D01*
X89357414Y-87352451D01*
X89338375Y-87384700D01*
X89312515Y-87427120D01*
X89282333Y-87475746D01*
X89250327Y-87526609D01*
X89218994Y-87575742D01*
X89190832Y-87619179D01*
X89168338Y-87652952D01*
X89166825Y-87655167D01*
X89153133Y-87675450D01*
X89134830Y-87702937D01*
X89120914Y-87724025D01*
X89085248Y-87777863D01*
X89047318Y-87834346D01*
X89009760Y-87889602D01*
X88975210Y-87939761D01*
X88946303Y-87980955D01*
X88937920Y-87992658D01*
X88918641Y-88019430D01*
X88892335Y-88056042D01*
X88861825Y-88098563D01*
X88829932Y-88143061D01*
X88813704Y-88165720D01*
X88785231Y-88204878D01*
X88750101Y-88252203D01*
X88709668Y-88305948D01*
X88665288Y-88364370D01*
X88618318Y-88425724D01*
X88570112Y-88488265D01*
X88522025Y-88550248D01*
X88475414Y-88609928D01*
X88431633Y-88665563D01*
X88392038Y-88715405D01*
X88357985Y-88757711D01*
X88330828Y-88790736D01*
X88311923Y-88812734D01*
X88306658Y-88818380D01*
X88280437Y-88845637D01*
X88253342Y-88874664D01*
X88241145Y-88888105D01*
X88223473Y-88907058D01*
X88210378Y-88919587D01*
X88206171Y-88922459D01*
X88197878Y-88928717D01*
X88183522Y-88943274D01*
X88179428Y-88947812D01*
X88153453Y-88973611D01*
X88123270Y-88998327D01*
X88093338Y-89018775D01*
X88068115Y-89031770D01*
X88058022Y-89034566D01*
X88035889Y-89031129D01*
X88017170Y-89020469D01*
X88000874Y-89004452D01*
X87979793Y-88981393D01*
X87956838Y-88954795D01*
X87934921Y-88928160D01*
X87916952Y-88904987D01*
X87905843Y-88888780D01*
X87903694Y-88883976D01*
X87898148Y-88875580D01*
X87896190Y-88875382D01*
X87888125Y-88869360D01*
X87876568Y-88853552D01*
X87874602Y-88850309D01*
X87862952Y-88832059D01*
X87854479Y-88821400D01*
X87853803Y-88820874D01*
X87845152Y-88810800D01*
X87829264Y-88787766D01*
X87807242Y-88753546D01*
X87780194Y-88709915D01*
X87749227Y-88658645D01*
X87715446Y-88601512D01*
X87693245Y-88563356D01*
X87662177Y-88507866D01*
X87628357Y-88444406D01*
X87593130Y-88375774D01*
X87557842Y-88304772D01*
X87523839Y-88234196D01*
X87492466Y-88166849D01*
X87465070Y-88105529D01*
X87442997Y-88053035D01*
X87427592Y-88012169D01*
X87426057Y-88007575D01*
X87414805Y-87973137D01*
X87404628Y-87941927D01*
X87397453Y-87919854D01*
X87396643Y-87917353D01*
X87392666Y-87901705D01*
X87386190Y-87872354D01*
X87377827Y-87832239D01*
X87368189Y-87784303D01*
X87357883Y-87731487D01*
X87355830Y-87720773D01*
X87342026Y-87650361D01*
X87330137Y-87594667D01*
X87319477Y-87551673D01*
X87309360Y-87519364D01*
X87299104Y-87495723D01*
X87288020Y-87478738D01*
X87275425Y-87466387D01*
X87267469Y-87460753D01*
X87251668Y-87448112D01*
X87234722Y-87429105D01*
X87215801Y-87402312D01*
X87194074Y-87366314D01*
X87168711Y-87319692D01*
X87138881Y-87261027D01*
X87103755Y-87188899D01*
X87083319Y-87146023D01*
X87054414Y-87085042D01*
X87031640Y-87037112D01*
X87013873Y-86999981D01*
X86999986Y-86971400D01*
X86988855Y-86949121D01*
X86979354Y-86930893D01*
X86970357Y-86914467D01*
X86960739Y-86897593D01*
X86949374Y-86878021D01*
X86948350Y-86876260D01*
X86927863Y-86844825D01*
X86899600Y-86806530D01*
X86866421Y-86764763D01*
X86831185Y-86722909D01*
X86796754Y-86684356D01*
X86765988Y-86652489D01*
X86741749Y-86630698D01*
X86739444Y-86628942D01*
X86731174Y-86621353D01*
X86715030Y-86605622D01*
X86700709Y-86591367D01*
X86674088Y-86565918D01*
X86645436Y-86540363D01*
X86633755Y-86530588D01*
X86615172Y-86515456D01*
X86586899Y-86492337D01*
X86552321Y-86464007D01*
X86514824Y-86433236D01*
X86502059Y-86422750D01*
X86470382Y-86396945D01*
X86427987Y-86362745D01*
X86377463Y-86322220D01*
X86321402Y-86277442D01*
X86262393Y-86230485D01*
X86203029Y-86183418D01*
X86180452Y-86165568D01*
X85957387Y-85989361D01*
X86037962Y-86020330D01*
G36*
X86037962Y-86020330D02*
G01*
X86100837Y-86044619D01*
X86150567Y-86064163D01*
X86189893Y-86080080D01*
X86221552Y-86093490D01*
X86248285Y-86105514D01*
X86261625Y-86111819D01*
X86287135Y-86124089D01*
X86322619Y-86141176D01*
X86362799Y-86160537D01*
X86392077Y-86174652D01*
X86433899Y-86194251D01*
X86476544Y-86213278D01*
X86514062Y-86229124D01*
X86533703Y-86236785D01*
X86563380Y-86248353D01*
X86588009Y-86259148D01*
X86601298Y-86266251D01*
X86616743Y-86274381D01*
X86641901Y-86285095D01*
X86662654Y-86292923D01*
X86694892Y-86306043D01*
X86725603Y-86321154D01*
X86739648Y-86329472D01*
X86767315Y-86343885D01*
X86799835Y-86355636D01*
X86808748Y-86357907D01*
X86842095Y-86363115D01*
X86882996Y-86366191D01*
X86928107Y-86367275D01*
X86974082Y-86366510D01*
X87017577Y-86364037D01*
X87055246Y-86360000D01*
X87083743Y-86354539D01*
X87099722Y-86347796D01*
X87101610Y-86345472D01*
X87111061Y-86343339D01*
X87130829Y-86350124D01*
X87157757Y-86364483D01*
X87179564Y-86378591D01*
X87199218Y-86391396D01*
X87216679Y-86402037D01*
X87267520Y-86431227D01*
X87311004Y-86454266D01*
X87351499Y-86472913D01*
X87393376Y-86488925D01*
X87441003Y-86504059D01*
X87498747Y-86520073D01*
X87531159Y-86528541D01*
X87589997Y-86544849D01*
X87648121Y-86562983D01*
X87701756Y-86581620D01*
X87747127Y-86599432D01*
X87780461Y-86615097D01*
X87785068Y-86617688D01*
X87816069Y-86629210D01*
X87861362Y-86635695D01*
X87921375Y-86637144D01*
X87996532Y-86633562D01*
X88087260Y-86624951D01*
X88128994Y-86619978D01*
X88246748Y-86607966D01*
X88352008Y-86603199D01*
X88447563Y-86605618D01*
X88516182Y-86612329D01*
X88600346Y-86624244D01*
X88687039Y-86638047D01*
X88772904Y-86653101D01*
X88854591Y-86668771D01*
X88928747Y-86684420D01*
X88992018Y-86699411D01*
X89031481Y-86710185D01*
X89053262Y-86716289D01*
X89084607Y-86724649D01*
X89117961Y-86733257D01*
X89167343Y-86746712D01*
X89219157Y-86762449D01*
X89270651Y-86779455D01*
X89319070Y-86796716D01*
X89361655Y-86813220D01*
X89395657Y-86827951D01*
X89418318Y-86839897D01*
X89426424Y-86846755D01*
X89436932Y-86852167D01*
X89439886Y-86852183D01*
X89455141Y-86856713D01*
X89477038Y-86869612D01*
X89500360Y-86887164D01*
X89519888Y-86905650D01*
X89526429Y-86913830D01*
X89538126Y-86936432D01*
X89543560Y-86955483D01*
X89541339Y-86980252D01*
X89530937Y-87016821D01*
X89513403Y-87062789D01*
X89489784Y-87115758D01*
X89461130Y-87173332D01*
X89428488Y-87233107D01*
X89404307Y-87274186D01*
X89385890Y-87304639D01*
X89369769Y-87331515D01*
X89358870Y-87349932D01*
X89357414Y-87352451D01*
X89338375Y-87384700D01*
X89312515Y-87427120D01*
X89282333Y-87475746D01*
X89250327Y-87526609D01*
X89218994Y-87575742D01*
X89190832Y-87619179D01*
X89168338Y-87652952D01*
X89166825Y-87655167D01*
X89153133Y-87675450D01*
X89134830Y-87702937D01*
X89120914Y-87724025D01*
X89085248Y-87777863D01*
X89047318Y-87834346D01*
X89009760Y-87889602D01*
X88975210Y-87939761D01*
X88946303Y-87980955D01*
X88937920Y-87992658D01*
X88918641Y-88019430D01*
X88892335Y-88056042D01*
X88861825Y-88098563D01*
X88829932Y-88143061D01*
X88813704Y-88165720D01*
X88785231Y-88204878D01*
X88750101Y-88252203D01*
X88709668Y-88305948D01*
X88665288Y-88364370D01*
X88618318Y-88425724D01*
X88570112Y-88488265D01*
X88522025Y-88550248D01*
X88475414Y-88609928D01*
X88431633Y-88665563D01*
X88392038Y-88715405D01*
X88357985Y-88757711D01*
X88330828Y-88790736D01*
X88311923Y-88812734D01*
X88306658Y-88818380D01*
X88280437Y-88845637D01*
X88253342Y-88874664D01*
X88241145Y-88888105D01*
X88223473Y-88907058D01*
X88210378Y-88919587D01*
X88206171Y-88922459D01*
X88197878Y-88928717D01*
X88183522Y-88943274D01*
X88179428Y-88947812D01*
X88153453Y-88973611D01*
X88123270Y-88998327D01*
X88093338Y-89018775D01*
X88068115Y-89031770D01*
X88058022Y-89034566D01*
X88035889Y-89031129D01*
X88017170Y-89020469D01*
X88000874Y-89004452D01*
X87979793Y-88981393D01*
X87956838Y-88954795D01*
X87934921Y-88928160D01*
X87916952Y-88904987D01*
X87905843Y-88888780D01*
X87903694Y-88883976D01*
X87898148Y-88875580D01*
X87896190Y-88875382D01*
X87888125Y-88869360D01*
X87876568Y-88853552D01*
X87874602Y-88850309D01*
X87862952Y-88832059D01*
X87854479Y-88821400D01*
X87853803Y-88820874D01*
X87845152Y-88810800D01*
X87829264Y-88787766D01*
X87807242Y-88753546D01*
X87780194Y-88709915D01*
X87749227Y-88658645D01*
X87715446Y-88601512D01*
X87693245Y-88563356D01*
X87662177Y-88507866D01*
X87628357Y-88444406D01*
X87593130Y-88375774D01*
X87557842Y-88304772D01*
X87523839Y-88234196D01*
X87492466Y-88166849D01*
X87465070Y-88105529D01*
X87442997Y-88053035D01*
X87427592Y-88012169D01*
X87426057Y-88007575D01*
X87414805Y-87973137D01*
X87404628Y-87941927D01*
X87397453Y-87919854D01*
X87396643Y-87917353D01*
X87392666Y-87901705D01*
X87386190Y-87872354D01*
X87377827Y-87832239D01*
X87368189Y-87784303D01*
X87357883Y-87731487D01*
X87355830Y-87720773D01*
X87342026Y-87650361D01*
X87330137Y-87594667D01*
X87319477Y-87551673D01*
X87309360Y-87519364D01*
X87299104Y-87495723D01*
X87288020Y-87478738D01*
X87275425Y-87466387D01*
X87267469Y-87460753D01*
X87251668Y-87448112D01*
X87234722Y-87429105D01*
X87215801Y-87402312D01*
X87194074Y-87366314D01*
X87168711Y-87319692D01*
X87138881Y-87261027D01*
X87103755Y-87188899D01*
X87083319Y-87146023D01*
X87054414Y-87085042D01*
X87031640Y-87037112D01*
X87013873Y-86999981D01*
X86999986Y-86971400D01*
X86988855Y-86949121D01*
X86979354Y-86930893D01*
X86970357Y-86914467D01*
X86960739Y-86897593D01*
X86949374Y-86878021D01*
X86948350Y-86876260D01*
X86927863Y-86844825D01*
X86899600Y-86806530D01*
X86866421Y-86764763D01*
X86831185Y-86722909D01*
X86796754Y-86684356D01*
X86765988Y-86652489D01*
X86741749Y-86630698D01*
X86739444Y-86628942D01*
X86731174Y-86621353D01*
X86715030Y-86605622D01*
X86700709Y-86591367D01*
X86674088Y-86565918D01*
X86645436Y-86540363D01*
X86633755Y-86530588D01*
X86615172Y-86515456D01*
X86586899Y-86492337D01*
X86552321Y-86464007D01*
X86514824Y-86433236D01*
X86502059Y-86422750D01*
X86470382Y-86396945D01*
X86427987Y-86362745D01*
X86377463Y-86322220D01*
X86321402Y-86277442D01*
X86262393Y-86230485D01*
X86203029Y-86183418D01*
X86180452Y-86165568D01*
X85957387Y-85989361D01*
X86037962Y-86020330D01*
G37*
X90234922Y-87233675D02*
X90293936Y-87252149D01*
X90363001Y-87279698D01*
X90370408Y-87282939D01*
X90408714Y-87300564D01*
X90451928Y-87321628D01*
X90495763Y-87343916D01*
X90535936Y-87365217D01*
X90568157Y-87383319D01*
X90584338Y-87393338D01*
X90598981Y-87399568D01*
X90603625Y-87399897D01*
X90614628Y-87403981D01*
X90615258Y-87404867D01*
X90624178Y-87411911D01*
X90644479Y-87424849D01*
X90672601Y-87441601D01*
X90704983Y-87460089D01*
X90738067Y-87478236D01*
X90765330Y-87492472D01*
X90791243Y-87506276D01*
X90822971Y-87524206D01*
X90857181Y-87544245D01*
X90890541Y-87564380D01*
X90919717Y-87582591D01*
X90941378Y-87596863D01*
X90952191Y-87605179D01*
X90952712Y-87605858D01*
X90963120Y-87611624D01*
X90963947Y-87611563D01*
X90974238Y-87615184D01*
X90995161Y-87625648D01*
X91022888Y-87640989D01*
X91034415Y-87647694D01*
X91067796Y-87667307D01*
X91099638Y-87685920D01*
X91124079Y-87700106D01*
X91127930Y-87702321D01*
X91148793Y-87714361D01*
X91179753Y-87732315D01*
X91216290Y-87753550D01*
X91253881Y-87775439D01*
X91288005Y-87795349D01*
X91314141Y-87810650D01*
X91316387Y-87811970D01*
X91323358Y-87816018D01*
X91332652Y-87821289D01*
X91346006Y-87828737D01*
X91365151Y-87839319D01*
X91391823Y-87853989D01*
X91427754Y-87873703D01*
X91474680Y-87899416D01*
X91534336Y-87932083D01*
X91549802Y-87940550D01*
X91591882Y-87963699D01*
X91636443Y-87988400D01*
X91676650Y-88010853D01*
X91694137Y-88020703D01*
X91722222Y-88036275D01*
X91761448Y-88057585D01*
X91807939Y-88082549D01*
X91857816Y-88109083D01*
X91897081Y-88129791D01*
X91942041Y-88153447D01*
X91982093Y-88174603D01*
X92014720Y-88191923D01*
X92037403Y-88204068D01*
X92047620Y-88209703D01*
X92047643Y-88209716D01*
X92068631Y-88221796D01*
X92100943Y-88239363D01*
X92140720Y-88260409D01*
X92184103Y-88282924D01*
X92227233Y-88304900D01*
X92266250Y-88324330D01*
X92289124Y-88335375D01*
X92348573Y-88363769D01*
X92403937Y-88390669D01*
X92453268Y-88415091D01*
X92494620Y-88436050D01*
X92526046Y-88452563D01*
X92545598Y-88463647D01*
X92551350Y-88467884D01*
X92561758Y-88472664D01*
X92566144Y-88472588D01*
X92578826Y-88475203D01*
X92580950Y-88477382D01*
X92589690Y-88483399D01*
X92610352Y-88494664D01*
X92639476Y-88509347D01*
X92661529Y-88519964D01*
X92704311Y-88540386D01*
X92749646Y-88562340D01*
X92794844Y-88584488D01*
X92837222Y-88605495D01*
X92874094Y-88624023D01*
X92902774Y-88638737D01*
X92920577Y-88648300D01*
X92925006Y-88651085D01*
X92933975Y-88656196D01*
X92955336Y-88667207D01*
X92986224Y-88682672D01*
X93023774Y-88701147D01*
X93038672Y-88708402D01*
X93076025Y-88726543D01*
X93105520Y-88740920D01*
X93130132Y-88753062D01*
X93152839Y-88764497D01*
X93176614Y-88776754D01*
X93204435Y-88791360D01*
X93239277Y-88809845D01*
X93284117Y-88833736D01*
X93320908Y-88853356D01*
X93363121Y-88876128D01*
X93399889Y-88896465D01*
X93428687Y-88912928D01*
X93446991Y-88924080D01*
X93452361Y-88928173D01*
X93462817Y-88933895D01*
X93464437Y-88933819D01*
X93474831Y-88937473D01*
X93495640Y-88947912D01*
X93522936Y-88962921D01*
X93552791Y-88980286D01*
X93581276Y-88997790D01*
X93601108Y-89010870D01*
X93617127Y-89021508D01*
X93640980Y-89036853D01*
X93656565Y-89046712D01*
X93693018Y-89071446D01*
X93735608Y-89103213D01*
X93780438Y-89138812D01*
X93823606Y-89175047D01*
X93861215Y-89208719D01*
X93889365Y-89236630D01*
X93892910Y-89240550D01*
X93947387Y-89309212D01*
X93987853Y-89375739D01*
X94013736Y-89438968D01*
X94024475Y-89497732D01*
X94024714Y-89512209D01*
X94024009Y-89543712D01*
X94023274Y-89573599D01*
X94023088Y-89580529D01*
X94019713Y-89612680D01*
X94011969Y-89654286D01*
X94001325Y-89699357D01*
X93989249Y-89741893D01*
X93977208Y-89775904D01*
X93972931Y-89785378D01*
X93949292Y-89823368D01*
X93921239Y-89847627D01*
X93884658Y-89860817D01*
X93850017Y-89865000D01*
X93810346Y-89864800D01*
X93771950Y-89858246D01*
X93729818Y-89845099D01*
X93689998Y-89829562D01*
X93644610Y-89809824D01*
X93599604Y-89788641D01*
X93560928Y-89768773D01*
X93542933Y-89758445D01*
X93532660Y-89752157D01*
X93510843Y-89738813D01*
X93480384Y-89720189D01*
X93444186Y-89698059D01*
X93432259Y-89690767D01*
X93394367Y-89667595D01*
X93360825Y-89647067D01*
X93334704Y-89631064D01*
X93319078Y-89621468D01*
X93316962Y-89620161D01*
X93281060Y-89598669D01*
X93238268Y-89574262D01*
X93191953Y-89548734D01*
X93145479Y-89523865D01*
X93102213Y-89501456D01*
X93065522Y-89483292D01*
X93038771Y-89471165D01*
X93031721Y-89468444D01*
X93025453Y-89468445D01*
X93031151Y-89476456D01*
X93046789Y-89490941D01*
X93070341Y-89510368D01*
X93099784Y-89533203D01*
X93133094Y-89557913D01*
X93168245Y-89582965D01*
X93203213Y-89606824D01*
X93235974Y-89627959D01*
X93264503Y-89644834D01*
X93264827Y-89645012D01*
X93288316Y-89658510D01*
X93324541Y-89680053D01*
X93371898Y-89708681D01*
X93416474Y-89735886D01*
X93432656Y-89745179D01*
X93455724Y-89757769D01*
X93462237Y-89761233D01*
X93483105Y-89772741D01*
X93496934Y-89781249D01*
X93499015Y-89782874D01*
X93508281Y-89788605D01*
X93528984Y-89799919D01*
X93557422Y-89814817D01*
X93572102Y-89822333D01*
X93611640Y-89843030D01*
X93655258Y-89866818D01*
X93698135Y-89890979D01*
X93735452Y-89912799D01*
X93761869Y-89929222D01*
X93777022Y-89935285D01*
X93781837Y-89935537D01*
X93790927Y-89939666D01*
X93791453Y-89941445D01*
X93799112Y-89949280D01*
X93814224Y-89956909D01*
X93832563Y-89966905D01*
X93841872Y-89976175D01*
X93838500Y-89985725D01*
X93825798Y-90006835D01*
X93805020Y-90037838D01*
X93777413Y-90077077D01*
X93744239Y-90122889D01*
X93706749Y-90173615D01*
X93666196Y-90227593D01*
X93623835Y-90283162D01*
X93580919Y-90338661D01*
X93538702Y-90392430D01*
X93498438Y-90442808D01*
X93461379Y-90488133D01*
X93428782Y-90526745D01*
X93410819Y-90547191D01*
X93382312Y-90580191D01*
X93362547Y-90607834D01*
X93350246Y-90634370D01*
X93344131Y-90664051D01*
X93342925Y-90701128D01*
X93345350Y-90749853D01*
X93346215Y-90762155D01*
X93349351Y-90816524D01*
X93349167Y-90856362D01*
X93344764Y-90883893D01*
X93335248Y-90901343D01*
X93319721Y-90910940D01*
X93297287Y-90914911D01*
X93284496Y-90915458D01*
X93244029Y-90911433D01*
X93192953Y-90897693D01*
X93160246Y-90886053D01*
X93097022Y-90861634D01*
X93049440Y-90842324D01*
X93017057Y-90827932D01*
X92999433Y-90818269D01*
X92995927Y-90815002D01*
X92985535Y-90809617D01*
X92984523Y-90809688D01*
X92973409Y-90806471D01*
X92952484Y-90797153D01*
X92931463Y-90786468D01*
X92907636Y-90773790D01*
X92879915Y-90759141D01*
X92845736Y-90741173D01*
X92802534Y-90718537D01*
X92747744Y-90689889D01*
X92726114Y-90678589D01*
X92695868Y-90662161D01*
X92654265Y-90638676D01*
X92604381Y-90609935D01*
X92549293Y-90577736D01*
X92492073Y-90543880D01*
X92435800Y-90510169D01*
X92383547Y-90478401D01*
X92371837Y-90471198D01*
X92334945Y-90448044D01*
X92291867Y-90420345D01*
X92244642Y-90389483D01*
X92195316Y-90356841D01*
X92145927Y-90323796D01*
X92098518Y-90291733D01*
X92055135Y-90262029D01*
X92017814Y-90236066D01*
X91988598Y-90215223D01*
X91969532Y-90200890D01*
X91962659Y-90194480D01*
X91955342Y-90186965D01*
X91938789Y-90176145D01*
X91936813Y-90175030D01*
X91911923Y-90161182D01*
X91934382Y-90183858D01*
X91947946Y-90196345D01*
X91972126Y-90217401D01*
X92004415Y-90244892D01*
X92042308Y-90276685D01*
X92083071Y-90310459D01*
X92124487Y-90344758D01*
X92163208Y-90377201D01*
X92196610Y-90405560D01*
X92222068Y-90427606D01*
X92236713Y-90440874D01*
X92254818Y-90457510D01*
X92281826Y-90481293D01*
X92313579Y-90508593D01*
X92335992Y-90527508D01*
X92398371Y-90580714D01*
X92469174Y-90642843D01*
X92544938Y-90710774D01*
X92622189Y-90781387D01*
X92697452Y-90851560D01*
X92715303Y-90868434D01*
X92740870Y-90892671D01*
X92759152Y-90909973D01*
X92774588Y-90924523D01*
X92791618Y-90940503D01*
X92814685Y-90962092D01*
X92827406Y-90973993D01*
X92870400Y-91016362D01*
X92908334Y-91057883D01*
X92938961Y-91095846D01*
X92960033Y-91127542D01*
X92967250Y-91142682D01*
X92972962Y-91174817D01*
X92971738Y-91214145D01*
X92964443Y-91252880D01*
X92951944Y-91283243D01*
X92951530Y-91283894D01*
X92922955Y-91327551D01*
X92899381Y-91361716D01*
X92877045Y-91391389D01*
X92852188Y-91421569D01*
X92821568Y-91456670D01*
X92747091Y-91536639D01*
X92669216Y-91612675D01*
X92590297Y-91682816D01*
X92512687Y-91745100D01*
X92438741Y-91797563D01*
X92370812Y-91838246D01*
X92352600Y-91847548D01*
X92254599Y-91888982D01*
X92160947Y-91914919D01*
X92069574Y-91925530D01*
X91978405Y-91920989D01*
X91885368Y-91901466D01*
X91846888Y-91889406D01*
X91811073Y-91877194D01*
X91780960Y-91866953D01*
X91760328Y-91859964D01*
X91753423Y-91857654D01*
X91751927Y-91858769D01*
X91757949Y-91866042D01*
X91772680Y-91880638D01*
X91797306Y-91903712D01*
X91833015Y-91936429D01*
X91848395Y-91950409D01*
X91871047Y-91971567D01*
X91889356Y-91989733D01*
X91898160Y-91999529D01*
X91909213Y-92010762D01*
X91931110Y-92030328D01*
X91961353Y-92056132D01*
X91997448Y-92086074D01*
X92036901Y-92118057D01*
X92075705Y-92148803D01*
X92114962Y-92180357D01*
X92154415Y-92213546D01*
X92191838Y-92246328D01*
X92225002Y-92276665D01*
X92251675Y-92302516D01*
X92269630Y-92321843D01*
X92276637Y-92332605D01*
X92276643Y-92332644D01*
X92276328Y-92344876D01*
X92274765Y-92346977D01*
X92265700Y-92349612D01*
X92244149Y-92356358D01*
X92213719Y-92366076D01*
X92190591Y-92373545D01*
X92151273Y-92386123D01*
X92113526Y-92397910D01*
X92083191Y-92407091D01*
X92072892Y-92410065D01*
X92021335Y-92426540D01*
X91961720Y-92448825D01*
X91900670Y-92474289D01*
X91844807Y-92500302D01*
X91841088Y-92502163D01*
X91776818Y-92534505D01*
X91603145Y-92752678D01*
X91429472Y-92970853D01*
X91374826Y-92977690D01*
X91320179Y-92984531D01*
X91286117Y-92949961D01*
X91262389Y-92926166D01*
X91232835Y-92896928D01*
X91203829Y-92868552D01*
X91203658Y-92868386D01*
X91179960Y-92845258D01*
X91160722Y-92826276D01*
X91149415Y-92814869D01*
X91148323Y-92813702D01*
X91138446Y-92803873D01*
X91120824Y-92787195D01*
X91108660Y-92775920D01*
X91085304Y-92753718D01*
X91057083Y-92725804D01*
X91026332Y-92694622D01*
X90995383Y-92662613D01*
X90966568Y-92632215D01*
X90942222Y-92605877D01*
X90924675Y-92586034D01*
X90916262Y-92575128D01*
X90915863Y-92574138D01*
X90908563Y-92564833D01*
X90907795Y-92564580D01*
X90898812Y-92557575D01*
X90882774Y-92541402D01*
X90867131Y-92524078D01*
X90848328Y-92502993D01*
X90833742Y-92487598D01*
X90827576Y-92482019D01*
X90819659Y-92474229D01*
X90803027Y-92455771D01*
X90779550Y-92428872D01*
X90751101Y-92395756D01*
X90719550Y-92358647D01*
X90686770Y-92319771D01*
X90654635Y-92281353D01*
X90625013Y-92245618D01*
X90599778Y-92214791D01*
X90580801Y-92191095D01*
X90569954Y-92176756D01*
X90568130Y-92173641D01*
X90561457Y-92164016D01*
X90560507Y-92163648D01*
X90549639Y-92155647D01*
X90534185Y-92139695D01*
X90519149Y-92121560D01*
X90509539Y-92107008D01*
X90508346Y-92103578D01*
X90501819Y-92095811D01*
X90499848Y-92095746D01*
X90490447Y-92089964D01*
X90485670Y-92082559D01*
X90477453Y-92070025D01*
X90461146Y-92048350D01*
X90439625Y-92021296D01*
X90428588Y-92007867D01*
X90406473Y-91980570D01*
X90389085Y-91957840D01*
X90378916Y-91942995D01*
X90377309Y-91939523D01*
X90370309Y-91932650D01*
X90368934Y-91932685D01*
X90359361Y-91926967D01*
X90354314Y-91919552D01*
X90346360Y-91906259D01*
X90333256Y-91888298D01*
X90312827Y-91862835D01*
X90289333Y-91834654D01*
X90268812Y-91809750D01*
X90241897Y-91776371D01*
X90211879Y-91738673D01*
X90182045Y-91700811D01*
X90155683Y-91666943D01*
X90136083Y-91641222D01*
X90133297Y-91637468D01*
X90099264Y-91591622D01*
X90074720Y-91559365D01*
X90059747Y-91540804D01*
X90055224Y-91536161D01*
X90050801Y-91531995D01*
X90043245Y-91522800D01*
X90030686Y-91506122D01*
X90011255Y-91479510D01*
X89996255Y-91458771D01*
X89976525Y-91431797D01*
X89952684Y-91399682D01*
X89936090Y-91377594D01*
X89918725Y-91354221D01*
X89906250Y-91336641D01*
X89901389Y-91328707D01*
X89896179Y-91320846D01*
X89882996Y-91303812D01*
X89865890Y-91282751D01*
X89847795Y-91260251D01*
X89834907Y-91243026D01*
X89830194Y-91235190D01*
X89824692Y-91226356D01*
X89811341Y-91209519D01*
X89801323Y-91197807D01*
X89787510Y-91181343D01*
X89765400Y-91154165D01*
X89737095Y-91118929D01*
X89704693Y-91078288D01*
X89670296Y-91034894D01*
X89636004Y-90991404D01*
X89603915Y-90950472D01*
X89576131Y-90914748D01*
X89554750Y-90886890D01*
X89544908Y-90873749D01*
X89528797Y-90853025D01*
X89514811Y-90837010D01*
X89512821Y-90835037D01*
X89504104Y-90825292D01*
X89486526Y-90804459D01*
X89461834Y-90774654D01*
X89431776Y-90737989D01*
X89398097Y-90696577D01*
X89386106Y-90681759D01*
X89344401Y-90630153D01*
X89311714Y-90589733D01*
X89286413Y-90558524D01*
X89266864Y-90534549D01*
X89251433Y-90515832D01*
X89238485Y-90500397D01*
X89226387Y-90486267D01*
X89213506Y-90471467D01*
X89198208Y-90454021D01*
X89191697Y-90446600D01*
X89168884Y-90420390D01*
X89150303Y-90398659D01*
X89138848Y-90384808D01*
X89136870Y-90382178D01*
X89127125Y-90369382D01*
X89112400Y-90351724D01*
X89097645Y-90334967D01*
X89087816Y-90324867D01*
X89087114Y-90324311D01*
X89076889Y-90314182D01*
X89059986Y-90294782D01*
X89039914Y-90270363D01*
X89020177Y-90245181D01*
X89005713Y-90225545D01*
X88993877Y-90212481D01*
X88986252Y-90208741D01*
X88978569Y-90203198D01*
X88978204Y-90201524D01*
X88972435Y-90192219D01*
X88957634Y-90173460D01*
X88936246Y-90148246D01*
X88917941Y-90127561D01*
X88893421Y-90099964D01*
X88873735Y-90077152D01*
X88861278Y-90061944D01*
X88858126Y-90057243D01*
X88852405Y-90048958D01*
X88838765Y-90033642D01*
X88833190Y-90027832D01*
X88817803Y-90011135D01*
X88808967Y-89999716D01*
X88808195Y-89997953D01*
X88802801Y-89989512D01*
X88789203Y-89971997D01*
X88770291Y-89949123D01*
X88769401Y-89948075D01*
X88746424Y-89920398D01*
X88724914Y-89893446D01*
X88711464Y-89875681D01*
X88697700Y-89857356D01*
X88687994Y-89845847D01*
X88686621Y-89844610D01*
X88678867Y-89836369D01*
X88663500Y-89818258D01*
X88643336Y-89793749D01*
X88621191Y-89766309D01*
X88599880Y-89739412D01*
X88582221Y-89716526D01*
X88576961Y-89709476D01*
X88537459Y-89653946D01*
X88508950Y-89609651D01*
X88490787Y-89575528D01*
X88483444Y-89555516D01*
X88480564Y-89541460D01*
X88480887Y-89528288D01*
X88485673Y-89512828D01*
X88496184Y-89491912D01*
X88513676Y-89462371D01*
X88532499Y-89432065D01*
X88556237Y-89394325D01*
X88578533Y-89359221D01*
X88596890Y-89330661D01*
X88608814Y-89312551D01*
X88608857Y-89312487D01*
X88652122Y-89249092D01*
X88686521Y-89199114D01*
X88711846Y-89162858D01*
X88717480Y-89154929D01*
X88733847Y-89131322D01*
X88754417Y-89100709D01*
X88771588Y-89074551D01*
X88802613Y-89028066D01*
X88839478Y-88975004D01*
X88877996Y-88921249D01*
X88913978Y-88872685D01*
X88931224Y-88850251D01*
X88949767Y-88825874D01*
X88974605Y-88792268D01*
X89002328Y-88754085D01*
X89026623Y-88720082D01*
X89054524Y-88680974D01*
X89082990Y-88641557D01*
X89108425Y-88606787D01*
X89125121Y-88584393D01*
X89140226Y-88564300D01*
X89163582Y-88533030D01*
X89193376Y-88493021D01*
X89227791Y-88446714D01*
X89265015Y-88396547D01*
X89297037Y-88353325D01*
X89337365Y-88299039D01*
X89378432Y-88244083D01*
X89417943Y-88191509D01*
X89453601Y-88144364D01*
X89483110Y-88105698D01*
X89498733Y-88085495D01*
X89523498Y-88053344D01*
X89555758Y-88010840D01*
X89593024Y-87961301D01*
X89632800Y-87908047D01*
X89672597Y-87854395D01*
X89689276Y-87831783D01*
X89727419Y-87780131D01*
X89765783Y-87728467D01*
X89802091Y-87679835D01*
X89834066Y-87637279D01*
X89859433Y-87603846D01*
X89868787Y-87591682D01*
X89895055Y-87557375D01*
X89920377Y-87523623D01*
X89941074Y-87495362D01*
X89949580Y-87483330D01*
X89978062Y-87442273D01*
X90008175Y-87399310D01*
X90038219Y-87356816D01*
X90066495Y-87317166D01*
X90091302Y-87282739D01*
X90110941Y-87255909D01*
X90123712Y-87239053D01*
X90127532Y-87234565D01*
X90150783Y-87224696D01*
X90186892Y-87224462D01*
X90234922Y-87233675D01*
G36*
X90234922Y-87233675D02*
G01*
X90293936Y-87252149D01*
X90363001Y-87279698D01*
X90370408Y-87282939D01*
X90408714Y-87300564D01*
X90451928Y-87321628D01*
X90495763Y-87343916D01*
X90535936Y-87365217D01*
X90568157Y-87383319D01*
X90584338Y-87393338D01*
X90598981Y-87399568D01*
X90603625Y-87399897D01*
X90614628Y-87403981D01*
X90615258Y-87404867D01*
X90624178Y-87411911D01*
X90644479Y-87424849D01*
X90672601Y-87441601D01*
X90704983Y-87460089D01*
X90738067Y-87478236D01*
X90765330Y-87492472D01*
X90791243Y-87506276D01*
X90822971Y-87524206D01*
X90857181Y-87544245D01*
X90890541Y-87564380D01*
X90919717Y-87582591D01*
X90941378Y-87596863D01*
X90952191Y-87605179D01*
X90952712Y-87605858D01*
X90963120Y-87611624D01*
X90963947Y-87611563D01*
X90974238Y-87615184D01*
X90995161Y-87625648D01*
X91022888Y-87640989D01*
X91034415Y-87647694D01*
X91067796Y-87667307D01*
X91099638Y-87685920D01*
X91124079Y-87700106D01*
X91127930Y-87702321D01*
X91148793Y-87714361D01*
X91179753Y-87732315D01*
X91216290Y-87753550D01*
X91253881Y-87775439D01*
X91288005Y-87795349D01*
X91314141Y-87810650D01*
X91316387Y-87811970D01*
X91323358Y-87816018D01*
X91332652Y-87821289D01*
X91346006Y-87828737D01*
X91365151Y-87839319D01*
X91391823Y-87853989D01*
X91427754Y-87873703D01*
X91474680Y-87899416D01*
X91534336Y-87932083D01*
X91549802Y-87940550D01*
X91591882Y-87963699D01*
X91636443Y-87988400D01*
X91676650Y-88010853D01*
X91694137Y-88020703D01*
X91722222Y-88036275D01*
X91761448Y-88057585D01*
X91807939Y-88082549D01*
X91857816Y-88109083D01*
X91897081Y-88129791D01*
X91942041Y-88153447D01*
X91982093Y-88174603D01*
X92014720Y-88191923D01*
X92037403Y-88204068D01*
X92047620Y-88209703D01*
X92047643Y-88209716D01*
X92068631Y-88221796D01*
X92100943Y-88239363D01*
X92140720Y-88260409D01*
X92184103Y-88282924D01*
X92227233Y-88304900D01*
X92266250Y-88324330D01*
X92289124Y-88335375D01*
X92348573Y-88363769D01*
X92403937Y-88390669D01*
X92453268Y-88415091D01*
X92494620Y-88436050D01*
X92526046Y-88452563D01*
X92545598Y-88463647D01*
X92551350Y-88467884D01*
X92561758Y-88472664D01*
X92566144Y-88472588D01*
X92578826Y-88475203D01*
X92580950Y-88477382D01*
X92589690Y-88483399D01*
X92610352Y-88494664D01*
X92639476Y-88509347D01*
X92661529Y-88519964D01*
X92704311Y-88540386D01*
X92749646Y-88562340D01*
X92794844Y-88584488D01*
X92837222Y-88605495D01*
X92874094Y-88624023D01*
X92902774Y-88638737D01*
X92920577Y-88648300D01*
X92925006Y-88651085D01*
X92933975Y-88656196D01*
X92955336Y-88667207D01*
X92986224Y-88682672D01*
X93023774Y-88701147D01*
X93038672Y-88708402D01*
X93076025Y-88726543D01*
X93105520Y-88740920D01*
X93130132Y-88753062D01*
X93152839Y-88764497D01*
X93176614Y-88776754D01*
X93204435Y-88791360D01*
X93239277Y-88809845D01*
X93284117Y-88833736D01*
X93320908Y-88853356D01*
X93363121Y-88876128D01*
X93399889Y-88896465D01*
X93428687Y-88912928D01*
X93446991Y-88924080D01*
X93452361Y-88928173D01*
X93462817Y-88933895D01*
X93464437Y-88933819D01*
X93474831Y-88937473D01*
X93495640Y-88947912D01*
X93522936Y-88962921D01*
X93552791Y-88980286D01*
X93581276Y-88997790D01*
X93601108Y-89010870D01*
X93617127Y-89021508D01*
X93640980Y-89036853D01*
X93656565Y-89046712D01*
X93693018Y-89071446D01*
X93735608Y-89103213D01*
X93780438Y-89138812D01*
X93823606Y-89175047D01*
X93861215Y-89208719D01*
X93889365Y-89236630D01*
X93892910Y-89240550D01*
X93947387Y-89309212D01*
X93987853Y-89375739D01*
X94013736Y-89438968D01*
X94024475Y-89497732D01*
X94024714Y-89512209D01*
X94024009Y-89543712D01*
X94023274Y-89573599D01*
X94023088Y-89580529D01*
X94019713Y-89612680D01*
X94011969Y-89654286D01*
X94001325Y-89699357D01*
X93989249Y-89741893D01*
X93977208Y-89775904D01*
X93972931Y-89785378D01*
X93949292Y-89823368D01*
X93921239Y-89847627D01*
X93884658Y-89860817D01*
X93850017Y-89865000D01*
X93810346Y-89864800D01*
X93771950Y-89858246D01*
X93729818Y-89845099D01*
X93689998Y-89829562D01*
X93644610Y-89809824D01*
X93599604Y-89788641D01*
X93560928Y-89768773D01*
X93542933Y-89758445D01*
X93532660Y-89752157D01*
X93510843Y-89738813D01*
X93480384Y-89720189D01*
X93444186Y-89698059D01*
X93432259Y-89690767D01*
X93394367Y-89667595D01*
X93360825Y-89647067D01*
X93334704Y-89631064D01*
X93319078Y-89621468D01*
X93316962Y-89620161D01*
X93281060Y-89598669D01*
X93238268Y-89574262D01*
X93191953Y-89548734D01*
X93145479Y-89523865D01*
X93102213Y-89501456D01*
X93065522Y-89483292D01*
X93038771Y-89471165D01*
X93031721Y-89468444D01*
X93025453Y-89468445D01*
X93031151Y-89476456D01*
X93046789Y-89490941D01*
X93070341Y-89510368D01*
X93099784Y-89533203D01*
X93133094Y-89557913D01*
X93168245Y-89582965D01*
X93203213Y-89606824D01*
X93235974Y-89627959D01*
X93264503Y-89644834D01*
X93264827Y-89645012D01*
X93288316Y-89658510D01*
X93324541Y-89680053D01*
X93371898Y-89708681D01*
X93416474Y-89735886D01*
X93432656Y-89745179D01*
X93455724Y-89757769D01*
X93462237Y-89761233D01*
X93483105Y-89772741D01*
X93496934Y-89781249D01*
X93499015Y-89782874D01*
X93508281Y-89788605D01*
X93528984Y-89799919D01*
X93557422Y-89814817D01*
X93572102Y-89822333D01*
X93611640Y-89843030D01*
X93655258Y-89866818D01*
X93698135Y-89890979D01*
X93735452Y-89912799D01*
X93761869Y-89929222D01*
X93777022Y-89935285D01*
X93781837Y-89935537D01*
X93790927Y-89939666D01*
X93791453Y-89941445D01*
X93799112Y-89949280D01*
X93814224Y-89956909D01*
X93832563Y-89966905D01*
X93841872Y-89976175D01*
X93838500Y-89985725D01*
X93825798Y-90006835D01*
X93805020Y-90037838D01*
X93777413Y-90077077D01*
X93744239Y-90122889D01*
X93706749Y-90173615D01*
X93666196Y-90227593D01*
X93623835Y-90283162D01*
X93580919Y-90338661D01*
X93538702Y-90392430D01*
X93498438Y-90442808D01*
X93461379Y-90488133D01*
X93428782Y-90526745D01*
X93410819Y-90547191D01*
X93382312Y-90580191D01*
X93362547Y-90607834D01*
X93350246Y-90634370D01*
X93344131Y-90664051D01*
X93342925Y-90701128D01*
X93345350Y-90749853D01*
X93346215Y-90762155D01*
X93349351Y-90816524D01*
X93349167Y-90856362D01*
X93344764Y-90883893D01*
X93335248Y-90901343D01*
X93319721Y-90910940D01*
X93297287Y-90914911D01*
X93284496Y-90915458D01*
X93244029Y-90911433D01*
X93192953Y-90897693D01*
X93160246Y-90886053D01*
X93097022Y-90861634D01*
X93049440Y-90842324D01*
X93017057Y-90827932D01*
X92999433Y-90818269D01*
X92995927Y-90815002D01*
X92985535Y-90809617D01*
X92984523Y-90809688D01*
X92973409Y-90806471D01*
X92952484Y-90797153D01*
X92931463Y-90786468D01*
X92907636Y-90773790D01*
X92879915Y-90759141D01*
X92845736Y-90741173D01*
X92802534Y-90718537D01*
X92747744Y-90689889D01*
X92726114Y-90678589D01*
X92695868Y-90662161D01*
X92654265Y-90638676D01*
X92604381Y-90609935D01*
X92549293Y-90577736D01*
X92492073Y-90543880D01*
X92435800Y-90510169D01*
X92383547Y-90478401D01*
X92371837Y-90471198D01*
X92334945Y-90448044D01*
X92291867Y-90420345D01*
X92244642Y-90389483D01*
X92195316Y-90356841D01*
X92145927Y-90323796D01*
X92098518Y-90291733D01*
X92055135Y-90262029D01*
X92017814Y-90236066D01*
X91988598Y-90215223D01*
X91969532Y-90200890D01*
X91962659Y-90194480D01*
X91955342Y-90186965D01*
X91938789Y-90176145D01*
X91936813Y-90175030D01*
X91911923Y-90161182D01*
X91934382Y-90183858D01*
X91947946Y-90196345D01*
X91972126Y-90217401D01*
X92004415Y-90244892D01*
X92042308Y-90276685D01*
X92083071Y-90310459D01*
X92124487Y-90344758D01*
X92163208Y-90377201D01*
X92196610Y-90405560D01*
X92222068Y-90427606D01*
X92236713Y-90440874D01*
X92254818Y-90457510D01*
X92281826Y-90481293D01*
X92313579Y-90508593D01*
X92335992Y-90527508D01*
X92398371Y-90580714D01*
X92469174Y-90642843D01*
X92544938Y-90710774D01*
X92622189Y-90781387D01*
X92697452Y-90851560D01*
X92715303Y-90868434D01*
X92740870Y-90892671D01*
X92759152Y-90909973D01*
X92774588Y-90924523D01*
X92791618Y-90940503D01*
X92814685Y-90962092D01*
X92827406Y-90973993D01*
X92870400Y-91016362D01*
X92908334Y-91057883D01*
X92938961Y-91095846D01*
X92960033Y-91127542D01*
X92967250Y-91142682D01*
X92972962Y-91174817D01*
X92971738Y-91214145D01*
X92964443Y-91252880D01*
X92951944Y-91283243D01*
X92951530Y-91283894D01*
X92922955Y-91327551D01*
X92899381Y-91361716D01*
X92877045Y-91391389D01*
X92852188Y-91421569D01*
X92821568Y-91456670D01*
X92747091Y-91536639D01*
X92669216Y-91612675D01*
X92590297Y-91682816D01*
X92512687Y-91745100D01*
X92438741Y-91797563D01*
X92370812Y-91838246D01*
X92352600Y-91847548D01*
X92254599Y-91888982D01*
X92160947Y-91914919D01*
X92069574Y-91925530D01*
X91978405Y-91920989D01*
X91885368Y-91901466D01*
X91846888Y-91889406D01*
X91811073Y-91877194D01*
X91780960Y-91866953D01*
X91760328Y-91859964D01*
X91753423Y-91857654D01*
X91751927Y-91858769D01*
X91757949Y-91866042D01*
X91772680Y-91880638D01*
X91797306Y-91903712D01*
X91833015Y-91936429D01*
X91848395Y-91950409D01*
X91871047Y-91971567D01*
X91889356Y-91989733D01*
X91898160Y-91999529D01*
X91909213Y-92010762D01*
X91931110Y-92030328D01*
X91961353Y-92056132D01*
X91997448Y-92086074D01*
X92036901Y-92118057D01*
X92075705Y-92148803D01*
X92114962Y-92180357D01*
X92154415Y-92213546D01*
X92191838Y-92246328D01*
X92225002Y-92276665D01*
X92251675Y-92302516D01*
X92269630Y-92321843D01*
X92276637Y-92332605D01*
X92276643Y-92332644D01*
X92276328Y-92344876D01*
X92274765Y-92346977D01*
X92265700Y-92349612D01*
X92244149Y-92356358D01*
X92213719Y-92366076D01*
X92190591Y-92373545D01*
X92151273Y-92386123D01*
X92113526Y-92397910D01*
X92083191Y-92407091D01*
X92072892Y-92410065D01*
X92021335Y-92426540D01*
X91961720Y-92448825D01*
X91900670Y-92474289D01*
X91844807Y-92500302D01*
X91841088Y-92502163D01*
X91776818Y-92534505D01*
X91603145Y-92752678D01*
X91429472Y-92970853D01*
X91374826Y-92977690D01*
X91320179Y-92984531D01*
X91286117Y-92949961D01*
X91262389Y-92926166D01*
X91232835Y-92896928D01*
X91203829Y-92868552D01*
X91203658Y-92868386D01*
X91179960Y-92845258D01*
X91160722Y-92826276D01*
X91149415Y-92814869D01*
X91148323Y-92813702D01*
X91138446Y-92803873D01*
X91120824Y-92787195D01*
X91108660Y-92775920D01*
X91085304Y-92753718D01*
X91057083Y-92725804D01*
X91026332Y-92694622D01*
X90995383Y-92662613D01*
X90966568Y-92632215D01*
X90942222Y-92605877D01*
X90924675Y-92586034D01*
X90916262Y-92575128D01*
X90915863Y-92574138D01*
X90908563Y-92564833D01*
X90907795Y-92564580D01*
X90898812Y-92557575D01*
X90882774Y-92541402D01*
X90867131Y-92524078D01*
X90848328Y-92502993D01*
X90833742Y-92487598D01*
X90827576Y-92482019D01*
X90819659Y-92474229D01*
X90803027Y-92455771D01*
X90779550Y-92428872D01*
X90751101Y-92395756D01*
X90719550Y-92358647D01*
X90686770Y-92319771D01*
X90654635Y-92281353D01*
X90625013Y-92245618D01*
X90599778Y-92214791D01*
X90580801Y-92191095D01*
X90569954Y-92176756D01*
X90568130Y-92173641D01*
X90561457Y-92164016D01*
X90560507Y-92163648D01*
X90549639Y-92155647D01*
X90534185Y-92139695D01*
X90519149Y-92121560D01*
X90509539Y-92107008D01*
X90508346Y-92103578D01*
X90501819Y-92095811D01*
X90499848Y-92095746D01*
X90490447Y-92089964D01*
X90485670Y-92082559D01*
X90477453Y-92070025D01*
X90461146Y-92048350D01*
X90439625Y-92021296D01*
X90428588Y-92007867D01*
X90406473Y-91980570D01*
X90389085Y-91957840D01*
X90378916Y-91942995D01*
X90377309Y-91939523D01*
X90370309Y-91932650D01*
X90368934Y-91932685D01*
X90359361Y-91926967D01*
X90354314Y-91919552D01*
X90346360Y-91906259D01*
X90333256Y-91888298D01*
X90312827Y-91862835D01*
X90289333Y-91834654D01*
X90268812Y-91809750D01*
X90241897Y-91776371D01*
X90211879Y-91738673D01*
X90182045Y-91700811D01*
X90155683Y-91666943D01*
X90136083Y-91641222D01*
X90133297Y-91637468D01*
X90099264Y-91591622D01*
X90074720Y-91559365D01*
X90059747Y-91540804D01*
X90055224Y-91536161D01*
X90050801Y-91531995D01*
X90043245Y-91522800D01*
X90030686Y-91506122D01*
X90011255Y-91479510D01*
X89996255Y-91458771D01*
X89976525Y-91431797D01*
X89952684Y-91399682D01*
X89936090Y-91377594D01*
X89918725Y-91354221D01*
X89906250Y-91336641D01*
X89901389Y-91328707D01*
X89896179Y-91320846D01*
X89882996Y-91303812D01*
X89865890Y-91282751D01*
X89847795Y-91260251D01*
X89834907Y-91243026D01*
X89830194Y-91235190D01*
X89824692Y-91226356D01*
X89811341Y-91209519D01*
X89801323Y-91197807D01*
X89787510Y-91181343D01*
X89765400Y-91154165D01*
X89737095Y-91118929D01*
X89704693Y-91078288D01*
X89670296Y-91034894D01*
X89636004Y-90991404D01*
X89603915Y-90950472D01*
X89576131Y-90914748D01*
X89554750Y-90886890D01*
X89544908Y-90873749D01*
X89528797Y-90853025D01*
X89514811Y-90837010D01*
X89512821Y-90835037D01*
X89504104Y-90825292D01*
X89486526Y-90804459D01*
X89461834Y-90774654D01*
X89431776Y-90737989D01*
X89398097Y-90696577D01*
X89386106Y-90681759D01*
X89344401Y-90630153D01*
X89311714Y-90589733D01*
X89286413Y-90558524D01*
X89266864Y-90534549D01*
X89251433Y-90515832D01*
X89238485Y-90500397D01*
X89226387Y-90486267D01*
X89213506Y-90471467D01*
X89198208Y-90454021D01*
X89191697Y-90446600D01*
X89168884Y-90420390D01*
X89150303Y-90398659D01*
X89138848Y-90384808D01*
X89136870Y-90382178D01*
X89127125Y-90369382D01*
X89112400Y-90351724D01*
X89097645Y-90334967D01*
X89087816Y-90324867D01*
X89087114Y-90324311D01*
X89076889Y-90314182D01*
X89059986Y-90294782D01*
X89039914Y-90270363D01*
X89020177Y-90245181D01*
X89005713Y-90225545D01*
X88993877Y-90212481D01*
X88986252Y-90208741D01*
X88978569Y-90203198D01*
X88978204Y-90201524D01*
X88972435Y-90192219D01*
X88957634Y-90173460D01*
X88936246Y-90148246D01*
X88917941Y-90127561D01*
X88893421Y-90099964D01*
X88873735Y-90077152D01*
X88861278Y-90061944D01*
X88858126Y-90057243D01*
X88852405Y-90048958D01*
X88838765Y-90033642D01*
X88833190Y-90027832D01*
X88817803Y-90011135D01*
X88808967Y-89999716D01*
X88808195Y-89997953D01*
X88802801Y-89989512D01*
X88789203Y-89971997D01*
X88770291Y-89949123D01*
X88769401Y-89948075D01*
X88746424Y-89920398D01*
X88724914Y-89893446D01*
X88711464Y-89875681D01*
X88697700Y-89857356D01*
X88687994Y-89845847D01*
X88686621Y-89844610D01*
X88678867Y-89836369D01*
X88663500Y-89818258D01*
X88643336Y-89793749D01*
X88621191Y-89766309D01*
X88599880Y-89739412D01*
X88582221Y-89716526D01*
X88576961Y-89709476D01*
X88537459Y-89653946D01*
X88508950Y-89609651D01*
X88490787Y-89575528D01*
X88483444Y-89555516D01*
X88480564Y-89541460D01*
X88480887Y-89528288D01*
X88485673Y-89512828D01*
X88496184Y-89491912D01*
X88513676Y-89462371D01*
X88532499Y-89432065D01*
X88556237Y-89394325D01*
X88578533Y-89359221D01*
X88596890Y-89330661D01*
X88608814Y-89312551D01*
X88608857Y-89312487D01*
X88652122Y-89249092D01*
X88686521Y-89199114D01*
X88711846Y-89162858D01*
X88717480Y-89154929D01*
X88733847Y-89131322D01*
X88754417Y-89100709D01*
X88771588Y-89074551D01*
X88802613Y-89028066D01*
X88839478Y-88975004D01*
X88877996Y-88921249D01*
X88913978Y-88872685D01*
X88931224Y-88850251D01*
X88949767Y-88825874D01*
X88974605Y-88792268D01*
X89002328Y-88754085D01*
X89026623Y-88720082D01*
X89054524Y-88680974D01*
X89082990Y-88641557D01*
X89108425Y-88606787D01*
X89125121Y-88584393D01*
X89140226Y-88564300D01*
X89163582Y-88533030D01*
X89193376Y-88493021D01*
X89227791Y-88446714D01*
X89265015Y-88396547D01*
X89297037Y-88353325D01*
X89337365Y-88299039D01*
X89378432Y-88244083D01*
X89417943Y-88191509D01*
X89453601Y-88144364D01*
X89483110Y-88105698D01*
X89498733Y-88085495D01*
X89523498Y-88053344D01*
X89555758Y-88010840D01*
X89593024Y-87961301D01*
X89632800Y-87908047D01*
X89672597Y-87854395D01*
X89689276Y-87831783D01*
X89727419Y-87780131D01*
X89765783Y-87728467D01*
X89802091Y-87679835D01*
X89834066Y-87637279D01*
X89859433Y-87603846D01*
X89868787Y-87591682D01*
X89895055Y-87557375D01*
X89920377Y-87523623D01*
X89941074Y-87495362D01*
X89949580Y-87483330D01*
X89978062Y-87442273D01*
X90008175Y-87399310D01*
X90038219Y-87356816D01*
X90066495Y-87317166D01*
X90091302Y-87282739D01*
X90110941Y-87255909D01*
X90123712Y-87239053D01*
X90127532Y-87234565D01*
X90150783Y-87224696D01*
X90186892Y-87224462D01*
X90234922Y-87233675D01*
G37*
D12*
%TO.C,SW8_r1*%
X77688000Y-40998000D02*
X77688000Y-53998000D01*
X78188000Y-54498000D02*
X91188000Y-54498000D01*
X91188000Y-40498000D02*
X78188000Y-40498000D01*
X91688000Y-53998000D02*
X91688000Y-40998000D01*
X77688000Y-40998000D02*
G75*
G02*
X78188000Y-40498000I500000J0D01*
G01*
X78188000Y-54498000D02*
G75*
G02*
X77688000Y-53998000I0J500000D01*
G01*
X91188000Y-40498000D02*
G75*
G02*
X91688000Y-40998000I-1J-500001D01*
G01*
X91688000Y-53998000D02*
G75*
G02*
X91188000Y-54498000I-500001J1D01*
G01*
%TO.C,SW17_r1*%
X28905822Y-95952835D02*
X35405822Y-107211165D01*
X36088835Y-107394178D02*
X47347165Y-100894178D01*
X40347165Y-88769822D02*
X29088835Y-95269822D01*
X47530178Y-100211165D02*
X41030178Y-88952835D01*
X28905822Y-95952835D02*
G75*
G02*
X29088835Y-95269822I433013J250000D01*
G01*
X36088835Y-107394178D02*
G75*
G02*
X35405822Y-107211165I-250000J433013D01*
G01*
X40347165Y-88769822D02*
G75*
G02*
X41030178Y-88952835I250000J-433013D01*
G01*
X47530178Y-100211165D02*
G75*
G02*
X47347165Y-100894178I-433013J-250000D01*
G01*
%TO.C,SW6_r1*%
X113732000Y-59882000D02*
X113732000Y-72882000D01*
X114232000Y-73382000D02*
X127232000Y-73382000D01*
X127232000Y-59382000D02*
X114232000Y-59382000D01*
X127732000Y-72882000D02*
X127732000Y-59882000D01*
X113732000Y-59882000D02*
G75*
G02*
X114232000Y-59382000I500000J0D01*
G01*
X114232000Y-73382000D02*
G75*
G02*
X113732000Y-72882000I0J500000D01*
G01*
X127232000Y-59382000D02*
G75*
G02*
X127732000Y-59882000I-1J-500001D01*
G01*
X127732000Y-72882000D02*
G75*
G02*
X127232000Y-73382000I-500001J1D01*
G01*
D15*
%TO.C,REF_PUCK_R*%
X55372000Y-43424500D02*
G75*
G02*
X56405866Y-39273952I20319983J-2857496D01*
G01*
X56405866Y-53290047D02*
G75*
G02*
X55372000Y-49139500I19286087J7008037D01*
G01*
X68683952Y-26995866D02*
G75*
G02*
X72834500Y-25962000I7008044J-19286117D01*
G01*
X72834500Y-66602000D02*
G75*
G02*
X68683954Y-65568135I2857500J20320000D01*
G01*
X74563615Y-35546136D02*
G75*
G02*
X75692000Y-35487000I1128379J-10735785D01*
G01*
X75692000Y-35487000D02*
G75*
G02*
X76820385Y-35546137I0J-10794900D01*
G01*
X75692000Y-57077000D02*
G75*
G02*
X74563615Y-57017864I-6J10794921D01*
G01*
X76820385Y-57017864D02*
G75*
G02*
X75692000Y-57077001I-1128385J10735764D01*
G01*
X78549500Y-25962000D02*
G75*
G02*
X82700047Y-26995866I-2857500J-20320000D01*
G01*
X82700047Y-65568134D02*
G75*
G02*
X78549500Y-66602000I-7008047J19286134D01*
G01*
X94978135Y-39273955D02*
G75*
G02*
X96012000Y-43424500I-19286154J-7008051D01*
G01*
X96012000Y-49139500D02*
G75*
G02*
X94978135Y-53290046I-20320050J2857512D01*
G01*
D12*
X58842000Y-46282000D02*
G75*
G02*
X54442000Y-46282000I-2200000J0D01*
G01*
X54442000Y-46282000D02*
G75*
G02*
X58842000Y-46282000I2200000J0D01*
G01*
X77892000Y-27232000D02*
G75*
G02*
X73492000Y-27232000I-2200000J0D01*
G01*
X73492000Y-27232000D02*
G75*
G02*
X77892000Y-27232000I2200000J0D01*
G01*
X77892000Y-65332000D02*
G75*
G02*
X73492000Y-65332000I-2200000J0D01*
G01*
X73492000Y-65332000D02*
G75*
G02*
X77892000Y-65332000I2200000J0D01*
G01*
X96942000Y-46282000D02*
G75*
G02*
X92542000Y-46282000I-2200000J0D01*
G01*
X92542000Y-46282000D02*
G75*
G02*
X96942000Y-46282000I2200000J0D01*
G01*
D16*
X74065245Y-60363867D02*
X74868191Y-59561167D01*
X75156559Y-59564261D01*
X75444927Y-59567354D01*
X74597703Y-60427491D01*
X74479778Y-60547214D01*
X74364979Y-60663763D01*
X74254525Y-60775903D01*
X74149633Y-60882396D01*
X74051521Y-60982007D01*
X73961406Y-61073500D01*
X73880507Y-61155637D01*
X73810040Y-61227182D01*
X73751224Y-61286900D01*
X73705277Y-61333554D01*
X73673416Y-61365907D01*
X73659635Y-61379903D01*
X73568791Y-61472179D01*
X73568791Y-58730309D01*
X74065245Y-58730309D01*
X74065245Y-60363867D01*
G36*
X74065245Y-60363867D02*
G01*
X74868191Y-59561167D01*
X75156559Y-59564261D01*
X75444927Y-59567354D01*
X74597703Y-60427491D01*
X74479778Y-60547214D01*
X74364979Y-60663763D01*
X74254525Y-60775903D01*
X74149633Y-60882396D01*
X74051521Y-60982007D01*
X73961406Y-61073500D01*
X73880507Y-61155637D01*
X73810040Y-61227182D01*
X73751224Y-61286900D01*
X73705277Y-61333554D01*
X73673416Y-61365907D01*
X73659635Y-61379903D01*
X73568791Y-61472179D01*
X73568791Y-58730309D01*
X74065245Y-58730309D01*
X74065245Y-60363867D01*
G37*
X74872025Y-60770398D02*
X74894728Y-60793261D01*
X74929207Y-60828792D01*
X74973476Y-60874884D01*
X75025543Y-60929430D01*
X75083422Y-60990324D01*
X75145121Y-61055459D01*
X75208654Y-61122729D01*
X75272029Y-61190027D01*
X75333259Y-61255246D01*
X75390355Y-61316281D01*
X75441327Y-61371024D01*
X75484187Y-61417369D01*
X75516945Y-61453209D01*
X75537613Y-61476438D01*
X75539906Y-61479129D01*
X75568207Y-61512764D01*
X74948193Y-61512764D01*
X74774843Y-61336695D01*
X74721101Y-61281952D01*
X74670818Y-61230439D01*
X74627002Y-61185259D01*
X74592656Y-61149513D01*
X74570788Y-61126304D01*
X74567611Y-61122812D01*
X74533729Y-61084997D01*
X74694764Y-60923653D01*
X74744477Y-60874198D01*
X74788701Y-60830873D01*
X74824848Y-60796160D01*
X74850330Y-60772540D01*
X74862559Y-60762492D01*
X74863090Y-60762309D01*
X74872025Y-60770398D01*
G36*
X74872025Y-60770398D02*
G01*
X74894728Y-60793261D01*
X74929207Y-60828792D01*
X74973476Y-60874884D01*
X75025543Y-60929430D01*
X75083422Y-60990324D01*
X75145121Y-61055459D01*
X75208654Y-61122729D01*
X75272029Y-61190027D01*
X75333259Y-61255246D01*
X75390355Y-61316281D01*
X75441327Y-61371024D01*
X75484187Y-61417369D01*
X75516945Y-61453209D01*
X75537613Y-61476438D01*
X75539906Y-61479129D01*
X75568207Y-61512764D01*
X74948193Y-61512764D01*
X74774843Y-61336695D01*
X74721101Y-61281952D01*
X74670818Y-61230439D01*
X74627002Y-61185259D01*
X74592656Y-61149513D01*
X74570788Y-61126304D01*
X74567611Y-61122812D01*
X74533729Y-61084997D01*
X74694764Y-60923653D01*
X74744477Y-60874198D01*
X74788701Y-60830873D01*
X74824848Y-60796160D01*
X74850330Y-60772540D01*
X74862559Y-60762492D01*
X74863090Y-60762309D01*
X74872025Y-60770398D01*
G37*
X76270279Y-59229650D02*
X76270471Y-59333890D01*
X76270960Y-59430635D01*
X76271710Y-59517521D01*
X76272686Y-59592183D01*
X76273855Y-59652258D01*
X76275182Y-59695381D01*
X76276631Y-59719188D01*
X76277539Y-59723218D01*
X76289970Y-59716904D01*
X76314816Y-59700561D01*
X76338950Y-59683359D01*
X76453647Y-59612637D01*
X76575863Y-59563533D01*
X76706246Y-59535857D01*
X76845447Y-59529419D01*
X76863259Y-59530087D01*
X76952894Y-59536639D01*
X77029377Y-59548576D01*
X77101029Y-59568068D01*
X77176167Y-59597285D01*
X77246018Y-59629924D01*
X77373951Y-59705217D01*
X77486871Y-59797197D01*
X77583765Y-59904186D01*
X77663623Y-60024511D01*
X77725433Y-60156496D01*
X77768185Y-60298465D01*
X77790866Y-60448744D01*
X77794427Y-60538414D01*
X77784136Y-60690892D01*
X77752780Y-60835456D01*
X77699635Y-60974692D01*
X77642380Y-61081611D01*
X77556668Y-61201904D01*
X77455055Y-61306753D01*
X77339722Y-61395075D01*
X77212847Y-61465789D01*
X77076611Y-61517812D01*
X76933192Y-61550065D01*
X76784771Y-61561464D01*
X76684525Y-61556981D01*
X76539917Y-61532100D01*
X76399349Y-61485825D01*
X76266176Y-61419846D01*
X76143756Y-61335849D01*
X76035444Y-61235523D01*
X76027050Y-61226357D01*
X75945919Y-61122237D01*
X75876227Y-61004055D01*
X75821061Y-60878192D01*
X75783508Y-60751032D01*
X75774639Y-60704582D01*
X75772026Y-60676187D01*
X75769681Y-60626115D01*
X75768212Y-60575781D01*
X76264550Y-60575781D01*
X76275122Y-60673330D01*
X76305554Y-60767349D01*
X76334208Y-60821494D01*
X76401142Y-60909777D01*
X76480623Y-60980654D01*
X76570055Y-61033147D01*
X76666841Y-61066279D01*
X76768382Y-61079073D01*
X76872083Y-61070552D01*
X76944910Y-61051264D01*
X76987907Y-61035178D01*
X77028812Y-61017818D01*
X77044979Y-61010042D01*
X77090265Y-60979038D01*
X77139588Y-60932844D01*
X77187645Y-60877388D01*
X77229130Y-60818594D01*
X77250618Y-60780267D01*
X77270799Y-60736021D01*
X77283444Y-60697413D01*
X77290801Y-60655121D01*
X77295119Y-60599818D01*
X77295401Y-60594528D01*
X77292033Y-60487283D01*
X77269177Y-60389391D01*
X77225525Y-60295968D01*
X77207755Y-60267439D01*
X77143213Y-60189535D01*
X77064396Y-60127365D01*
X76974760Y-60081869D01*
X76877761Y-60053991D01*
X76776857Y-60044671D01*
X76675505Y-60054853D01*
X76577159Y-60085478D01*
X76563156Y-60091764D01*
X76475204Y-60144713D01*
X76401214Y-60212927D01*
X76342171Y-60293273D01*
X76299058Y-60382620D01*
X76272856Y-60477833D01*
X76264550Y-60575781D01*
X75768212Y-60575781D01*
X75767628Y-60555778D01*
X75765889Y-60466589D01*
X75764486Y-60359960D01*
X75763442Y-60237304D01*
X75762778Y-60100032D01*
X75762517Y-59949558D01*
X75762514Y-59937822D01*
X75762427Y-59246108D01*
X76270131Y-58736082D01*
X76270279Y-59229650D01*
G36*
X76270279Y-59229650D02*
G01*
X76270471Y-59333890D01*
X76270960Y-59430635D01*
X76271710Y-59517521D01*
X76272686Y-59592183D01*
X76273855Y-59652258D01*
X76275182Y-59695381D01*
X76276631Y-59719188D01*
X76277539Y-59723218D01*
X76289970Y-59716904D01*
X76314816Y-59700561D01*
X76338950Y-59683359D01*
X76453647Y-59612637D01*
X76575863Y-59563533D01*
X76706246Y-59535857D01*
X76845447Y-59529419D01*
X76863259Y-59530087D01*
X76952894Y-59536639D01*
X77029377Y-59548576D01*
X77101029Y-59568068D01*
X77176167Y-59597285D01*
X77246018Y-59629924D01*
X77373951Y-59705217D01*
X77486871Y-59797197D01*
X77583765Y-59904186D01*
X77663623Y-60024511D01*
X77725433Y-60156496D01*
X77768185Y-60298465D01*
X77790866Y-60448744D01*
X77794427Y-60538414D01*
X77784136Y-60690892D01*
X77752780Y-60835456D01*
X77699635Y-60974692D01*
X77642380Y-61081611D01*
X77556668Y-61201904D01*
X77455055Y-61306753D01*
X77339722Y-61395075D01*
X77212847Y-61465789D01*
X77076611Y-61517812D01*
X76933192Y-61550065D01*
X76784771Y-61561464D01*
X76684525Y-61556981D01*
X76539917Y-61532100D01*
X76399349Y-61485825D01*
X76266176Y-61419846D01*
X76143756Y-61335849D01*
X76035444Y-61235523D01*
X76027050Y-61226357D01*
X75945919Y-61122237D01*
X75876227Y-61004055D01*
X75821061Y-60878192D01*
X75783508Y-60751032D01*
X75774639Y-60704582D01*
X75772026Y-60676187D01*
X75769681Y-60626115D01*
X75768212Y-60575781D01*
X76264550Y-60575781D01*
X76275122Y-60673330D01*
X76305554Y-60767349D01*
X76334208Y-60821494D01*
X76401142Y-60909777D01*
X76480623Y-60980654D01*
X76570055Y-61033147D01*
X76666841Y-61066279D01*
X76768382Y-61079073D01*
X76872083Y-61070552D01*
X76944910Y-61051264D01*
X76987907Y-61035178D01*
X77028812Y-61017818D01*
X77044979Y-61010042D01*
X77090265Y-60979038D01*
X77139588Y-60932844D01*
X77187645Y-60877388D01*
X77229130Y-60818594D01*
X77250618Y-60780267D01*
X77270799Y-60736021D01*
X77283444Y-60697413D01*
X77290801Y-60655121D01*
X77295119Y-60599818D01*
X77295401Y-60594528D01*
X77292033Y-60487283D01*
X77269177Y-60389391D01*
X77225525Y-60295968D01*
X77207755Y-60267439D01*
X77143213Y-60189535D01*
X77064396Y-60127365D01*
X76974760Y-60081869D01*
X76877761Y-60053991D01*
X76776857Y-60044671D01*
X76675505Y-60054853D01*
X76577159Y-60085478D01*
X76563156Y-60091764D01*
X76475204Y-60144713D01*
X76401214Y-60212927D01*
X76342171Y-60293273D01*
X76299058Y-60382620D01*
X76272856Y-60477833D01*
X76264550Y-60575781D01*
X75768212Y-60575781D01*
X75767628Y-60555778D01*
X75765889Y-60466589D01*
X75764486Y-60359960D01*
X75763442Y-60237304D01*
X75762778Y-60100032D01*
X75762517Y-59949558D01*
X75762514Y-59937822D01*
X75762427Y-59246108D01*
X76270131Y-58736082D01*
X76270279Y-59229650D01*
G37*
D11*
%TO.C,BatGNDr1*%
X35068000Y-49800000D02*
X35068000Y-51800000D01*
X35068000Y-51800000D02*
X37068000Y-51800000D01*
X37068000Y-49800000D02*
X35068000Y-49800000D01*
X37068000Y-51800000D02*
X37068000Y-49800000D01*
%TO.C,Bat+r1*%
X23638000Y-49800000D02*
X23638000Y-51800000D01*
X23638000Y-51800000D02*
X25638000Y-51800000D01*
X25638000Y-49800000D02*
X23638000Y-49800000D01*
X25638000Y-51800000D02*
X25638000Y-49800000D01*
D12*
%TO.C,RSW2*%
X42100000Y-82550000D02*
X42400000Y-82550000D01*
X42100000Y-85850000D02*
X42100000Y-82550000D01*
X42400000Y-85850000D02*
X42100000Y-85850000D01*
X44600000Y-85850000D02*
X44900000Y-85850000D01*
X44900000Y-82550000D02*
X44600000Y-82550000D01*
X44900000Y-85850000D02*
X44900000Y-82550000D01*
%TO.C,J1*%
X223798000Y-84170000D02*
X225128000Y-84170000D01*
X223798000Y-85500000D02*
X223798000Y-84170000D01*
X226398000Y-84170000D02*
X236618000Y-84170000D01*
X226398000Y-86830000D02*
X226398000Y-84170000D01*
X226398000Y-86830000D02*
X236618000Y-86830000D01*
X236618000Y-86830000D02*
X236618000Y-84170000D01*
%TO.C,J1_r1*%
X23946000Y-84170000D02*
X25276000Y-84170000D01*
X23946000Y-85500000D02*
X23946000Y-84170000D01*
X26546000Y-84170000D02*
X36766000Y-84170000D01*
X26546000Y-86830000D02*
X26546000Y-84170000D01*
X26546000Y-86830000D02*
X36766000Y-86830000D01*
X36766000Y-86830000D02*
X36766000Y-84170000D01*
%TD*%
D17*
%TO.C,U1*%
X237789400Y-53086000D03*
X237789400Y-55626000D03*
X237789400Y-58166000D03*
X237789400Y-60706000D03*
X237789400Y-63246000D03*
X237789400Y-65786000D03*
X237789400Y-68326000D03*
X237789400Y-70866000D03*
X237789400Y-73406000D03*
X237789400Y-75946000D03*
X237789400Y-78486000D03*
X237789400Y-81026000D03*
X222569400Y-81026000D03*
X222569400Y-78486000D03*
X222569400Y-75946000D03*
X222569400Y-73406000D03*
X222569400Y-70866000D03*
X222569400Y-68326000D03*
X222569400Y-65786000D03*
X222569400Y-63246000D03*
X222569400Y-60706000D03*
X222569400Y-58166000D03*
X222569400Y-55626000D03*
X222569400Y-53086000D03*
%TD*%
D18*
%TO.C,Bat+1*%
X235966000Y-50800000D03*
%TD*%
%TO.C,BatGND1*%
X224282000Y-50800000D03*
%TD*%
D17*
%TO.C,U2*%
X37937400Y-53086000D03*
X37937400Y-55626000D03*
X37937400Y-58166000D03*
X37937400Y-60706000D03*
X37937400Y-63246000D03*
X37937400Y-65786000D03*
X37937400Y-68326000D03*
X37937400Y-70866000D03*
X37937400Y-73406000D03*
X37937400Y-75946000D03*
X37937400Y-78486000D03*
X37937400Y-81026000D03*
X22717400Y-81026000D03*
X22717400Y-78486000D03*
X22717400Y-75946000D03*
X22717400Y-73406000D03*
X22717400Y-70866000D03*
X22717400Y-68326000D03*
X22717400Y-65786000D03*
X22717400Y-63246000D03*
X22717400Y-60706000D03*
X22717400Y-58166000D03*
X22717400Y-55626000D03*
X22717400Y-53086000D03*
%TD*%
D18*
%TO.C,BatGNDr1*%
X36068000Y-50800000D03*
%TD*%
%TO.C,Bat+r1*%
X24638000Y-50800000D03*
%TD*%
M02*
